<svg xmlns="http://www.w3.org/2000/svg" width="100%" viewBox="0 0 185 123" fill="none" data-scroll-animation="sticker" class="team-grid__sticker-5-svg" style="translate: none; rotate: none; scale: none; transform: translate(8.4984%, -0.4027%) rotate(-38.8793deg) scale(0, 0);"><path d="M182.996 73.6178C186.164 64.8264 184.461 53.2629 174.64 49.8968C169.69 48.3524 164.344 49.3424 159.275 48.4712C154.998 47.7188 151.157 45.1843 147.236 43.4023C144.266 41.9766 141.217 40.947 138.247 39.6402C135.99 38.6502 133.772 37.5017 131.515 36.5117C127.436 34.4525 122.842 34.8089 118.446 34.5317C116.585 34.4129 114.724 34.1753 112.902 33.8981C110.091 33.4624 107.358 32.7892 104.626 33.2644C100.428 33.7397 92.2702 37.3433 88.7457 35.0465C86.4488 33.106 89.8149 29.1063 90.6861 26.7303C93.8542 20.3545 92.587 11.6027 86.4884 7.36544C82.8848 4.79138 78.3307 4.15776 74.1726 2.81133C66.6484 0.435277 60.8666 -2.05958 53.6989 3.12814C51.5604 4.71218 49.818 6.77142 47.8379 8.51386C46.2143 10.0187 44.3531 11.2067 42.2542 11.9195C39.9178 12.7908 37.1853 13.1472 34.5716 13.86C31.0472 14.85 27.6811 16.2756 24.117 17.1469C20.5529 18.0973 16.9096 18.4933 13.5435 20.1961C2.45529 25.8987 0.356438 42.1746 2.96733e-05 53.4213C-0.0791722 60.1139 0.792048 67.0836 4.98975 72.3901C6.89059 74.885 9.66265 76.7066 11.8803 78.7659C14.494 81.1815 15.5236 83.9932 15.9196 87.5177C16.5928 98.5664 19.4837 108.467 28.7107 115.436C34.0172 119.278 40.2742 122.723 46.9667 122.683C52.0356 122.604 55.6789 119.555 58.8866 115.991C61.8171 112.902 65.104 110.09 68.7472 107.714C71.2421 106.13 73.7765 104.744 76.4298 103.635C78.8851 102.606 81.3799 101.695 83.7164 100.428C87.5973 98.2892 91.2802 95.9527 95.3986 94.2103C96.5867 93.6954 97.8143 93.2598 99.0419 92.8638C103.042 91.6758 107.002 90.5274 111.16 90.3294C118.09 90.0918 125.456 90.6066 132.029 92.8638C135.475 94.2103 138.88 96.5071 141.969 98.7644C148.107 103.516 155.592 109.496 163.671 105.972C170.918 103.16 173.096 95.0419 175.789 88.5077C177.927 83.4388 181.214 78.8847 182.917 73.6178V73.5386L182.996 73.6178Z" fill="#82A0FF"></path><path d="M48.7487 109.892C48.2735 110.843 46.5707 111.12 45.6994 110.724C45.2242 110.526 44.9074 110.09 44.5906 109.734C44.1154 109.179 43.6402 108.665 43.3234 107.991C43.165 107.516 42.8482 107.358 42.373 107.476C38.7693 108.268 35.5616 105.853 33.2647 103.358C32.2351 102.17 31.4827 100.824 30.7303 99.4375C30.3343 98.6851 30.0175 97.9327 29.7403 97.1406C27.2454 89.5769 27.7206 81.3003 29.7403 73.6969C30.6511 70.4892 31.9183 67.2419 34.2152 64.7867C34.5716 64.4699 34.8884 64.1135 35.2844 63.8363C35.918 63.4799 36.6704 63.4007 37.3436 63.0838C38.8485 62.5294 40.3533 63.3215 40.9077 64.7867C41.3433 65.9747 41.3037 67.2419 41.3037 68.4696C41.3037 68.7864 41.3037 69.1032 41.2245 69.42C40.8285 71.0436 39.9969 72.5089 39.3633 74.0929C37.9773 77.459 36.6704 80.9835 36.5516 84.6663C36.5516 88.1512 36.71 91.8341 38.2941 95.0022C38.5713 95.517 38.8881 96.1902 39.4029 96.4278C39.8385 96.6258 40.2345 96.1902 40.3137 95.7942C40.4721 94.923 40.3137 94.0122 40.2741 93.1409C40.1553 91.4381 40.1157 89.6957 39.6009 88.0324C39.3237 86.7256 38.9673 85.3792 38.9673 84.0327C39.0465 82.8051 39.2841 81.4983 39.8781 80.3894C40.7889 78.845 42.571 78.7262 43.7194 80.1122C44.6698 81.3399 45.2242 82.8843 45.8182 84.3495C46.2142 85.4188 46.5311 86.5672 46.7291 87.7156C47.3231 90.8837 48.2735 94.0122 48.7487 97.2198C49.2635 99.9919 49.6199 102.804 49.6595 105.655C49.6595 107.08 49.2635 108.506 48.6695 109.773V109.813L48.7487 109.892Z" fill="#FFE1F0"></path><path d="M65.1831 86.1317C65.0643 84.3893 65.1039 82.6468 64.7871 80.944C64.6683 80.2708 64.5495 79.5975 64.4703 78.9243C64.3911 78.2907 64.3911 77.6175 64.3119 76.9443C64.1535 75.7959 63.9159 74.687 63.7179 73.5386C63.2427 70.8457 62.6487 68.1529 61.3418 65.7372C60.9854 65.1432 60.629 64.5888 60.3122 63.9948C60.1142 63.6384 59.9558 63.2424 59.7974 62.8464C59.4014 61.9355 58.7282 61.3019 58.0154 60.7079C57.3025 60.0743 56.5501 59.6387 55.5997 59.3219C55.0849 59.1239 54.5701 58.9259 54.0157 58.8467C52.8672 58.6883 52.0356 59.6387 51.1644 60.1931C49.8576 60.8267 49.1844 62.0543 48.5111 63.2424C48.0359 64.074 47.6795 64.9452 47.4815 65.856C47.1647 67.7569 47.0063 69.6973 46.8479 71.5982C46.7687 72.311 46.6499 72.9842 46.6499 73.697C46.6499 74.291 46.8479 74.885 46.8875 75.4394C46.9667 76.3107 47.0063 77.1423 47.1251 77.9739C47.5211 80.5084 47.7983 83.0824 48.5903 85.4981C48.828 86.2901 49.1052 87.0425 49.3824 87.8345C49.62 88.5078 49.7784 89.2206 50.0556 89.8542C50.9664 91.5174 51.996 93.1411 53.1049 94.6855C54.0949 96.0715 55.4413 97.22 57.0253 97.9328C57.659 98.2892 58.3322 98.6852 59.045 98.804C59.441 98.8832 59.8766 98.8436 60.2726 98.804C61.1438 98.804 61.8171 98.1308 62.3319 97.5368C63.2427 96.5071 63.9951 95.3587 64.3515 94.0123C64.7079 92.9431 65.0643 91.8738 65.0643 90.765C65.2227 89.181 65.3811 87.6365 65.1435 86.0525L65.1831 86.1317ZM58.6886 88.0721C58.2134 88.5474 57.7778 88.191 57.5006 87.7553C56.2729 86.0525 55.4809 84.1121 55.3621 81.9736C55.1641 80.5876 54.8473 78.4095 56.4313 77.7759C57.8966 77.6175 58.6886 80.9836 59.045 82.0924C59.441 83.2012 59.4806 84.1517 59.5994 85.4585C59.837 86.6465 59.5598 87.2009 58.6886 88.0721Z" fill="#FFE1F0"></path><path d="M81.6175 72.5082C81.6175 71.7954 81.6175 71.0826 81.6175 70.3698C81.5383 68.7857 80.9047 67.3205 80.6275 65.7761C80.4295 64.6276 80.0731 63.4792 79.6771 62.3704C79.0831 60.4695 78.4098 58.6083 77.3406 56.9847C76.905 56.3114 76.2714 55.8758 75.6774 55.361C75.0438 54.8858 74.4497 54.2522 73.6577 54.0542C72.4697 53.8166 71.2817 54.4106 70.3709 55.1234C69.8956 55.5194 69.4996 56.0342 69.1432 56.5094C68.6284 57.0243 68.1136 57.5787 67.7968 58.2519C66.7672 60.3111 66.094 62.6476 65.7771 64.984C65.6583 66.0137 65.7771 67.0829 65.6187 68.1125C65.3811 70.7658 65.4999 73.3794 66.292 75.9535C66.5692 76.8247 66.7672 77.6959 66.9256 78.5672C67.4008 81.2996 68.5492 83.8341 69.7768 86.2893C70.2917 87.1606 70.9253 87.9526 71.7173 88.5862C72.3509 89.101 73.0637 89.497 73.6973 90.0118C74.4498 90.6454 74.6874 90.883 75.717 90.7246C76.0734 90.7246 76.4694 90.8434 76.8258 90.8434C77.7366 90.8434 78.5286 90.289 79.0039 89.5366C79.5187 88.7446 79.7959 87.8734 80.1919 87.0022C81.1423 84.7845 81.6175 82.448 81.6967 80.072C81.7759 77.5375 82.0531 75.0031 81.6571 72.5082H81.6175ZM75.321 81.1808C74.9646 81.6956 74.3309 81.5768 74.0141 81.062C73.6181 80.3096 73.3409 79.5176 73.1429 78.686C72.8261 77.1415 72.6677 75.4783 72.7073 73.8943C72.7469 73.3002 73.0637 72.5874 73.6181 72.3498C74.1725 72.231 74.6874 73.1022 74.9646 73.4982C75.321 74.1319 75.321 74.8447 75.519 75.5179C75.7962 76.3891 76.113 77.2603 76.0338 78.1711C76.0338 78.7256 76.113 79.3196 75.915 79.874C75.7566 80.3096 75.5586 80.7452 75.321 81.1412V81.1808Z" fill="#FFE1F0"></path><path d="M97.5766 68.3105C97.4578 67.0829 97.3786 65.8156 97.339 64.588C97.1014 62.6872 96.9034 60.7863 96.4282 58.9647C95.9926 56.945 95.557 54.9254 94.5274 53.1433C93.4978 51.4009 92.6661 49.2228 90.6465 48.3912C85.5776 47.0052 83.1223 53.8562 82.7263 57.737C82.5283 59.8359 82.3699 61.9347 82.6075 64.0336C82.7263 64.9048 82.8451 65.8156 82.9243 66.7265C83.0827 68.8649 83.3599 70.9638 83.9143 73.023C84.2311 74.4486 84.5479 75.8743 85.1816 77.1415C85.4588 77.6959 85.8152 78.1711 86.0924 78.7255C86.2904 79.1215 86.528 79.5175 86.7656 79.874C87.518 80.9036 88.508 81.6956 89.5773 82.3688C91.3593 83.5964 93.6166 82.6064 94.9234 81.1016C95.6758 80.072 96.1114 78.8443 96.6262 77.6959C96.745 77.3791 96.8242 77.0623 96.9034 76.7455C97.141 75.8347 97.4578 74.9634 97.4974 74.013C97.5766 72.1518 97.6558 70.2113 97.537 68.3501L97.5766 68.3105ZM91.8741 72.9834C91.5177 75.2011 90.2109 73.815 89.6565 72.5874C88.9436 70.7657 88.5476 68.7065 88.7852 66.7265C88.904 65.776 89.9733 64.4296 90.9237 65.3404C91.3593 65.8948 91.5573 66.8453 91.6761 67.5185C91.6761 67.9145 91.8345 68.3105 91.9929 68.6669C92.5077 70.0925 92.2701 71.5182 91.9137 72.9438L91.8741 72.9834Z" fill="#FFE1F0"></path><path d="M28.0375 66.6474C27.1662 67.5979 26.097 68.3503 24.8298 68.6275C23.4833 68.7859 22.1369 68.7463 20.8301 68.6275C18.652 68.1523 15.9196 67.5187 14.3751 65.7366C13.7415 65.0238 13.3059 63.9942 13.0683 63.0438C11.8407 58.6084 11.8803 53.9355 12.4347 49.3814C12.9099 44.4313 13.6623 39.402 15.682 34.8479C16.3552 33.5015 17.0284 32.0758 18.1372 31.1254C20.1173 29.4226 22.1765 30.4126 22.9289 32.7094C23.7606 35.4419 23.1665 38.7684 22.4537 41.5009C21.7409 44.2729 21.0677 47.0054 20.3945 49.817C20.0777 51.1635 20.1173 52.5891 20.3945 53.9355C20.6717 54.9256 21.4637 55.7572 22.4141 56.1532C23.0873 56.4304 23.8002 56.47 24.4734 56.6284C25.6614 56.9056 26.7306 57.4204 27.6018 58.252C28.3543 59.0045 28.9879 59.9945 29.2651 61.0241C29.3839 61.5785 29.2651 62.2121 29.3443 62.8061C29.6611 64.311 28.8691 65.6178 27.9583 66.7266L28.0375 66.6474Z" fill="#FFE1F0"></path><path d="M114.486 61.8166C114.288 59.3614 113.734 56.8665 113.417 54.4113C113.219 52.7876 112.744 51.2432 111.873 49.8968C111.12 48.5899 110.566 47.1643 109.497 46.0951C106.922 43.6002 104.428 44.7882 102.448 47.2039C100.903 49.1047 100.349 51.6392 100.111 54.0549C99.7151 56.8665 99.9527 59.7178 100.468 62.4899C100.784 66.3311 101.893 69.9744 103.358 73.4989C104.309 75.9146 105.972 79.0826 109.061 78.6866C110.289 78.4094 111.437 76.9838 112.11 75.9542C113.1 74.0137 113.694 71.8357 114.09 69.6972C114.447 67.7568 114.645 65.7767 114.526 63.8363C114.526 63.2027 114.407 62.4898 114.486 61.8562V61.8166ZM109.259 70.0932C108.863 70.9248 107.754 70.6872 107.437 69.8952C106.645 68.1528 106.368 66.0539 106.685 64.1135C106.804 62.2918 108.546 61.8562 109.219 63.6779C109.457 64.2323 109.417 64.7867 109.497 65.3807C109.576 65.8955 109.576 66.4103 109.497 66.9252C109.497 67.3212 109.615 67.7172 109.615 68.1528C109.615 68.7864 109.497 69.4992 109.259 70.0932Z" fill="#FFE1F0"></path><path d="M81.3403 19.8C81.3403 20.5524 81.0631 21.2257 80.7067 21.8989C80.3503 22.6117 79.9146 23.3641 79.3998 23.9185C78.687 24.6709 77.8554 25.3442 77.0238 25.9778C76.311 26.453 75.5189 26.8094 74.8061 27.2846C72.5093 28.9874 71.8757 32.1951 72.5093 34.8484C72.7073 35.7196 73.0241 36.5908 73.3409 37.4224C73.8953 38.8877 74.0537 40.4321 74.0537 41.9765C74.2121 45.8178 72.6677 49.5403 70.054 52.2728C68.1532 54.2528 65.0643 56.5497 62.3714 54.728C61.1042 54.0152 60.5894 52.3916 60.7082 51.0451C61.1438 48.9067 62.9258 47.3623 64.1535 45.5802C65.4207 43.6398 67.4404 41.8181 67.3612 39.2837C67.282 38.254 66.6483 37.3036 66.1731 36.4324C64.1535 33.9771 63.7179 31.9575 64.7475 28.9082C65.6187 25.8194 67.3216 22.9681 69.7372 20.79C71.242 19.404 72.8657 18.018 74.8061 17.226C75.8357 16.7904 76.9446 16.5131 78.093 16.3943C78.687 16.3151 79.2414 16.3943 79.7958 16.6715C80.9047 17.226 81.6175 18.4536 81.4987 19.6812L81.3403 19.8Z" fill="#FFE1F0"></path><path d="M41.4621 56.272C40.8681 57.2225 40.0365 58.0145 39.1653 58.7273C38.294 59.5193 37.1852 60.0341 35.9972 59.9549C34.4923 59.9549 33.3043 59.8361 32.1559 58.7669C30.2946 57.1432 29.067 54.9256 28.8294 52.3911C28.6314 50.4507 28.7106 48.5102 29.1066 46.649C29.3046 45.6194 29.7402 44.6294 29.7798 43.5997C29.8194 42.7285 29.5026 41.8573 29.067 41.0653C28.0374 39.2436 28.1166 37.1844 28.671 35.2439C29.9778 30.8878 33.3043 26.6505 37.7792 25.3437C40.5513 24.6309 41.9373 26.4921 41.0265 29.1058C40.4325 30.5314 39.3633 31.6799 38.4524 32.9075C37.7792 33.8183 36.8684 34.5311 36.2744 35.5211C35.9972 36.0756 35.126 37.422 35.9972 37.8576C36.512 38.0952 37.4624 38.016 37.9772 38.412C38.9673 39.2436 38.4128 41.0257 37.8584 41.9761C37.2248 43.3621 34.2151 47.0846 36.9872 47.6786C38.4128 47.8766 39.9573 47.045 41.3037 47.7578C41.9769 48.1142 42.4125 48.7875 42.6897 49.4607C43.6402 51.8763 42.8877 54.1732 41.5413 56.2324L41.4621 56.272Z" fill="#FFE1F0"></path><path d="M130.287 59.638C130.129 57.1036 129.812 54.5691 129.257 52.0742C128.663 49.9358 127.555 47.6785 125.614 46.4113C125.258 46.2529 124.862 46.2529 124.505 46.2925C123.396 46.4509 122.486 47.0053 121.773 47.8369C119.674 49.817 118.922 51.1238 118.288 53.9751C118.09 54.8067 117.852 55.6383 117.694 56.4699C117.575 57.1036 117.654 57.7768 117.496 58.4104C117.298 59.2024 117.536 59.9548 117.456 60.7468C117.377 62.4893 117.536 64.2713 117.496 66.0534C117.654 68.469 118.248 70.8055 118.882 73.1419C119.476 75.0824 120.466 76.9436 121.971 78.3297C123.08 79.2405 125.06 79.2801 126.01 78.092C126.644 77.3792 127.238 76.6664 127.634 75.8348C127.99 75.0428 128.347 74.2508 128.624 73.4191C129.535 71.0827 129.772 68.6274 130.049 66.1722C130.406 64.0337 130.406 61.8161 130.247 59.6776L130.287 59.638ZM125.456 66.3702C125.377 67.1622 125.297 67.9938 125.258 68.7858C125.218 69.3006 125.179 69.8155 124.862 70.2115C124.466 70.7659 123.476 71.2015 123.08 70.4491C122.763 69.9343 122.604 69.1422 122.486 68.667C122.406 68.3106 122.406 67.9146 122.446 67.5186C122.525 66.3306 122.565 65.3802 122.723 64.4297C122.882 63.4793 123.159 63.2813 123.594 62.8061C124.545 61.8161 125.179 63.7565 125.377 64.4297C125.535 65.0237 125.535 65.697 125.495 66.3306L125.456 66.3702Z" fill="#FFE1F0"></path><path d="M58.0946 27.6412C57.9757 28.4333 57.6193 29.1065 57.0649 29.6609C54.7681 31.6013 52.8276 34.1754 52.9068 37.3039C52.9068 39.4027 52.8276 41.5016 52.9068 43.6004C52.9068 44.3132 52.986 45.026 53.0256 45.7785C53.1444 47.8773 52.9464 49.9762 52.5108 52.0354C52.1544 53.7778 51.6792 55.5995 50.5308 57.0251C49.9764 57.7379 49.2239 58.4508 48.3527 58.6884C46.2935 59.2032 44.7094 56.5895 45.0659 54.6887C45.4619 51.0058 45.6599 47.3229 46.3727 43.6796C46.6895 41.858 46.4519 40.0363 46.4915 38.2147C46.4915 37.7395 46.4915 37.2247 46.4123 36.7495C46.1747 35.3634 45.0658 34.3734 43.7986 33.8586C42.4126 33.423 41.383 32.5518 41.6206 30.9281C41.8582 29.4233 42.769 28.1957 43.8382 27.1264C46.2935 24.7108 49.7784 23.4435 53.184 23.5623C54.8077 23.8396 56.6293 24.2356 57.7381 25.5028C58.1738 26.0176 58.253 26.8492 58.1342 27.562V27.6016L58.0946 27.6412Z" fill="#FFE1F0"></path><path d="M157.889 61.7375C157.453 60.9058 156.384 60.1138 155.434 60.0742C155.117 60.0742 154.8 60.1534 154.523 60.2326C153.889 60.4306 153.216 60.5494 152.582 60.787C151.79 61.0642 151.355 61.7771 150.8 62.4107C150.246 63.0443 149.731 63.6779 149.295 64.3907C148.266 65.9352 147.632 67.7172 147.038 69.4992C146.405 71.2417 145.969 73.0237 145.731 74.8454C145.494 76.4294 145.296 78.0134 145.217 79.5975C145.177 80.7459 145.098 81.9339 145.296 83.0428C145.494 84.112 145.454 85.4584 145.929 86.488C146.365 87.2404 146.959 88.0325 147.751 88.4681C148.345 88.7453 148.979 89.0225 149.691 88.9433C151.196 88.6661 152.622 87.8741 153.572 86.686C153.968 86.2504 154.246 85.696 154.562 85.2208C154.998 84.5872 155.473 83.9536 155.83 83.2408C156.344 82.4091 156.503 81.4191 156.938 80.5479C157.493 79.6767 157.77 78.6867 158.126 77.6966C158.681 76.469 159.077 75.1622 159.156 73.7761C159.314 71.5981 159.314 69.3804 159.314 67.1628C159.314 65.2619 158.76 63.4403 157.928 61.7771L157.889 61.7375ZM152.939 78.053C152.78 78.7263 152.582 79.4391 152.424 80.1519C152.305 80.5875 152.226 81.0627 151.909 81.3399C151.592 81.6171 150.959 81.6963 150.563 81.4587C150.167 81.2211 150.048 80.5875 149.969 80.1519C150.008 78.4094 150.365 76.667 151.117 75.2414C151.711 74.0929 152.503 74.2117 152.978 75.3998C153.295 76.2314 153.137 77.1422 152.978 78.0134L152.939 78.053Z" fill="#FFE1F0"></path><path d="M145.217 64.3108C145.058 62.5684 144.939 60.7863 144.702 59.0439C144.543 58.2519 144.147 57.4994 144.068 56.7074C143.949 55.9946 143.435 55.5194 142.999 54.965C142.841 54.767 142.682 54.5294 142.524 54.2918C142.207 53.8166 141.652 53.5393 141.177 53.2225C140.86 52.9849 140.464 52.8661 140.068 52.9453C138.96 53.1037 137.851 53.4601 137.257 54.4502C136.267 55.8362 135.396 57.3014 134.683 58.8063C133.891 60.5487 133.653 62.4892 133.297 64.3504C133.138 64.984 133.297 65.578 133.217 66.2116C133.217 66.5285 133.138 66.8057 133.059 67.0829C132.703 68.9045 132.98 70.6865 133.019 72.4686C133.019 74.3694 133.059 76.3099 133.772 78.0919C133.97 78.6463 134.049 79.2403 134.445 79.7156C134.92 80.3096 135.554 80.9432 136.267 81.26C138.445 81.854 139.831 80.5076 140.979 78.8443C141.652 77.9731 142.207 76.9831 142.761 75.9931C143.672 74.2506 144.068 72.2706 144.543 70.4093C144.662 69.8945 144.741 69.3401 144.86 68.8253C145.296 67.3205 145.335 65.8156 145.217 64.2712V64.3108ZM139.95 70.4885C139.752 71.5974 140.029 72.9834 139.356 73.9338C138.603 74.805 137.692 74.6862 137.494 73.4982C137.178 72.1122 137.296 70.7657 137.653 69.3797C137.851 68.6669 137.772 67.7957 138.286 67.2413C138.564 66.8849 139.276 66.4493 139.633 66.9641C140.266 67.9145 140.108 69.3401 139.989 70.4489L139.95 70.4885Z" fill="#FFE1F0"></path><path d="M172.581 65.3408C172.383 65.9744 172.541 66.6873 172.383 67.3605C172.264 67.9545 172.026 68.5485 171.789 69.1029C171.472 69.8553 171.274 70.6078 170.957 71.3602C170.363 72.7066 169.848 74.1718 168.858 75.2807C168.542 75.5975 168.264 75.9539 168.066 76.3499C167.551 77.5775 166.68 78.6467 166.047 79.8348C165.73 80.4288 165.413 80.9832 164.938 81.498C164.146 82.2108 163.512 83.082 162.681 83.7553C162.007 84.2701 161.136 83.9533 160.938 83.1612C160.74 82.6068 160.503 81.9336 160.621 81.3396C161.176 78.0131 161.691 74.5678 162.958 71.3998C164.027 68.4693 164.621 65.3408 166.403 62.7272C166.839 62.0936 167.235 61.4599 167.908 61.0639C168.7 60.6283 169.928 60.3115 170.799 60.5095C172.502 61.0639 173.175 63.836 172.66 65.3408V65.3804L172.581 65.3408Z" fill="#FFE1F0"></path><path d="M66.4504 18.0574C66.292 20.4334 65.3415 22.6907 64.0347 24.6707C63.5991 25.1855 62.3715 26.532 61.6983 25.7796C61.2626 25.1063 61.3418 24.1163 61.3418 23.3639C61.3814 22.8095 61.5002 22.2155 61.2626 21.7007C61.025 21.1066 60.3914 20.7502 59.837 20.3938C58.7678 19.681 58.451 18.6514 58.3718 17.503C58.2134 15.5625 59.045 13.7013 60.6686 12.6716C64.5891 9.97879 66.8068 14.4141 66.4504 17.9782V18.0178V18.0574Z" fill="#FFE1F0"></path><path d="M161.968 90.171C161.968 90.765 162.007 91.3987 161.77 91.9927C161.334 93.0223 160.542 93.8935 159.79 94.6855C159.473 95.0023 159.196 95.2796 158.76 95.3588C158.008 95.5172 157.018 95.3588 156.503 94.8439C155.909 94.2895 155.79 93.2995 155.83 92.5075C155.711 90.2898 157.532 84.1517 160.582 86.5674C161.651 87.399 162.007 88.785 161.928 90.0918L161.968 90.171Z" fill="#FFE1F0"></path></svg>