<svg xmlns="http://www.w3.org/2000/svg" width="100%" viewBox="0 0 20 20" fill="none" class="vimeo-player__fullscreen-shrink-svg"><path d="M6.04167 7.5C6.84708 7.5 7.5 6.84708 7.5 6.04167L7.5 3.125C7.5 2.77983 7.22017 2.5 6.875 2.5C6.52982 2.5 6.25 2.77983 6.25 3.125L6.25 6.04167C6.25 6.15673 6.15672 6.25 6.04167 6.25L3.125 6.25C2.77983 6.25 2.5 6.52983 2.5 6.875C2.5 7.22018 2.77983 7.5 3.125 7.5L6.04167 7.5Z" fill="currentColor"></path><path d="M16.875 7.5C17.2202 7.5 17.5 7.22017 17.5 6.875C17.5 6.52982 17.2202 6.25 16.875 6.25L13.9583 6.25C13.8433 6.25 13.75 6.15673 13.75 6.04167L13.75 3.125C13.75 2.77983 13.4702 2.5 13.125 2.5C12.7798 2.5 12.5 2.77983 12.5 3.125L12.5 6.04167C12.5 6.84708 13.1529 7.5 13.9583 7.5L16.875 7.5Z" fill="currentColor"></path><path d="M12.5 16.875C12.5 17.2202 12.7798 17.5 13.125 17.5C13.4702 17.5 13.75 17.2202 13.75 16.875L13.75 13.9583C13.75 13.8433 13.8433 13.75 13.9583 13.75L16.875 13.75C17.2202 13.75 17.5 13.4702 17.5 13.125C17.5 12.7798 17.2202 12.5 16.875 12.5L13.9583 12.5C13.1529 12.5 12.5 13.1529 12.5 13.9583L12.5 16.875Z" fill="currentColor"></path><path d="M6.25 16.875C6.25 17.2202 6.52982 17.5 6.875 17.5C7.22017 17.5 7.5 17.2202 7.5 16.875L7.5 13.9583C7.5 13.1529 6.84708 12.5 6.04167 12.5L3.125 12.5C2.77982 12.5 2.5 12.7798 2.5 13.125C2.5 13.4702 2.77982 13.75 3.125 13.75L6.04167 13.75C6.15672 13.75 6.25 13.8433 6.25 13.9583L6.25 16.875Z" fill="currentColor"></path></svg>