<svg xmlns="http://www.w3.org/2000/svg" width="100%" viewBox="0 0 156 111" fill="none" data-scroll-animation-target="sticker" style=""><path d="M139.632 56.6229C138.945 54.9549 138.479 53.1776 137.734 51.5301C137.232 50.6698 136.372 50.0011 136.091 49.0027C134.374 44.2925 130.6 40.7647 127.769 36.7374C126.759 35.3821 125.792 33.9922 124.737 32.6717C124.261 32.0822 123.598 31.6652 123.191 31.0409C122.663 30.2002 122.046 29.3936 121.272 28.7685C119.893 27.6866 118.371 26.8104 116.858 25.904C115.735 25.2789 114.537 24.7895 113.212 24.6389C112.776 24.5857 112.364 24.4682 111.997 24.2256C110.776 23.4071 109.548 22.5184 108.324 21.7003C108.04 21.5243 107.734 21.4028 107.415 21.3055C106.393 21.0318 105.485 20.5208 104.651 19.8809C103.925 19.3044 103.002 19.1211 102.167 18.7489C99.4802 17.6948 96.7903 16.4669 93.9024 16.1997C92.1318 16.0455 90.4094 16.7105 88.8861 17.5689C87.755 18.2442 86.6873 19.0113 86.4027 20.2475C86.3512 20.4476 86.3006 20.654 86.2119 20.8396C86.1086 21.0626 85.9524 21.2505 85.7509 21.412C84.2685 22.6358 82.5855 23.431 81.0567 24.5448C79.8495 25.5041 78.8969 26.7108 78.0182 27.9659C76.9622 29.444 76.125 31.0936 75.2185 32.6812C74.8736 33.2288 74.3121 34.3687 73.64 33.6112C69.9224 29.0315 64.8568 26.8123 59.5108 25.0905C59.2074 24.988 58.9358 24.833 58.721 24.5933C58.0162 23.5337 57.3288 22.633 56.0477 22.251C54.5996 21.7488 53.0511 21.5917 51.6877 21.7684C49.7181 21.9947 47.891 22.9214 46.3017 24.0914C44.6111 25.3003 42.8595 26.4365 41.2865 27.7817C40.5213 28.445 39.8694 29.2356 39.1082 29.9049C38.5503 30.4254 37.8312 30.7475 37.3576 31.3473C36.5471 32.3324 35.6893 33.2754 34.8525 34.2318C34.5311 34.612 34.145 34.9167 33.6955 35.1297C29.2782 37.166 26.6702 41.3953 24.6936 45.646C22.4285 50.034 20.766 54.7179 18.9761 59.2894C18.1969 61.1378 17.8247 63.0914 17.6085 65.0796C17.3328 66.1115 16.7283 67.0442 16.6988 68.1345C16.4994 69.8046 16.3559 71.4835 16.0388 73.1656C15.955 73.6633 15.9041 74.1664 15.9338 74.6687C16.2048 77.058 16.5229 79.5121 17.3371 81.789C18.3235 84.1758 18.9679 86.7843 20.9648 88.5598C23.6771 90.955 24.7266 92.0376 28.4908 92.375C34.544 92.4641 40.5264 89.7188 45.1027 85.8501C46.1176 84.9254 47.3837 84.3712 48.7224 84.2525C50.6784 84.0215 52.6263 84.6234 54.5823 84.8147C55.5445 84.9254 56.5141 84.5708 57.4785 84.7488C61.6397 85.7118 65.5886 87.4986 69.6158 88.9206C70.1064 89.0988 70.5615 89.3268 71.0582 89.4526C71.6049 89.5913 72.1865 89.3773 72.7273 89.6199C74.2011 90.4444 75.7017 91.2268 77.2584 91.9438C77.6844 92.1465 78.103 92.3663 78.5653 92.4256C80.0823 92.6384 82.9416 92.1131 84.3432 91.4607C85.1336 91.1164 85.6576 90.4328 86.3178 89.9055C87.4124 89.0479 88.3919 88.173 89.3831 87.2385C89.9809 86.7516 90.8532 86.8158 91.4649 86.3368C93.6166 84.8295 95.8918 83.4546 97.8947 81.77C100.748 79.0627 104.79 78.5066 108.224 76.917C110.251 76.0159 112.66 75.3006 114.736 76.4436C120.314 79.009 126.222 80.1195 132.327 78.7898C133.085 78.6432 133.737 78.2234 134.361 77.7943C135.099 77.315 136.069 76.9668 136.739 76.3157C137.709 75.4389 138.341 74.2963 138.988 73.1679C139.998 71.5088 140.663 69.7041 140.617 67.7275C140.523 66.5306 140.888 65.3678 140.865 64.1747C140.803 62.3999 140.652 60.6172 140.456 58.8534C140.408 58.0601 139.98 57.3676 139.661 56.6739L139.638 56.6189L139.632 56.6229ZM78.9111 45.4498C78.3257 43.0722 77.8623 40.5918 77.3176 38.18C77.2973 38.073 77.2435 37.8575 77.2849 37.8038C78.4598 38.9088 79.055 42.3813 78.9194 45.439L78.9111 45.4498ZM71.3627 38.7004C71.6114 38.5295 71.863 38.829 71.8436 39.1023C71.9331 41.4345 72.0163 43.7676 72.1058 46.0998C72.1601 46.6182 71.7741 46.7489 71.6593 46.1867C71.2004 43.8153 71.0372 41.412 71.2321 39.0107C71.2454 38.8897 71.2711 38.7896 71.3307 38.7271L71.3627 38.7004ZM69.9849 85.6746C69.8461 85.7474 69.6759 85.7276 69.484 85.6654C68.4727 85.3 67.4494 84.9168 66.4608 84.4776C64.3332 83.5347 62.0351 83.2652 59.7911 82.7919C58.521 82.5439 57.2757 82.0896 55.9994 81.8939C53.6514 81.6373 51.2775 81.5549 48.9134 81.5228C47.0742 81.3615 46.1765 82.171 44.8616 83.2441C43.6599 84.0963 42.2904 84.6736 41.0692 85.4992C38.8697 87.1352 36.2461 88.0362 33.6808 88.7395C31.8947 89.3611 30.0426 89.872 28.1379 89.603C27.8039 89.5883 27.4749 89.5375 27.1595 89.4171C22.2265 87.7482 20.3296 83.5354 19.3801 78.7226C19.1314 77.5749 19.1752 76.3957 18.9931 75.2393C18.9349 74.6407 18.607 74.0513 18.5651 73.4797C18.8334 71.172 19.1548 68.851 19.4168 66.5442C19.4922 65.8574 19.5124 65.1681 19.8145 64.5389C21.0156 62.0652 21.8507 59.4294 22.7652 56.8349C23.4378 55.2582 24.1329 53.6819 24.8691 52.1486C25.6226 50.8483 25.7012 49.2907 26.2789 47.952C27.4386 45.806 28.8925 43.8154 30.3219 41.8602C30.8061 41.2429 31.2724 40.6118 31.837 40.0679C32.6524 39.2949 33.7031 38.7202 34.4652 37.9089C35.4763 36.6559 37.0846 36.0058 37.9556 34.642C38.1332 34.3707 38.3359 34.1188 38.6019 33.9328C39.1915 33.5565 39.8417 33.2498 40.3259 32.7324C41.7725 31.2328 43.3736 29.8807 44.9812 28.5536C46.6697 27.0549 48.5163 25.7806 50.5049 24.6814C51.4905 24.1023 52.5539 24.1482 53.7216 24.4514C53.9487 24.5123 54.2459 24.6414 53.9383 24.8554C52.1824 25.8341 50.7324 27.1086 49.2836 28.4667C45.9945 31.3464 42.3726 33.8728 39.2211 36.9185C38.3118 37.7134 37.2726 38.3768 36.4961 39.3254C36.0757 39.8377 36.1937 40.1512 36.6221 40.5212C37.0045 40.9101 37.5503 41.0909 38.0186 40.7497C41.4254 38.8025 44.4227 36.2829 47.3267 33.6401C48.8475 32.5886 50.1694 31.3211 51.5594 30.106C53.3354 28.5605 55.7566 28.1628 57.9975 27.7917C59.7931 28.0393 61.5377 28.7643 63.1787 29.4607C64.6292 30.1303 66.0169 31.0111 67.2058 32.1498C67.9639 32.8994 68.7525 33.5612 69.5796 34.2213C69.9298 34.4854 70.178 34.8337 69.8659 35.261C69.0927 36.3349 68.2682 37.4605 68.378 38.8552C68.5194 40.4681 68.5963 42.1056 68.5739 43.7237C68.5862 45.2116 67.7399 45.2987 66.8881 44.2485C66.1564 43.2053 65.7109 42.0315 65.8836 40.6776C65.9377 40.1999 66.0312 39.6526 65.8828 39.2044C65.6318 38.4116 64.5965 38.1847 63.8608 38.006C62.2919 37.642 60.7593 37.2345 59.1783 37.001C57.2829 36.6793 56.3947 37.4876 55.4075 38.9502C54.0602 40.3951 53.1294 42.1181 52.0598 43.7655C51.5839 44.472 51.0942 45.1706 50.6398 45.8936C49.7029 47.4207 48.8145 48.9738 47.923 50.5272C46.898 52.3945 45.5462 54.3268 45.3645 56.4814C45.0633 58.3613 45.8663 60.2787 46.1164 62.158C46.5809 65.3186 48.9084 68.6503 51.3445 70.7299C54.0826 72.7768 57.259 74.1511 60.3456 75.579C61.2115 76.0407 61.9589 76.7079 62.8962 77.0248C66.2718 78.0703 69.8145 78.8136 73.0903 80.1331C74.5419 80.7123 75.7909 81.7174 77.0128 82.6874C77.2222 82.8602 77.2683 82.967 77.0557 82.9688C73.8801 82.4713 71.5448 82.313 70.4076 85.0557C70.3194 85.2702 70.1893 85.5353 70.0201 85.6475L69.9782 85.6723L69.9849 85.6746ZM78.368 89.1628C76.649 88.9343 74.4748 87.3075 73.5456 85.9836C73.448 85.8028 73.5975 85.7125 73.769 85.6677C75.7899 85.2413 77.2756 86.232 78.6011 87.4045C79.2179 87.8598 79.0236 88.749 78.4171 89.1435L78.3708 89.1592L78.368 89.1628ZM80.6744 80.517C80.0404 81.5954 79.5532 81.0202 78.8564 80.3948C77.6066 79.3091 76.1978 78.4891 74.6531 77.9382C73.1967 77.4725 71.7065 77.1434 70.2947 76.5236C68.0762 75.7247 65.8296 75.0068 63.6574 74.0923C59.8584 72.3924 55.8814 70.8607 52.4821 68.4385C50.137 66.6372 49.4627 64.2712 49.0721 61.4815C48.7422 59.8317 48.2572 58.1795 48.2733 56.488C48.3684 54.9088 49.51 53.568 50.1821 52.1623C51.1288 50.5114 51.9711 48.7774 53.1298 47.2699C53.4172 46.9006 53.6116 46.4853 53.7738 46.0451C54.6592 43.7478 56.3893 41.9728 57.6151 39.8892C57.8436 39.563 58.2146 39.5149 58.5736 39.6231C60.0069 40.0853 61.593 40.3085 62.922 41.0357C63.4707 41.5127 63.7031 42.3853 63.9941 43.0633C64.751 44.7738 65.1063 46.8684 66.6655 48.0526C67.4715 48.6252 68.4602 48.8903 69.2717 49.4557C69.8667 49.8171 70.3592 50.3335 70.9249 50.7438C72.4028 51.8483 74.4146 50.9782 74.6117 49.2407C74.7901 47.4831 74.424 45.6284 75.3124 44.0012C75.3912 43.8878 75.4766 43.8252 75.5711 43.9322C76.0496 45.0373 76.3305 46.284 76.737 47.4306C76.9831 48.1596 77.0986 48.9764 77.6559 49.5199C78.3393 50.2405 79.4969 50.4161 80.3519 49.899C81.2109 49.3879 81.6389 48.362 82.3298 47.6728C83.2853 46.4883 84.9691 45.8735 85.329 44.2729C85.6522 42.6126 86.0561 41.0031 86.0499 39.2887C86.0621 38.8358 85.9051 38.321 86.1964 37.9318C87.4619 36.9005 88.9248 36.1983 90.205 35.3295C90.3778 35.2201 90.5784 35.1264 90.7736 35.1397C91.3814 35.277 91.8229 35.9226 92.321 36.2836C93.3121 37.1642 94.3335 38.0054 95.2598 38.9331C97.4908 41.4456 99.8725 43.7773 102.213 46.2142C103.054 47.1336 104.31 47.8156 104.545 49.1358C105.154 52.31 105.232 55.5238 104.889 58.7277C104.848 59.6776 104.392 60.4847 103.678 61.0963C101.303 64.3669 97.9556 66.645 94.9057 69.281C93.7509 70.2463 92.5475 71.1599 91.2383 71.9035C89.3026 73.0378 87.5779 74.5058 85.6398 75.621C83.6194 76.7985 81.735 78.3033 80.6932 80.463L80.664 80.5119L80.6744 80.517ZM86.7674 85.6883C85.9493 86.5649 85.16 87.4893 84.1981 88.2265C83.5534 88.7002 82.7103 87.9906 82.7342 87.3298C82.723 86.8702 83.0946 86.4288 83.3975 86.08C84.8447 84.4352 85.5706 83.9671 87.4229 83.856C87.608 83.8416 87.8845 83.8606 87.7714 84.1074C87.4998 84.623 87.1566 85.2091 86.8005 85.6453L86.767 85.6851L86.7674 85.6883ZM137.904 60.9057C138.017 62.8932 138.031 64.8934 138.032 66.8921C137.967 70.5631 135.501 74.5741 132.141 76.109C130.167 76.7517 128.079 76.6355 126.036 76.4394C122.756 76.5292 119.641 75.5306 116.54 74.6623C115.386 74.3412 114.349 73.8308 113.204 73.4279C111.165 72.7702 109.044 73.5674 107.071 74.1165C104.916 74.802 102.954 75.9107 100.959 76.9076C98.2476 78.2746 95.4397 79.5445 93.0106 81.423C92.5032 81.8111 92.0272 82.2178 91.5424 82.6321C91.2561 82.8852 90.9452 82.9738 90.634 82.6628C88.4429 79.9356 86.3143 80.6758 83.6024 82.1138C83.4923 82.1603 83.245 82.2665 83.1924 82.2088C83.1264 82.1722 83.1555 82.0492 83.2377 81.887C85.637 78.236 89.469 75.9629 93.2944 73.9872C95.1675 73.1415 96.6176 71.7188 98.173 70.4114C100.743 68.2761 103.19 65.9664 105.354 63.4293C107.132 60.5583 108.495 57.2479 108.028 53.7912C107.688 51.9911 107.912 50.1342 107.341 48.3673C107.189 47.8389 106.968 47.3323 106.59 46.93C105.304 45.5363 103.966 44.1719 102.659 42.7938C101.542 41.7361 100.754 40.381 99.513 39.4619C98.7798 38.954 98.0292 38.4613 97.5222 37.7082C96.2465 35.9746 94.4317 34.9074 92.7884 33.6212C91.688 32.5936 90.2482 32.2805 88.8862 33.0148C87.4544 33.684 86.0895 34.3961 84.6739 35.1148C82.9466 35.9415 82.7411 36.7193 83.5183 38.4369C84.0305 39.8019 83.8383 41.2293 82.9527 42.4305C82.8172 42.6286 82.5625 42.8777 82.3629 42.8294C81.9232 42.6962 81.7414 42.0395 81.6261 41.6224C81.283 40.1194 81.0696 38.548 80.6433 37.0751C80.2725 35.9303 79.4061 34.9916 78.539 34.1723C78.1489 33.8488 78.0937 33.3982 78.346 32.9818C79.1449 31.4597 80.1045 30.1328 81.1102 28.8128C82.6415 26.7477 84.8138 25.3506 87.023 24.1132C87.8148 23.6301 88.7559 23.7274 89.6489 23.6277C91.707 23.4383 93.6694 23.6546 95.4229 24.8459C95.7233 25.0488 96.0316 25.2635 96.3594 25.4048C99.8402 26.7396 103.108 28.618 106.56 30.0339C107.919 30.4897 109.22 30.9014 110.629 31.2249C111.14 31.2908 111.441 30.9262 111.755 30.5631C112.412 29.7396 110.757 29.0063 110.206 28.6876C107.458 27.3577 104.636 26.0793 101.897 24.7998C98.3541 23.2086 94.9994 21.1804 91.3001 19.9512C91.1135 19.9044 90.7864 19.7437 90.9352 19.5729C91.9982 18.671 93.5174 18.4773 94.7935 18.9954C97.4273 19.8146 100.08 20.6088 102.406 22.1579C103.243 22.5943 104.201 22.8247 104.98 23.391C105.667 23.9145 106.506 24.0702 107.278 24.4537C108.488 25.0351 109.594 25.8331 110.853 26.3148C111.635 26.5809 112.312 27.0509 113.03 27.4446C114.939 28.3869 116.912 29.2595 118.613 30.5704C120.337 32.1071 122.223 33.5972 123.627 35.4464C125.141 37.9228 127.028 40.1187 128.778 42.4033C129.166 42.9334 129.534 43.4853 129.878 44.05C131.025 45.9904 132.583 47.6842 133.937 49.501C134.227 49.8987 134.454 50.3303 134.645 50.7859C135.572 53.058 136.555 55.2937 137.344 57.6029C137.689 58.6447 137.82 59.7592 137.894 60.8522L137.902 60.9125L137.904 60.9057Z" fill="#FFE1F0"></path><path d="M88.3579 55.2544C87.4301 53.1953 83.4841 51.3307 80.829 53.058C79.5939 53.9757 78.4443 55.0306 77.1952 55.9147C76.8765 56.1172 76.5252 56.0435 76.204 55.8788C75.4393 55.5008 74.7233 55.1261 73.928 54.8101C70.9155 53.4822 67.7386 54.442 66.152 57.3236C65.5986 58.2529 65.9081 59.3218 66.0728 60.3192C66.6284 62.9392 67.3513 65.631 69.1405 67.6945C70.321 69.0664 71.939 69.8594 73.507 70.7136C74.6214 71.3268 75.6184 72.0293 76.8658 72.2513C77.5801 72.4392 78.3481 72.5943 79.0342 72.241C80.0849 71.7663 81.2752 71.3734 82.0798 70.4922C83.635 68.7108 85.0047 66.7924 86.3652 64.8525C86.9972 63.8582 87.2984 62.6747 87.8587 61.6252C88.9757 59.6717 89.239 57.326 88.3772 55.3035L88.3548 55.2548L88.3579 55.2544ZM84.3706 62.8704C83.027 65.0402 81.116 66.8128 79.4771 68.7436C79.1753 69.1019 78.8247 69.3569 78.338 69.4071C77.3388 69.6076 76.6195 68.8593 75.7301 68.6135C74.2216 68.2675 73.2033 67.2517 72.203 66.1756C70.8462 64.9104 69.9981 63.2923 69.2233 61.6679C68.54 60.5991 68.6609 59.1197 69.22 58.0607C69.3655 57.7904 69.5711 57.5606 69.8313 57.4044C71.2417 56.5704 72.8677 57.0269 73.8071 58.4043C74.742 59.4986 76.1275 62.2528 77.8293 61.1553C78.2337 60.8675 78.5135 60.3895 78.7443 59.9566C79.2396 59.0026 79.7136 58.0578 80.2178 57.122C80.4049 56.7753 80.5938 56.4414 80.9175 56.2027C81.7899 55.5964 83.5904 54.9858 84.6086 55.6534C85.0401 55.9972 85.3488 56.7374 85.5591 57.2904C86.1777 59.1027 85.3413 61.2809 84.4029 62.8211L84.3706 62.8704Z" fill="#FFE1F0"></path><path d="M150.964 57.772C151.885 63.7073 151.8 70.2887 149.373 75.839C145.979 83.7553 138.443 88.588 129.899 88.8121C125.851 89.024 121.842 88.4637 117.904 87.3526C111.479 85.416 107.35 87.6405 102.234 91.2987C100.104 92.8483 97.8062 94.2713 95.7354 95.7552C92.0599 98.5399 88.0359 101.222 83.3195 101.746C80.8725 102.07 78.3403 101.859 75.9858 101.155C72.7758 100.143 69.7221 98.7209 66.5287 97.6389C60.3173 95.3845 54.1236 92.4701 47.883 96.3579C45.8409 97.5414 43.7048 98.721 41.5093 99.5666C28.5993 104.78 16.1112 100.911 10.3861 87.7841C8.60578 83.4756 7.406 78.6469 7.45547 74.0044C7.74923 65.7001 10.0304 57.6057 13.178 49.9535C14.9176 45.64 16.6783 41.5398 18.9487 37.6154C20.2989 35.3222 21.9575 33.0213 23.9348 31.0886C26.8599 28.3108 30.1231 25.8277 32.9463 23.0599C39.4446 17.056 47.5691 10.4416 57.0043 12.2717C60.3537 12.7918 63.4103 14.6846 66.1784 16.2666C69.9028 18.4855 73.0868 19.5204 76.669 16.3898C79.0962 14.3472 81.5646 11.6769 83.9921 9.85992C87.6657 7.28495 92.2321 6.05147 96.7885 6.63115C102.639 7.42028 108.03 9.91317 113.164 12.6618C116.827 14.7533 120.612 16.1971 124.234 18.2971C126.816 19.8323 129.16 21.7756 131.173 24.0035C134.839 28.2031 138.009 32.6925 141.378 37.0628C143.893 40.5507 146.078 44.5005 147.861 48.3768C149.227 51.3365 150.343 54.3676 150.953 57.709L150.961 57.7725L150.964 57.772Z" fill="#2D7864"></path><path d="M140.659 56.4897C139.972 54.8217 139.506 53.0444 138.761 51.3969C138.259 50.5366 137.399 49.868 137.118 48.8695C135.402 44.1593 131.627 40.6316 128.797 36.6042C127.786 35.249 126.819 33.859 125.764 32.5385C125.288 31.949 124.625 31.532 124.218 30.9077C123.69 30.067 123.073 29.2604 122.299 28.6354C120.921 27.5535 119.398 26.6772 117.885 25.7708C116.762 25.1458 115.564 24.6563 114.239 24.5057C113.803 24.4525 113.392 24.3351 113.025 24.0924C111.803 23.2739 110.576 22.3852 109.351 21.5671C109.067 21.3912 108.761 21.2696 108.442 21.1723C107.42 20.8986 106.513 20.3876 105.678 19.7477C104.952 19.1713 104.029 18.9879 103.194 18.6157C100.508 17.5616 97.8176 16.3337 94.9297 16.0665C93.1591 15.9124 91.4367 16.5773 89.9134 17.4357C88.7823 18.111 87.7147 18.8781 87.43 20.1143C87.3786 20.3144 87.3279 20.5208 87.2392 20.7064C87.1359 20.9294 86.9797 21.1173 86.7782 21.2788C85.2958 22.5026 83.6128 23.2979 82.084 24.4116C80.8768 25.3709 79.9242 26.5776 79.0456 27.8328C77.9895 29.3108 77.1523 30.9604 76.2458 32.548C75.9009 33.0957 75.3394 34.2356 74.6673 33.478C70.9497 28.8983 65.8842 26.6791 60.5381 24.9574C60.2347 24.8548 59.9631 24.6998 59.7483 24.4601C59.0435 23.4005 58.3561 22.4998 57.0751 22.1178C55.6269 21.6156 54.0784 21.4585 52.715 21.6352C50.7455 21.8615 48.9183 22.7883 47.329 23.9582C45.6384 25.1671 43.8868 26.3033 42.3138 27.6485C41.5486 28.3119 40.8967 29.1024 40.1356 29.7717C39.5776 30.2922 38.8585 30.6143 38.3849 31.2141C37.5745 32.1993 36.7166 33.1422 35.8798 34.0986C35.5584 34.4788 35.1723 34.7835 34.7228 34.9965C30.3055 37.0328 27.6975 41.2622 25.7209 45.5128C23.4559 49.9009 21.7933 54.5848 20.0034 59.1562C19.2242 61.0046 18.852 62.9582 18.6358 64.9464C18.3601 65.9783 17.7556 66.911 17.7261 68.0013C17.5267 69.6714 17.3832 71.3503 17.0661 73.0324C16.9823 73.5301 16.9314 74.0332 16.9611 74.5355C17.2321 76.9248 17.5502 79.3789 18.3644 81.6558C19.3508 84.0427 19.9952 86.6511 21.9921 88.4266C24.7044 90.8218 25.7539 91.9044 29.5181 92.2419C35.5713 92.3309 41.5537 89.5856 46.13 85.7169C47.145 84.7922 48.4111 84.238 49.7497 84.1193C51.7057 83.8883 53.6536 84.4902 55.6096 84.6816C56.5718 84.7922 57.5414 84.4376 58.5058 84.6156C62.667 85.5786 66.6159 87.3654 70.6431 88.7875C71.1337 88.9657 71.5888 89.1936 72.0855 89.3194C72.6322 89.4581 73.2138 89.2441 73.7546 89.4867C75.2285 90.3112 76.7291 91.0936 78.2857 91.8106C78.7117 92.0133 79.1303 92.2331 79.5926 92.2925C81.1096 92.5053 83.9689 91.9799 85.3706 91.3275C86.1609 90.9833 86.6849 90.2996 87.3451 89.7723C88.4397 88.9147 89.4192 88.0398 90.4104 87.1053C91.0082 86.6184 91.8805 86.6826 92.4922 86.2036C94.6439 84.6963 96.9191 83.3214 98.922 81.6368C101.776 78.9295 105.817 78.3734 109.251 76.7838C111.278 75.8827 113.687 75.1674 115.763 76.3104C121.341 78.8758 127.25 79.9863 133.354 78.6566C134.112 78.51 134.764 78.0902 135.389 77.6611C136.126 77.1818 137.096 76.8336 137.766 76.1826C138.736 75.3057 139.368 74.1631 140.015 73.0347C141.025 71.3756 141.691 69.571 141.644 67.5943C141.55 66.3975 141.915 65.2347 141.893 64.0415C141.83 62.2667 141.68 60.484 141.483 58.7202C141.435 57.9269 141.007 57.2345 140.688 56.5407L140.665 56.4857L140.659 56.4897ZM79.9416 45.3162C79.3562 42.9386 78.8928 40.4582 78.3481 38.0464C78.3277 37.9394 78.274 37.7239 78.3154 37.6702C79.4903 38.7752 80.0855 42.2477 79.9499 45.3054L79.9416 45.3162ZM72.39 38.5672C72.6387 38.3964 72.8903 38.6958 72.8709 38.9691C72.9604 41.3013 73.0436 43.6344 73.1331 45.9666C73.1874 46.485 72.8014 46.6157 72.6866 46.0535C72.2277 43.6821 72.0645 41.2788 72.2594 38.8775C72.2727 38.7565 72.2984 38.6565 72.358 38.5939L72.39 38.5672ZM71.0123 85.5415C70.8734 85.6143 70.7032 85.5944 70.5114 85.5322C69.5 85.1668 68.4767 84.7836 67.4881 84.3444C65.3605 83.4015 63.0624 83.132 60.8184 82.6588C59.5483 82.4107 58.303 81.9564 57.0267 81.7607C54.6787 81.5041 52.3048 81.4217 49.9407 81.3897C48.1015 81.2283 47.2038 82.0378 45.8889 83.111C44.6872 83.9631 43.3177 84.5404 42.0965 85.366C39.897 87.002 37.2734 87.903 34.7081 88.6063C32.922 89.2279 31.07 89.7388 29.1652 89.4699C28.8312 89.4551 28.5022 89.4043 28.1868 89.284C23.2538 87.615 21.3569 83.4022 20.4075 78.5894C20.1587 77.4417 20.2026 76.2625 20.0204 75.1061C19.9622 74.5076 19.6343 73.9182 19.5925 73.3465C19.8607 71.0388 20.1821 68.7179 20.4441 66.411C20.5195 65.7242 20.5397 65.0349 20.8418 64.4057C22.0429 61.932 22.878 59.2962 23.7925 56.7017C24.4651 55.125 25.1602 53.5487 25.8964 52.0154C26.6499 50.7152 26.7285 49.1575 27.3062 47.8188C28.4659 45.6729 29.9198 43.6822 31.3492 41.727C31.8334 41.1097 32.2997 40.4786 32.8643 39.9347C33.6797 39.1617 34.7304 38.587 35.4925 37.7758C36.5036 36.5228 38.1119 35.8726 38.9829 34.5088C39.1605 34.2376 39.3632 33.9856 39.6292 33.7996C40.2188 33.4233 40.869 33.1166 41.3532 32.5993C42.7998 31.0996 44.4009 29.7476 46.0085 28.4205C47.6971 26.9217 49.5436 25.6474 51.5322 24.5482C52.5178 23.9691 53.5812 24.015 54.7489 24.3183C54.976 24.3791 55.2732 24.5082 54.9657 24.7222C53.2097 25.701 51.7597 26.9754 50.3109 28.3335C47.0218 31.2133 43.3999 33.7396 40.2484 36.7853C39.3391 37.5802 38.2999 38.2436 37.5234 39.1922C37.103 39.7045 37.221 40.018 37.6494 40.3881C38.0319 40.7769 38.5776 40.9577 39.0459 40.6165C42.4527 38.6693 45.45 36.1497 48.354 33.5069C49.8748 32.4554 51.1967 31.1879 52.5867 29.9729C54.3627 28.4273 56.7839 28.0296 59.0248 27.6585C60.8204 27.9062 62.565 28.6311 64.206 29.3275C65.6566 29.9971 67.0442 30.8779 68.2331 32.0166C68.9912 32.7662 69.7798 33.4281 70.6069 34.0882C70.9571 34.3523 71.2053 34.7005 70.8932 35.1278C70.12 36.2017 69.2955 37.3273 69.4053 38.722C69.5467 40.335 69.6236 41.9724 69.6012 43.5905C69.6135 45.0784 68.7672 45.1655 67.9154 44.1153C67.1837 43.0721 66.7382 41.8983 66.9109 40.5445C66.965 40.0667 67.0585 39.5194 66.9101 39.0712C66.6591 38.2784 65.6238 38.0515 64.8881 37.8729C63.3192 37.5088 61.7866 37.1014 60.2056 36.8678C58.3102 36.5461 57.422 37.3544 56.4348 38.8171C55.0875 40.2619 54.1567 41.9849 53.0871 43.6324C52.6112 44.3388 52.1215 45.0374 51.6671 45.7605C50.7302 47.2875 49.8419 48.8406 48.9503 50.394C47.9253 52.2614 46.5735 54.1937 46.3918 56.3482C46.0906 58.2282 46.8936 60.1455 47.1437 62.0249C47.6082 65.1854 49.9357 68.5171 52.3718 70.5967C55.1099 72.6436 58.2863 74.018 61.3729 75.4458C62.2388 75.9075 62.9862 76.5747 63.9235 76.8916C67.2991 77.9371 70.8419 78.6804 74.1176 80C75.5693 80.5791 76.8183 81.5843 78.0401 82.5543C78.2495 82.727 78.2956 82.8339 78.0831 82.8356C74.9075 82.3381 72.5721 82.1798 71.435 84.9225C71.3467 85.137 71.2167 85.4021 71.0474 85.5143L71.0055 85.5391L71.0123 85.5415ZM79.3953 89.0296C77.6763 88.8011 75.5021 87.1743 74.5729 85.8504C74.4753 85.6697 74.6248 85.5794 74.7963 85.5346C76.8172 85.1082 78.3029 86.0988 79.6284 87.2714C80.2452 87.7266 80.0509 88.6158 79.4444 89.0103L79.3981 89.026L79.3953 89.0296ZM81.7049 80.3834C81.0709 81.4618 80.5837 80.8866 79.8868 80.2612C78.6371 79.1756 77.2283 78.3555 75.6835 77.8046C74.2272 77.3389 72.737 77.0098 71.3252 76.39C69.1067 75.5911 66.86 74.8732 64.6878 73.9587C60.8889 72.2588 56.9119 70.7271 53.5126 68.3049C51.1674 66.5036 50.4932 64.1376 50.1026 61.348C49.7727 59.6981 49.2877 58.0459 49.3038 56.3544C49.3989 54.7753 50.5405 53.4344 51.2126 52.0287C52.1593 50.3778 53.0016 48.6438 54.1603 47.1363C54.4477 46.767 54.6421 46.3517 54.8043 45.9116C55.6897 43.6142 57.4198 41.8392 58.6456 39.7556C58.8741 39.4294 59.2451 39.3813 59.6041 39.4895C61.0374 39.9517 62.6235 40.1749 63.9525 40.9021C64.5012 41.3791 64.7336 42.2517 65.0246 42.9297C65.7815 44.6402 66.1368 46.7348 67.6959 47.919C68.502 48.4916 69.4907 48.7567 70.3022 49.3221C70.8971 49.6835 71.3896 50.1999 71.9554 50.6102C73.4333 51.7147 75.4451 50.8446 75.6422 49.1071C75.8206 47.3495 75.4545 45.4948 76.3429 43.8676C76.4217 43.7542 76.5071 43.6916 76.6016 43.7986C77.0801 44.9037 77.361 46.1504 77.7675 47.297C78.0135 48.026 78.1291 48.8428 78.6864 49.3863C79.3698 50.1069 80.5273 50.2825 81.3824 49.7655C82.2414 49.2543 82.6694 48.2285 83.3602 47.5392C84.3157 46.3547 85.9996 45.7399 86.3595 44.1393C86.6827 42.479 87.0866 40.8695 87.0804 39.1551C87.0926 38.7022 86.9356 38.1874 87.2269 37.7982C88.4924 36.7669 89.9553 36.0647 91.2355 35.1959C91.4083 35.0865 91.6089 34.9928 91.8041 35.0062C92.4118 35.1434 92.8534 35.789 93.3515 36.15C94.3426 37.0306 95.364 37.8718 96.2903 38.7996C98.5213 41.312 100.903 43.6437 103.244 46.0806C104.085 47 105.34 47.682 105.576 49.0023C106.184 52.1764 106.262 55.3902 105.92 58.5941C105.878 59.544 105.422 60.3512 104.708 60.9627C102.334 64.2333 98.9861 66.5114 95.9362 69.1474C94.7814 70.1127 93.578 71.0263 92.2687 71.7699C90.3331 72.9042 88.6083 74.3722 86.6702 75.4874C84.6499 76.6649 82.7655 78.1697 81.7237 80.3294L81.6945 80.3783L81.7049 80.3834ZM87.7979 85.5547C86.9798 86.4313 86.1904 87.3557 85.2285 88.093C84.5839 88.5666 83.7407 87.857 83.7647 87.1962C83.7535 86.7367 84.125 86.2952 84.428 85.9464C85.8752 84.3016 86.6011 83.8335 88.4534 83.7224C88.6385 83.708 88.915 83.727 88.8019 83.9738C88.5302 84.4894 88.1871 85.0755 87.831 85.5117L87.7975 85.5516L87.7979 85.5547ZM138.935 60.7721C139.047 62.7596 139.062 64.7599 139.063 66.7586C138.997 70.4295 136.532 74.4405 133.171 75.9754C131.198 76.6181 129.11 76.5019 127.066 76.3058C123.786 76.3957 120.671 75.397 117.57 74.5287C116.416 74.2076 115.38 73.6972 114.234 73.2943C112.195 72.6366 110.074 73.4338 108.101 73.9829C105.946 74.6685 103.985 75.7771 101.99 76.774C99.2781 78.141 96.4702 79.4109 94.0411 81.2894C93.5336 81.6776 93.0576 82.0842 92.5729 82.4985C92.2866 82.7516 91.9757 82.8402 91.6645 82.5292C89.4734 79.802 87.3448 80.5422 84.6329 81.9802C84.5228 82.0267 84.2754 82.1329 84.2228 82.0752C84.1568 82.0387 84.186 81.9156 84.2682 81.7534C86.6675 78.1024 90.4995 75.8293 94.3249 73.8536C96.198 73.008 97.6481 71.5852 99.2035 70.2778C101.773 68.1425 104.221 65.8328 106.384 63.2957C108.162 60.4247 109.526 57.1143 109.058 53.6576C108.719 51.8575 108.942 50.0006 108.371 48.2337C108.219 47.7054 107.999 47.1987 107.621 46.7964C106.334 45.4027 104.997 44.0383 103.69 42.6602C102.573 41.6025 101.785 40.2474 100.543 39.3283C99.8103 38.8204 99.0597 38.3277 98.5527 37.5746C97.2769 35.841 95.4621 34.7738 93.8189 33.4877C92.7185 32.46 91.2787 32.1469 89.9167 32.8812C88.4849 33.5504 87.12 34.2625 85.7043 34.9812C83.9771 35.8079 83.7716 36.5857 84.5488 38.3033C85.061 39.6684 84.8688 41.0957 83.9832 42.297C83.8477 42.4951 83.593 42.7441 83.3933 42.6958C82.9537 42.5626 82.7719 41.9059 82.6566 41.4888C82.3134 39.9858 82.1001 38.4144 81.6738 36.9415C81.303 35.7967 80.4366 34.858 79.5695 34.0387C79.1794 33.7153 79.1242 33.2646 79.3765 32.8483C80.1754 31.3262 81.135 29.9992 82.1407 28.6792C83.6719 26.6141 85.8443 25.217 88.0535 23.9796C88.8453 23.4965 89.7864 23.5938 90.6794 23.4941C92.7375 23.3047 94.6999 23.5211 96.4534 24.7123C96.7537 24.9152 97.0621 25.1299 97.3899 25.2712C100.871 26.606 104.138 28.4844 107.591 29.9003C108.949 30.3561 110.25 30.7678 111.659 31.0913C112.171 31.1572 112.471 30.7926 112.786 30.4295C113.443 29.606 111.787 28.8727 111.237 28.554C108.488 27.2241 105.666 25.9458 102.928 24.6662C99.3845 23.075 96.0299 21.0468 92.3306 19.8176C92.144 19.7708 91.8169 19.6101 91.9657 19.4393C93.0287 18.5374 94.5479 18.3438 95.824 18.8618C98.4578 19.681 101.111 20.4752 103.436 22.0243C104.273 22.4607 105.231 22.6911 106.011 23.2574C106.698 23.781 107.537 23.9366 108.309 24.3201C109.519 24.9015 110.625 25.6995 111.883 26.1812C112.666 26.4473 113.343 26.9173 114.061 27.311C115.969 28.2533 117.943 29.1259 119.644 30.4368C121.368 31.9736 123.254 33.4636 124.657 35.3128C126.171 37.7892 128.058 39.9851 129.808 42.2697C130.196 42.7998 130.564 43.3517 130.908 43.9164C132.056 45.8568 133.613 47.5506 134.968 49.3674C135.258 49.7651 135.485 50.1967 135.676 50.6523C136.602 52.9244 137.585 55.1601 138.375 57.4693C138.719 58.5111 138.851 59.6257 138.925 60.7187L138.933 60.7789L138.935 60.7721Z" fill="#FFE1F0"></path><path d="M89.3885 55.1209C88.4606 53.0617 84.5146 51.1972 81.8595 52.9244C80.6244 53.8421 79.4748 54.8971 78.2257 55.7812C77.907 55.9837 77.5557 55.9099 77.2345 55.7452C76.4698 55.3672 75.7539 54.9925 74.9585 54.6765C71.9461 53.3486 68.7692 54.3085 67.1825 57.19C66.6292 58.1193 66.9386 59.1883 67.1033 60.1857C67.659 62.8057 68.3819 65.4975 70.171 67.561C71.3515 68.9329 72.9696 69.7258 74.5375 70.58C75.6519 71.1932 76.6489 71.8958 77.8963 72.1177C78.6106 72.3056 79.3786 72.4607 80.0647 72.1075C81.1154 71.6327 82.3057 71.2399 83.1103 70.3586C84.6655 68.5773 86.0352 66.6588 87.3957 64.719C88.0277 63.7247 88.3289 62.5411 88.8892 61.4916C90.0062 59.5382 90.2695 57.1925 89.4077 55.17L89.3853 55.1213L89.3885 55.1209ZM85.4011 62.7369C84.0575 64.9066 82.1466 66.6793 80.5076 68.6101C80.2059 68.9684 79.8553 69.2234 79.3685 69.2736C78.3693 69.474 77.6501 68.7258 76.7606 68.48C75.2521 68.1339 74.2338 67.1182 73.2336 66.0421C71.8767 64.7769 71.0286 63.1587 70.2539 61.5344C69.5705 60.4655 69.6914 58.9862 70.2505 57.9272C70.396 57.6569 70.6016 57.4271 70.8618 57.2709C72.2722 56.4368 73.8982 56.8934 74.8376 58.2708C75.7726 59.365 77.158 62.1192 78.8598 61.0217C79.2642 60.7339 79.544 60.256 79.7748 59.8231C80.2702 58.8691 80.7441 57.9243 81.2483 56.9885C81.4355 56.6418 81.6243 56.3078 81.948 56.0692C82.8205 55.4628 84.6209 54.8523 85.6391 55.5198C86.0706 55.8637 86.3793 56.6038 86.5896 57.1569C87.2082 58.9692 86.3718 61.1474 85.4334 62.6875L85.4011 62.7369Z" fill="#FFE1F0"></path></svg>