<svg xmlns="http://www.w3.org/2000/svg" width="100%" viewBox="0 0 24 24" fill="none" data-icon-name="Design" class="type__icon-svg"><path d="M5.71302 8.12798L5.46702 8.69398C5.42858 8.78615 5.36372 8.86488 5.28062 8.92026C5.19752 8.97563 5.09988 9.00518 5.00002 9.00518C4.90016 9.00518 4.80253 8.97563 4.71943 8.92026C4.63632 8.86488 4.57147 8.78615 4.53302 8.69398L4.28702 8.12798C3.8545 7.1267 3.0624 6.3239 2.06702 5.87798L1.30802 5.53898C1.21594 5.49662 1.13794 5.42875 1.08326 5.34341C1.02857 5.25807 0.999512 5.15884 0.999512 5.05748C0.999512 4.95613 1.02857 4.8569 1.08326 4.77155C1.13794 4.68621 1.21594 4.61834 1.30802 4.57598L2.02502 4.25698C3.04542 3.79836 3.85108 2.96586 4.27602 1.93098L4.53002 1.31998C4.56718 1.22534 4.63199 1.14408 4.71601 1.08681C4.80002 1.02953 4.89934 0.998901 5.00102 0.998901C5.1027 0.998901 5.20202 1.02953 5.28604 1.08681C5.37005 1.14408 5.43486 1.22534 5.47202 1.31998L5.72502 1.92998C6.14951 2.96506 6.95481 3.79792 7.97502 4.25698L8.69302 4.57698C8.78482 4.61946 8.86255 4.68732 8.91703 4.77256C8.9715 4.85779 9.00045 4.95683 9.00045 5.05798C9.00045 5.15914 8.9715 5.25818 8.91703 5.34341C8.86255 5.42864 8.78482 5.4965 8.69302 5.53898L7.93302 5.87698C6.93784 6.32335 6.14609 7.12651 5.71402 8.12798M19.229 3.37098L14.289 7.21298C10.343 6.23898 6.55902 8.54598 5.50102 12.497C5.39902 12.877 5.36702 13.262 5.33402 13.666C5.21902 15.06 5.08702 16.671 2.00102 18.996C4.50102 20.496 9.00102 21.998 12.503 21.998C13.64 21.997 14.7619 21.7377 15.7841 21.2397C16.8062 20.7416 17.7018 20.0179 18.4032 19.123C19.1047 18.2282 19.5936 17.1857 19.8332 16.0742C20.0727 14.9627 20.0566 13.8113 19.786 12.707L23.626 7.76898C23.7757 7.57662 23.8499 7.33623 23.8348 7.09298C23.8197 6.84972 23.7163 6.62036 23.544 6.44798L20.55 3.45398C20.3778 3.28154 20.1485 3.17794 19.9052 3.16265C19.662 3.14737 19.4215 3.22145 19.229 3.37098ZM17.896 9.28498C17.8325 9.21921 17.7678 9.15454 17.702 9.09098L16.578 7.96698L19.76 5.49198L21.506 7.23798L19.03 10.42L17.896 9.28498Z" fill="currentColor"></path></svg>