<svg xmlns="http://www.w3.org/2000/svg" width="100%" viewBox="0 0 94 136" fill="none" data-scroll-animation="sticker" class="team-grid__sticker-3-svg" style="translate: none; rotate: none; scale: none; transform: translate(1.1829%, 0.0677%) translate3d(0px, 0px, 0px) rotate(-0.8969deg) scale(1.1009, 1.1009);"><path d="M93.5059 78.9439C92.0249 87.316 86.2075 89.9194 82.3504 95.9887C81.0396 98.2321 80.5287 100.839 80.402 103.427C80.2356 106.458 80.5445 109.943 80.1129 113.251C79.804 115.807 79.1506 118.323 78.1209 120.682C73.9272 130.688 62.8113 137.707 51.921 135.076C46.9036 134.067 42.8722 130.573 39.1497 127.404C36.544 125.212 33.8352 123.131 30.877 121.457C27.1506 119.328 23.1906 117.667 20.3591 114.205C16.1495 109.39 14.0031 102.038 14.1853 95.6089C14.2486 90.0381 15.3773 84.7679 15.6782 79.2644C16.5574 68.5659 11.8607 58.4727 7.76995 48.6841C5.12065 42.2824 1.89313 36.0232 0.598178 29.1427C-1.07694 20.7825 0.657626 11.6666 7.1799 6.00479C14.5219 -0.658048 26.1685 -1.18032 33.7639 5.36778C36.7617 7.80898 39.1338 10.9703 40.999 14.3571C41.898 15.9595 42.6702 17.463 43.3592 18.5985C44.2701 20.106 45.0304 20.9368 45.862 20.925C47.1491 21.0951 49.4103 17.8072 50.6697 16.2997C53.018 13.3046 56.0276 10.8001 59.5877 9.30456C65.6704 6.65762 72.8105 6.83171 78.2873 10.6142C85.9976 15.7854 89.0865 29.4118 90.1478 38.1637C90.8408 44.2568 89.5537 50.3617 90.3814 56.3915C91.3476 63.8536 95.1454 71.2523 93.5178 78.8766L93.502 78.9518L93.5059 78.9439Z" fill="#4B69F0"></path><path d="M67.6031 114.742C66.4745 117.789 64.2726 120.159 61.6075 121.805C59.9759 122.841 58.2176 123.743 56.2534 123.554C50.9469 123.391 46.8047 118.798 47.264 113.567C47.4343 110.485 47.961 107.51 48.9273 104.598C49.9886 101.599 50.4163 98.4096 51.0578 95.2998C52.9825 90.6785 52.523 85.4994 51.6993 80.6922C50.9192 76.6407 50.2499 72.0392 47.3194 68.9214C45.8938 67.5287 43.502 67.5525 41.6328 68.2726C38.4647 69.6415 38.5518 73.7959 38.0608 76.7079C37.6925 79.6358 38.936 82.3025 39.5736 85.08C40.5042 89.0326 42.809 92.6805 43.0188 96.8547C43.2485 100.123 42.3892 103.383 40.5517 106.125C38.9677 108.345 35.5738 109.29 32.9641 108.345C29.4198 106.893 27.2418 105.607 26.4656 101.753C25.6103 97.832 26.2399 93.9783 26.9884 90.1681C27.8873 85.0048 29.2179 79.8296 28.7744 74.5753C28.8932 71.6673 28.8338 68.7474 28.1645 65.9382C26.8617 60.8263 23.9906 56.2802 22.4224 51.2475C20.5295 45.8349 18.0702 40.6558 15.7456 35.4252C14.2566 32.2837 12.3479 29.2016 12.0707 25.6565C11.8885 23.0373 12.0984 20.2637 13.1003 17.8304C14.1616 15.4604 16.601 13.9055 19.0127 12.8293C21.068 11.9945 22.8858 12.4653 24.7232 13.2131C25.5588 13.5336 26.3033 13.9569 26.8775 14.6335C27.9705 15.864 29.1031 17.0708 29.9466 18.4793C32.5721 22.97 34.8452 28.0106 34.5205 33.3164C34.3542 37.7161 33.9265 42.1078 33.5978 46.4838C33.2255 49.7084 33.0434 52.9805 33.9106 56.1536C34.4809 59.7066 37.9142 61.7521 41.1853 59.5404C42.5079 58.6027 43.4782 57.301 44.492 56.0587C46.7888 53.3049 48.9193 50.0922 52.2933 48.5016C55.5129 47.1129 59.5324 48.4581 61.4966 51.1881C63.7142 54.6106 63.5202 58.939 63.7776 62.8244C63.7182 63.8808 63.9757 64.7948 64.0113 65.8393C63.7697 68.8146 63.5083 71.8097 63.3975 74.8009C63.3024 76.6644 63.144 78.5477 63.3064 80.4113C63.6232 82.7021 64.1063 85.0563 64.2053 87.4025C64.5103 91.8378 66.118 96.0634 67.0249 100.388C67.4288 102.255 67.7972 104.131 68.1892 106.006C68.9258 108.883 68.7634 111.933 67.6347 114.663L67.607 114.734L67.6031 114.742Z" fill="#FFE1F0"></path><path d="M81.8 78.0576C81.5069 79.478 79.9269 80.6808 78.7507 81.5908C75.951 83.8104 71.2108 83.8144 69.1832 80.5858C68.209 78.932 68.1734 77.0012 67.9833 75.1258C68.015 73.7331 67.6783 72.3483 67.8129 70.9516C67.9832 68.8388 68.6525 66.7695 68.6882 64.6488C68.7357 62.6785 68.9535 60.6962 68.7515 58.7338C68.2684 55.6239 67.1318 52.609 65.5874 49.8711C64.9657 48.8463 64.2529 47.9561 63.7262 46.8997C61.2155 42.0727 66.1893 36.0271 71.2226 35.6868C73.2145 35.6394 75.7014 35.9045 77.3409 37.0321C78.3626 37.9263 78.7943 39.6078 78.7309 40.9847C78.6121 43.6395 77.4716 46.0293 76.7747 48.5456C76.2123 50.6901 75.4837 52.8543 75.9945 55.074C76.1292 57.8119 76.6677 60.4351 77.8201 62.8921C78.3983 64.2255 79.2616 65.448 79.7447 66.7972C80.1051 67.7626 80.3744 68.7676 80.7387 69.733C80.9961 70.4373 81.3644 71.0941 81.6575 71.7904C82.5089 73.8597 82.0059 75.9329 81.8079 77.9943L81.796 78.0615L81.8 78.0576Z" fill="#FFE1F0"></path><path d="M73.0837 27.7738C70.2127 30.2902 66.708 31.5879 62.9023 31.7778C59.3066 32.0983 56.586 27.8055 58.5542 24.7668C60.6213 20.9409 65.2586 18.8518 69.4325 19.3661C72.7748 20.2405 76.933 24.7629 73.1392 27.7263L73.0837 27.7778V27.7738Z" fill="#FFE1F0"></path></svg>