<svg width="128" height="128" viewBox="0 0 128 128" fill="none" xmlns="http://www.w3.org/2000/svg">
<path d="M127.261 71.6502C123.681 100.888 100.491 123.405 71.4314 127.024C47.9678 129.852 23.443 118.763 10.4618 98.9352C2.01889 85.9144 -1.64026 69.8959 0.688274 54.5505C2.77524 40.7337 9.09557 27.8872 19.071 18.0266C25.728 11.2825 34.0877 6.51459 42.9504 3.35048C52.8229 0.182404 63.3845 -0.803659 73.6649 0.669496C80.4525 1.73872 86.9391 4.01181 93.101 7.11257C106.292 13.7022 116.755 25.2141 122.604 38.627C126.944 49.0381 128.762 60.4233 127.273 71.571L127.261 71.6502Z" fill="#82A0FF"/>
<path d="M115.4 69.5197C114.474 72.9254 114.541 76.5884 113.127 79.8595C112.347 81.8593 112.05 84.0651 110.7 85.8075C110.403 86.1877 110.169 86.6035 110.038 87.0669C109.444 89.4984 107.908 91.4388 106.47 93.3951C105.148 95.2444 103.841 97.1888 101.976 98.5986C98.7758 102.349 95.1681 105.687 90.7209 107.944C80.3653 114.273 67.7247 117.037 55.7217 114.787C51.124 114.039 46.6135 112.716 42.3009 110.934C37.7666 108.736 33.466 105.929 29.6088 102.697C27.7436 100.892 25.7042 99.2125 24.0845 97.173C22.2748 94.8564 20.1402 92.6545 19.1106 89.831C18.9285 89.3756 18.6473 88.9796 18.3384 88.5955C16.8732 86.7461 16.3544 84.4532 15.5545 82.3029C13.8318 78.1883 12.7072 73.9075 12.4854 69.4365C12.4418 67.801 11.9864 66.2288 11.8993 64.5894C11.6419 61.2827 12.3626 58.1305 12.9725 54.9228C13.2734 50.7053 14.9169 46.86 16.3504 42.9475C17.2335 40.5714 18.778 38.524 19.6848 36.1797C19.9343 35.5342 20.1957 34.8808 20.6828 34.3739C23.34 32.0651 25.126 34.164 23.4747 36.9677C22.3421 38.4369 21.1184 39.819 20.5838 41.6367C20.3858 42.2069 20.1402 42.7574 19.7997 43.2603C17.7444 46.0839 17.3563 49.5727 16.2277 52.7764C14.8139 56.9187 15.2891 61.255 15.0951 65.5319C15.0198 67.2426 15.0872 68.9692 15.3169 70.6641C16.3584 76.7072 18.2948 82.7028 21.4312 87.9856C23.2529 91.2843 25.6131 94.1911 27.9179 97.1532C30.5672 99.8421 33.6085 102.107 36.5509 104.452C38.4715 105.842 40.7169 106.681 42.8118 107.782C47.7777 110.166 53.0011 112.103 58.5373 112.443C59.6026 112.475 60.6322 112.78 61.6935 112.78C62.5766 112.788 63.4676 112.566 64.3072 112.546C68.5365 112.99 72.5917 112.039 76.5953 110.903C81.4464 109.75 86.2976 107.96 90.2656 104.959C93.097 102.907 95.9285 100.769 98.4352 98.2818C100.562 96.084 102.233 93.5812 104.181 91.2962C105.381 89.5617 106.652 87.0352 107.833 85.1066C108.787 83.2018 109.266 81.099 110.042 79.1269C110.811 76.9251 111.705 74.751 112.26 72.4937C112.612 70.2563 112.466 67.9515 112.45 65.7101C112.426 64.6567 112.45 63.6152 112.569 62.5658C113 58.6532 112.058 54.9149 111.048 51.2518C110.224 48.1985 109.195 45.1849 107.801 42.3416C105.445 37.7875 102.399 33.6175 99.0966 29.7564C95.5404 26.8774 92.0634 23.8598 88.2063 21.4085C82.8562 18.1018 76.524 17.1356 70.5799 15.3813C64.4418 14.8031 58.1888 15.0684 52.1615 16.6406C48.9499 17.6148 45.9759 19.1275 42.7524 20.0027C41.9247 20.2205 41.1208 20.4383 40.3763 20.8818C39.4338 21.3848 38.717 22.2956 37.9211 22.9213C37.0419 23.5905 36.04 24.1053 35.1728 24.7904C32.4997 26.8022 30.084 29.1743 27.312 31.0038C26.9437 31.1702 26.5516 30.984 26.2388 30.7623C25.5973 30.3583 25.0151 29.7841 25.3121 29.2139C26.7378 26.6279 28.9237 24.4895 31.6047 23.1906C31.8978 22.9767 32.1274 22.6797 32.3571 22.3985C33.8501 20.5452 36.0796 19.7294 38.226 18.8424C40.1585 18.0147 41.6713 16.4465 43.6473 15.6862C49.1439 13.1795 55.2029 12.6607 61.143 12.0706C71.4116 10.9895 81.7197 14.1774 90.5388 19.3295C95.5087 21.6818 99.3302 25.6379 102.696 29.8752C104.304 31.677 106.241 33.1581 107.338 35.3322C110.474 40.7259 113.511 46.3571 114.43 52.6259C115.365 58.1463 116.604 63.8488 115.416 69.4405L115.4 69.5118V69.5197Z" fill="#E6FAB9"/>
<path d="M107.472 72.3511C106.641 73.4718 105.045 73.1075 103.999 72.4778C102.589 71.7769 101.144 70.9136 99.5995 70.4186C99.4055 70.4146 99.2392 70.4978 99.0966 70.6601C98.7442 71.1195 98.558 71.6858 98.3957 72.2323C97.9601 74.4301 96.5226 76.1409 95.2633 77.9507C94.1584 79.5743 93.2515 81.3682 91.9447 82.8137C91.3982 83.4354 90.8002 84.0096 90.4676 84.7858C89.533 86.8173 87.2837 87.6489 86.064 89.427C84.1354 92.1991 81.2643 93.9613 78.2942 95.4266C74.8608 97.2918 71.1028 98.3531 67.1545 98.654C60.9887 99.0778 51.8805 97.0185 46.8472 93.4346C44.4078 91.5971 41.9921 89.7478 39.9328 87.4549C38.2181 85.5461 36.2024 83.8472 35.0857 81.491C34.3768 79.998 33.9175 78.3942 33.0146 77.0002C31.8622 75.139 30.8326 73.2184 30.1237 71.1472C29.6406 69.6384 29.3198 68.193 28.5872 66.8109C28.2862 66.1496 27.9655 65.1873 27.0467 65.5397C25.5696 66.011 24.3618 67.0089 22.9718 67.595C22.3302 67.9158 21.6847 68.5098 20.9363 68.2722C19.7522 67.8643 19.5146 66.0981 20.5046 65.314C22.0372 64.1616 23.4906 62.8904 25.3122 62.1499C26.025 61.8687 26.7259 61.5876 27.415 61.2549C29.3079 60.352 31.1731 59.3105 33.2482 59.0967C34.3531 59.0927 37.2558 58.3165 37.4617 59.8926C37.4697 60.7045 36.7648 61.3737 36.0599 61.6826C34.8283 62.2251 33.5254 62.6845 32.2978 63.2033C32.0246 63.3379 31.8305 63.5518 31.7988 63.8686C32.0166 67.0961 33.4977 69.9671 34.4323 72.9055C34.8838 74.0817 35.2599 75.3132 35.7906 76.4458C36.5311 77.4398 37.438 78.3189 38.0716 79.3961C39.4458 81.4989 40.5585 83.8076 42.4237 85.5422C43.3068 86.4253 44.4236 87.043 45.2037 88.0172C46.3561 89.4706 48.1223 90.0883 49.6469 91.0269C52.9972 93.2129 56.6563 94.789 60.5966 95.5533C61.6262 95.7909 62.6757 95.6919 63.7211 95.6562C66.2952 95.6206 68.9168 95.6206 71.3839 94.9791C73.7283 94.3732 75.8746 93.1614 77.9537 91.8664C80.3772 90.3022 82.983 88.7934 85.0225 86.7025C87.4421 84.1205 89.7191 81.3247 91.7388 78.3784C93.2357 76.2874 93.8178 73.6896 95.5484 71.7769C95.8691 71.4205 96.1859 71.072 96.3721 70.6403C96.9978 69.2583 96.9582 68.9573 95.4138 68.4148C93.7268 67.6148 91.3665 67.5633 90.4359 65.6467C90.2022 65.1318 90.3646 64.522 90.6774 64.0705C91.5011 62.6132 93.1525 63.0132 94.4118 63.631C97.766 65.0724 101.207 66.2763 104.312 68.2326C105.001 68.7157 105.825 68.886 106.55 69.3058C107.5 69.8523 108.082 71.4918 107.512 72.3075L107.476 72.363L107.472 72.3511Z" fill="#E6FAB9"/>
<path d="M56.3355 50.1509C56.0425 52.1349 55.6979 54.1269 55.3574 56.1069C55.1831 57.188 54.9733 58.2097 54.2842 59.0651C53.3457 60.2333 51.9873 61.2986 50.5181 61.2194C49.4648 61.0174 48.146 60.2135 47.9758 59.0374C47.2907 56.3841 46.6016 53.7031 46.1026 51.0142C46.0314 50.5786 46.0155 50.1549 46.0709 49.7153C46.6016 46.2067 46.9501 42.6624 48.7757 39.5141C49.1955 38.7498 49.8687 38.1439 50.6924 37.9103C51.7656 37.5974 53.1793 37.546 53.9713 38.4132C56.0821 41.3991 56.5335 46.472 56.3434 50.0796L56.3355 50.1549V50.1509Z" fill="#E6FAB9"/>
<path d="M80.7257 51.3944C80.3654 53.1764 79.9417 54.9704 79.5219 56.7484C79.1576 58.0276 79.0705 59.6552 77.8389 60.4234C76.6271 61.2233 74.9995 60.6848 73.8629 59.9363C72.4848 59.077 71.8314 57.4811 71.5819 55.9208C70.5919 51.0776 70.1404 46.0562 71.6215 41.2724C72.1244 39.823 72.4492 37.7044 74.2629 37.4351C76.1321 37.2371 77.8983 38.2073 78.5319 39.9537C79.3199 41.7951 80.2466 43.6168 80.1991 45.6325C80.3496 47.5096 80.8604 49.4302 80.7337 51.3192L80.7218 51.3904L80.7257 51.3944Z" fill="#E6FAB9"/>
</svg>
