<svg width="180" height="116" viewBox="0 0 180 116" fill="none" xmlns="http://www.w3.org/2000/svg">
<path d="M165.458 68.9402C164.879 66.7819 164.59 64.5247 163.937 62.3822C163.458 61.2457 162.507 60.2874 162.321 59.0162C160.963 52.9572 156.888 48.0229 154.053 42.6253C153.027 40.7997 152.061 38.9385 150.976 37.1485C150.484 36.3486 149.736 35.7308 149.336 34.8992C148.821 33.7825 148.192 32.6934 147.34 31.8024C145.819 30.254 144.089 28.9353 142.374 27.5809C141.095 26.6345 139.701 25.8425 138.097 25.4465C137.571 25.3118 137.084 25.1019 136.672 24.7455C135.301 23.5456 133.935 22.2586 132.561 21.0587C132.24 20.7973 131.884 20.5993 131.508 20.429C130.296 19.9301 129.262 19.1578 128.34 18.2391C127.54 17.4154 126.435 17.0431 125.469 16.4531C122.336 14.7304 119.227 12.794 115.723 12.0059C113.572 11.5347 111.351 12.0772 109.343 12.889C107.846 13.5385 106.413 14.3107 105.866 15.7838C105.771 16.0214 105.676 16.267 105.537 16.4808C105.375 16.7382 105.153 16.9441 104.88 17.1105C102.864 18.3777 100.67 19.0865 98.6152 20.2112C96.9797 21.1973 95.6174 22.5279 94.3383 23.9297C92.8057 25.5771 91.5147 27.4701 90.1485 29.2759C89.6377 29.8936 88.7664 31.2044 88.0615 30.1669C84.2242 23.9495 78.3554 20.4171 72.0628 17.451C71.7064 17.2768 71.3975 17.0431 71.1717 16.7145C70.4748 15.3007 69.7738 14.085 68.2611 13.4117C66.5622 12.5643 64.6851 12.1247 62.9823 12.1247C60.527 12.0891 58.1351 12.9365 55.9967 14.1206C53.7275 15.3363 51.395 16.4531 49.2487 17.855C48.2032 18.548 47.2765 19.4152 46.235 20.1162C45.4668 20.6666 44.5322 20.9478 43.855 21.6091C42.7026 22.6902 41.4988 23.7119 40.3187 24.7534C39.8633 25.1693 39.3405 25.4821 38.7544 25.6722C33.0044 27.4701 29.1274 32.2499 26.0227 37.1565C22.5418 42.1858 19.7539 47.6745 16.8274 53.0047C15.576 55.1511 14.8077 57.4915 14.2256 59.8993C13.7227 61.1229 12.8317 62.1724 12.6218 63.5069C12.1109 65.5266 11.6674 67.566 11.01 69.5817C10.8279 70.1797 10.6853 70.7895 10.6417 71.4113C10.5942 74.3892 10.5942 77.4543 11.2318 80.3809C12.0634 83.4697 12.4396 86.7764 14.6097 89.2752C17.56 92.6492 18.6768 94.1461 23.2467 95.1599C30.6679 96.2331 38.4535 93.8135 44.6906 89.79C46.0846 88.8159 47.728 88.3367 49.3912 88.404C51.8307 88.4317 54.1275 89.4812 56.4996 90.0276C57.6639 90.3167 58.9113 90.0356 60.0676 90.4078C65.0257 92.2532 69.5917 95.0768 74.3121 97.4647C74.8863 97.7617 75.409 98.1141 75.9991 98.3478C76.6486 98.6052 77.397 98.4349 78.0227 98.819C79.7018 100.066 81.4205 101.266 83.2183 102.395C83.7094 102.712 84.1886 103.048 84.7469 103.195C86.5765 103.698 90.1723 103.508 91.9979 102.93C93.0235 102.633 93.776 101.876 94.6709 101.334C96.152 100.455 97.4945 99.5358 98.8607 98.5458C99.6725 98.0429 100.734 98.2607 101.561 97.7696C104.444 96.2608 107.458 94.9342 110.187 93.1838C114.123 90.3128 119.176 90.2732 123.647 88.8673C126.28 88.0832 129.353 87.5882 131.722 89.3227C138.165 93.362 145.245 95.6668 152.956 95.0055C153.91 94.9461 154.777 94.5342 155.613 94.1065C156.595 93.6353 157.842 93.362 158.769 92.669C160.1 91.7463 161.058 90.4435 162.032 89.1604C163.537 87.2833 164.642 85.1726 164.899 82.7371C164.974 81.2521 165.608 79.8819 165.77 78.4127C165.976 76.2228 166.075 74.0091 166.115 71.8112C166.182 70.8291 165.766 69.9104 165.485 69.0075L165.466 68.9362L165.458 68.9402ZM92.6513 45.5479C92.3107 42.5343 92.1365 39.4137 91.8513 36.3644C91.8434 36.2298 91.8117 35.9565 91.8711 35.8971C93.1384 37.4416 93.3166 41.8016 92.6632 45.536L92.6513 45.5479ZM84.4539 36.0555C84.7865 35.8853 85.0479 36.2932 84.9806 36.6258C84.7192 39.5048 84.4499 42.3838 84.1886 45.2628C84.1727 45.9083 83.6777 46.0073 83.6262 45.2984C83.4401 42.3125 83.6223 39.3345 84.244 36.4159C84.2797 36.2694 84.3272 36.1506 84.4103 36.0833L84.4539 36.0555ZM75.2823 93.5363C75.1002 93.6036 74.8942 93.5521 74.6685 93.4452C73.4844 92.8354 72.2885 92.2017 71.144 91.5048C68.6808 90.0078 65.9009 89.3109 63.2199 88.3723C61.6992 87.8654 60.2419 87.1091 58.7054 86.6655C55.862 85.9765 52.9593 85.4973 50.0605 85.0815C47.827 84.5904 46.5954 85.4419 44.8094 86.5507C43.1977 87.4061 41.4235 87.8971 39.792 88.7169C36.8298 90.3761 33.4637 91.0652 30.2006 91.5206C27.9077 91.9998 25.5515 92.3324 23.2546 91.6988C22.8467 91.6275 22.4507 91.5127 22.0824 91.3147C16.2888 88.4792 14.6295 83.0024 14.2296 76.9395C14.1068 75.4901 14.3484 74.0487 14.3088 72.5993C14.3325 71.8548 14.0237 71.0786 14.0633 70.3697C14.7602 67.5779 15.5245 64.7781 16.2136 61.9862C16.4155 61.1546 16.5502 60.3111 17.0214 59.5864C18.8906 56.7391 20.336 53.6344 21.8726 50.593C22.9497 48.7635 24.0546 46.9379 25.203 45.1717C26.3356 43.6946 26.6801 41.7937 27.6028 40.2414C29.369 37.7901 31.4718 35.5764 33.539 33.4023C34.232 32.7211 34.9052 32.0202 35.6854 31.442C36.81 30.6223 38.1921 30.0837 39.2574 29.2085C40.6988 27.8304 42.7779 27.2879 44.0649 25.7514C44.3263 25.4465 44.6154 25.1693 44.9718 24.9831C45.7559 24.6148 46.6033 24.3416 47.2805 23.7832C49.2962 22.1715 51.4782 20.7656 53.6642 19.3915C55.9769 17.8193 58.448 16.5481 61.0656 15.5145C62.3685 14.9601 63.6674 15.1859 65.0534 15.7442C65.3227 15.8551 65.6672 16.061 65.2554 16.2749C62.9427 17.1976 60.9587 18.5321 58.9628 19.9696C54.4641 22.9833 49.613 25.5098 45.2569 28.7492C44.0134 29.5808 42.6314 30.2303 41.5265 31.2718C40.9285 31.8341 41.0236 32.238 41.4909 32.7608C41.8987 33.2993 42.5403 33.6082 43.1699 33.2637C47.6646 31.4143 51.7475 28.7967 55.7353 26.0128C57.7708 24.9633 59.5964 23.6169 61.4972 22.3457C63.9248 20.73 66.9622 20.627 69.7738 20.528C71.94 21.1181 73.9676 22.2863 75.8724 23.4031C77.5475 24.4564 79.1117 25.7593 80.3908 27.3473C81.2027 28.3888 82.066 29.3273 82.9768 30.2699C83.3649 30.65 83.6144 31.1173 83.1629 31.5925C82.0422 32.7885 80.8502 34.0399 80.7631 35.7704C80.6799 37.7742 80.5136 39.7978 80.2285 41.7818C80.0067 43.6114 78.9533 43.5837 78.0742 42.158C77.3416 40.7601 76.9812 39.2474 77.4089 37.6119C77.5515 37.0337 77.7534 36.3763 77.6425 35.8021C77.4604 34.7883 76.2248 34.3448 75.3496 34.0082C73.4805 33.3112 71.6628 32.5667 69.758 32.0281C67.4809 31.3312 66.2612 32.1826 64.8158 33.8221C62.9308 35.3823 61.5131 37.3505 59.937 39.2038C59.24 39.9958 58.5272 40.776 57.854 41.5918C56.46 43.3184 55.1215 45.0846 53.779 46.8508C52.2227 48.9813 50.2545 51.1395 49.6882 53.7572C49.019 56.0184 49.7001 58.5013 49.708 60.8497C49.7754 64.8058 52.1039 69.2688 54.7651 72.2112C57.8025 75.1615 61.4854 77.3553 65.0494 79.6007C66.0395 80.3056 66.8513 81.2442 67.9522 81.7827C71.9321 83.6044 76.1654 85.0815 79.979 87.2239C81.67 88.1664 83.0441 89.6 84.3905 90.986C84.6202 91.2315 84.6598 91.3701 84.3985 91.3384C80.577 90.2217 77.7336 89.6554 75.9001 92.8433C75.7575 93.0928 75.5556 93.3977 75.3298 93.5086L75.2744 93.5323L75.2823 93.5363ZM85.0242 99.1557C82.9491 98.6012 80.5374 96.2569 79.6067 94.4827C79.5157 94.2451 79.7137 94.158 79.9315 94.1303C82.4818 93.9283 84.149 95.3817 85.5904 97.033C86.2755 97.6904 85.8954 98.7517 85.0875 99.1398L85.0281 99.1517L85.0242 99.1557ZM89.2337 88.903C88.2833 90.1266 87.7764 89.3425 87.02 88.4634C85.6578 86.9309 84.0579 85.6993 82.2481 84.7766C80.5334 83.9727 78.7553 83.3311 77.1198 82.3451C74.522 81.0105 71.8766 79.771 69.3541 78.3018C64.9584 75.6089 60.3171 73.0943 56.5273 69.5777C53.9335 66.9918 53.482 63.9782 53.4464 60.4893C53.3038 58.4103 52.9712 56.3035 53.2602 54.2284C53.6285 52.3038 55.2443 50.8386 56.2937 49.2189C57.7193 47.3418 59.0301 45.3459 60.6933 43.6787C61.1052 43.2708 61.4101 42.7917 61.6794 42.2769C63.1328 39.5959 65.5405 37.6911 67.378 35.3269C67.7106 34.9626 68.174 34.9626 68.5977 35.1526C70.2847 35.9486 72.1974 36.4753 73.7141 37.5802C74.3121 38.2534 74.4586 39.3622 74.7081 40.2414C75.3655 42.463 75.4684 45.0925 77.195 46.7953C78.094 47.6269 79.2662 48.1101 80.173 48.9338C80.8463 49.4723 81.369 50.1852 81.9986 50.7792C83.6381 52.3711 86.2478 51.6227 86.7666 49.5199C87.2656 47.3893 87.1111 45.0529 88.4615 43.1956C88.5764 43.0689 88.6912 43.0055 88.7902 43.152C89.202 44.5856 89.3486 46.1617 89.6654 47.6349C89.8515 48.5694 89.8634 49.5911 90.4614 50.3475C91.1861 51.3415 92.58 51.7415 93.7126 51.2425C94.8491 50.7514 95.5382 49.5595 96.4965 48.8229C97.8588 47.52 100.025 47.0329 100.722 45.1242C101.383 43.1362 102.136 41.2235 102.401 39.1167C102.488 38.5623 102.377 37.9049 102.797 37.4733C104.516 36.408 106.424 35.7783 108.135 34.915C108.365 34.8081 108.626 34.725 108.864 34.7725C109.589 35.0378 110.028 35.9011 110.583 36.4238C111.66 37.6633 112.78 38.8593 113.77 40.1463C116.111 43.5876 118.665 46.831 121.152 50.197C122.039 51.4603 123.473 52.4978 123.552 54.1571C123.793 58.1529 123.378 62.113 122.447 65.9938C122.245 67.1541 121.556 68.0729 120.582 68.7105C117.144 72.3498 112.67 74.615 108.504 77.3672C106.931 78.3691 105.308 79.2998 103.581 80.0047C101.023 81.0897 98.6706 82.6183 96.1124 83.6796C93.4433 84.8043 90.889 86.3527 89.2654 88.8396L89.2218 88.8951L89.2337 88.903ZM95.8946 96.2252C94.7501 97.1716 93.6334 98.1815 92.3345 98.9339C91.4672 99.4131 90.5445 98.4072 90.6792 97.5993C90.7386 97.033 91.2653 96.5499 91.6929 96.1697C93.7324 94.3798 94.6987 93.9204 96.9915 94.0788C97.2212 94.0907 97.5578 94.158 97.3796 94.4431C96.9638 95.0332 96.449 95.6985 95.9421 96.1777L95.8946 96.2212V96.2252ZM162.654 73.9259C162.476 76.3851 162.175 78.8443 161.858 81.2996C161.193 85.7983 157.526 90.3326 153.154 91.683C150.627 92.1582 148.081 91.683 145.602 91.1167C141.558 90.7048 137.891 88.9822 134.22 87.4219C132.854 86.8437 131.662 86.0517 130.32 85.3745C127.92 84.2419 125.187 84.8835 122.677 85.2439C119.92 85.7428 117.335 86.7922 114.725 87.6991C111.177 88.9465 107.525 90.0593 104.242 91.98C103.557 92.376 102.908 92.7997 102.247 93.2314C101.855 93.4967 101.459 93.5561 101.126 93.1244C98.8686 89.4257 96.1362 89.996 92.576 91.3305C92.4335 91.3701 92.1127 91.4612 92.0573 91.382C91.982 91.3266 92.0375 91.18 92.1642 90.9939C95.6926 86.8913 100.762 84.7092 105.775 82.8916C108.21 82.151 110.218 80.6343 112.337 79.276C115.834 77.0623 119.208 74.615 122.269 71.8429C124.91 68.5996 127.112 64.7504 127.088 60.4299C126.958 58.1647 127.528 55.9194 127.108 53.6582C127.005 52.9849 126.815 52.3276 126.415 51.7732C125.057 49.8565 123.631 47.9675 122.245 46.0667C121.041 44.5895 120.289 42.7996 118.911 41.473C118.091 40.7324 117.247 40.0077 116.744 39.0019C115.453 36.6694 113.394 35.0695 111.581 33.228C110.392 31.7905 108.674 31.1767 106.884 31.8618C105.019 32.4558 103.229 33.1132 101.375 33.7706C99.1221 34.5111 98.7459 35.4338 99.427 37.6673C99.8389 39.4256 99.3755 41.1482 98.0964 42.4828C97.8984 42.7045 97.546 42.9699 97.3084 42.8788C96.7896 42.6451 96.6708 41.8096 96.5955 41.2789C96.4134 39.3781 96.4015 37.4139 96.1124 35.5368C95.8392 34.0715 94.9244 32.7805 93.9898 31.6361C93.5621 31.1767 93.5661 30.6144 93.9423 30.1431C95.1659 28.4007 96.5559 26.9236 98.0014 25.4623C100.211 23.1694 103.102 21.7992 106.013 20.631C107.062 20.1637 108.203 20.433 109.315 20.4528C111.874 20.5478 114.25 21.126 116.214 22.8684C116.55 23.1654 116.895 23.4783 117.275 23.704C121.338 25.8979 125.053 28.7254 129.068 31.0143C130.664 31.7905 132.197 32.5033 133.876 33.1251C134.494 33.2874 134.921 32.8875 135.365 32.4915C136.303 31.5846 134.387 30.4203 133.761 29.9412C130.597 27.87 127.334 25.8504 124.174 23.8426C120.075 21.324 116.277 18.2985 111.929 16.1996C111.707 16.1125 111.331 15.863 111.541 15.6769C112.99 14.7384 114.887 14.7423 116.372 15.5819C119.477 17.0075 122.609 18.4054 125.219 20.6785C126.177 21.3478 127.318 21.7834 128.185 22.6031C128.946 23.3555 129.951 23.6803 130.838 24.2743C132.232 25.1811 133.464 26.3375 134.933 27.1295C135.852 27.5809 136.608 28.266 137.428 28.864C139.622 30.3253 141.907 31.7113 143.788 33.5924C145.661 35.7546 147.74 37.8851 149.17 40.38C150.635 43.6629 152.603 46.6607 154.389 49.7456C154.781 50.4584 155.146 51.195 155.478 51.9434C156.579 54.5096 158.222 56.8381 159.597 59.2854C159.89 59.8201 160.1 60.3864 160.262 60.9764C161.038 63.9148 161.89 66.8175 162.491 69.7797C162.749 71.1142 162.733 72.5042 162.65 73.8586V73.9338L162.654 73.9259Z" fill="#FFE1F0"/>
<path d="M102.694 59.0954C101.882 56.4183 97.332 53.4998 93.7956 55.1986C92.1324 56.1293 90.5523 57.242 88.8772 58.1291C88.4535 58.3271 88.0337 58.1806 87.6654 57.9271C86.7863 57.341 85.9665 56.7668 85.0399 56.252C81.551 54.1413 77.4959 54.8145 75.0882 58.1014C74.2605 59.1548 74.4704 60.517 74.5139 61.7684C74.7793 65.0751 75.2386 68.4966 77.1078 71.3162C78.3394 73.1893 80.2006 74.4209 81.9906 75.7198C83.2618 76.6505 84.3746 77.6722 85.8715 78.1434C86.719 78.4879 87.6377 78.8008 88.5366 78.4761C89.9029 78.0602 91.4275 77.7672 92.5561 76.8128C94.75 74.8724 96.738 72.7339 98.718 70.5678C99.6526 69.447 100.211 68.0412 101.066 66.8413C102.749 64.6197 103.446 61.7803 102.71 59.1587L102.69 59.0954H102.694ZM96.5835 67.8155C94.5876 70.2668 91.9582 72.1399 89.6375 74.2506C89.2098 74.6427 88.7386 74.9001 88.1327 74.8843C86.8734 74.9714 86.1091 73.9378 85.0557 73.4943C83.2578 72.829 82.1688 71.4192 81.1115 69.9381C79.6462 68.1679 78.8621 66.0453 78.1691 63.9267C77.4999 62.505 77.884 60.7071 78.7394 59.4953C78.9611 59.1864 79.2502 58.937 79.5947 58.7865C81.4599 57.9865 83.3845 58.8063 84.3191 60.6477C85.2933 62.1407 86.5566 65.7444 88.8218 64.6672C89.3643 64.3781 89.7841 63.8356 90.1365 63.3406C90.8968 62.2476 91.6295 61.1625 92.3977 60.0933C92.6828 59.6973 92.968 59.3171 93.4036 59.0756C94.5718 58.4697 96.8805 58.0063 98.025 58.9884C98.5002 59.4795 98.7616 60.4378 98.9319 61.1507C99.4031 63.4752 98.029 66.0176 96.6311 67.76L96.5835 67.8155Z" fill="#FFE1F0"/>
<path d="M179.195 72.1558C179.381 79.5929 178.229 87.6635 174.364 94.0947C168.935 103.278 158.908 108.014 148.378 106.929C143.372 106.545 138.537 105.219 133.876 103.227C126.292 99.825 120.867 101.9 114 105.579C111.137 107.143 108.088 108.525 105.308 110.018C100.35 112.854 94.9799 115.507 89.1031 115.4C86.0459 115.408 82.9689 114.747 80.1889 113.507C76.407 111.753 72.8826 109.519 69.1323 107.682C61.8616 103.924 54.7176 99.3577 46.4331 103.14C43.7363 104.268 40.9246 105.377 38.0931 106.066C21.4053 110.414 6.68169 103.674 1.7395 86.6379C0.238624 81.0621 -0.466272 74.9398 0.333666 69.2451C2.01671 59.0915 6.10748 49.512 11.1922 40.6137C14.0158 35.5923 16.8314 30.8362 20.245 26.3771C22.2686 23.7754 24.6724 21.2132 27.4088 19.1539C31.4441 16.2076 35.8478 13.6771 39.7564 10.7269C48.6943 4.38676 59.7271 -2.4444 71.0253 1.30581C75.0566 2.47799 78.5098 5.28966 81.6581 7.67363C85.8796 10.9922 89.6258 12.7703 94.5245 9.49528C97.8311 7.37267 101.288 4.48576 104.559 2.64036C109.482 0.0623364 115.287 -0.725722 120.792 0.711792C127.853 2.61264 134.078 6.53313 139.947 10.7269C144.113 13.8791 148.532 16.2552 152.647 19.4113C155.573 21.7082 158.143 24.4684 160.262 27.5256C164.095 33.2677 167.275 39.2871 170.717 45.1915C173.251 49.8763 175.306 55.0759 176.879 60.1211C178.086 63.9743 178.973 67.875 179.191 72.0766V72.1558H179.195Z" fill="#2D7864"/>
<path d="M166.741 68.9402C166.163 66.7819 165.874 64.5247 165.22 62.3822C164.741 61.2457 163.791 60.2874 163.604 59.0162C162.246 52.9572 158.171 48.0229 155.336 42.6253C154.31 40.7997 153.344 38.9385 152.259 37.1485C151.768 36.3486 151.019 35.7308 150.619 34.8992C150.104 33.7825 149.475 32.6934 148.623 31.8024C147.103 30.254 145.372 28.9353 143.657 27.5809C142.378 26.6345 140.984 25.8425 139.381 25.4465C138.854 25.3118 138.367 25.1019 137.955 24.7455C136.585 23.5456 135.218 22.2586 133.844 21.0587C133.524 20.7973 133.167 20.5993 132.791 20.429C131.579 19.9301 130.546 19.1578 129.623 18.2391C128.823 17.4154 127.718 17.0431 126.752 16.4531C123.619 14.7304 120.511 12.794 117.006 12.0059C114.856 11.5347 112.634 12.0772 110.626 12.889C109.129 13.5385 107.696 14.3107 107.149 15.7838C107.054 16.0214 106.959 16.267 106.821 16.4808C106.658 16.7382 106.436 16.9441 106.163 17.1105C104.148 18.3777 101.954 19.0865 99.8984 20.2112C98.2629 21.1973 96.9006 22.5279 95.6215 23.9297C94.0889 25.5771 92.7979 27.4701 91.4317 29.2759C90.9209 29.8936 90.0496 31.2044 89.3447 30.1669C85.5074 23.9495 79.6385 20.4171 73.346 17.451C72.9896 17.2768 72.6807 17.0431 72.4549 16.7145C71.758 15.3007 71.057 14.085 69.5443 13.4117C67.8454 12.5643 65.9683 12.1247 64.2655 12.1247C61.8102 12.0891 59.4183 12.9365 57.2799 14.1206C55.0107 15.3363 52.6782 16.4531 50.5319 17.855C49.4864 18.548 48.5597 19.4152 47.5182 20.1162C46.75 20.6666 45.8154 20.9478 45.1382 21.6091C43.9858 22.6902 42.782 23.7119 41.6019 24.7534C41.1465 25.1693 40.6237 25.4821 40.0376 25.6722C34.2876 27.4701 30.4106 32.2499 27.3059 37.1565C23.825 42.1858 21.0371 47.6745 18.1106 53.0047C16.8592 55.1511 16.091 57.4915 15.5088 59.8993C15.0059 61.1229 14.1149 62.1724 13.905 63.5069C13.3941 65.5266 12.9506 67.566 12.2932 69.5817C12.1111 70.1797 11.9685 70.7895 11.9249 71.4113C11.8774 74.3892 11.8774 77.4543 12.515 80.3809C13.3466 83.4697 13.7228 86.7764 15.8929 89.2752C18.8432 92.6492 19.96 94.1461 24.5299 95.1599C31.9511 96.2331 39.7367 93.8135 45.9738 89.79C47.3678 88.8159 49.0112 88.3367 50.6744 88.404C53.1139 88.4317 55.4107 89.4812 57.7828 90.0276C58.9471 90.3167 60.1945 90.0356 61.3508 90.4078C66.3089 92.2532 70.8749 95.0768 75.5953 97.4647C76.1695 97.7617 76.6922 98.1141 77.2823 98.3478C77.9318 98.6052 78.6802 98.4349 79.3059 98.819C80.985 100.066 82.7037 101.266 84.5015 102.395C84.9926 102.712 85.4718 103.048 86.0301 103.195C87.8597 103.698 91.4555 103.508 93.2811 102.93C94.3067 102.633 95.0591 101.876 95.9541 101.334C97.4352 100.455 98.7777 99.5358 100.144 98.5458C100.956 98.0429 102.017 98.2607 102.845 97.7696C105.728 96.2608 108.741 94.9342 111.47 93.1838C115.406 90.3128 120.459 90.2732 124.93 88.8673C127.564 88.0832 130.637 87.5882 133.005 89.3227C139.448 93.362 146.528 95.6668 154.239 95.0055C155.193 94.9461 156.06 94.5342 156.896 94.1065C157.878 93.6353 159.126 93.362 160.052 92.669C161.383 91.7463 162.341 90.4435 163.315 89.1604C164.82 87.2833 165.925 85.1726 166.182 82.7371C166.258 81.2521 166.891 79.8819 167.054 78.4127C167.26 76.2228 167.359 74.0091 167.398 71.8112C167.465 70.8291 167.05 69.9104 166.769 69.0075L166.749 68.9362L166.741 68.9402ZM93.9384 45.5479C93.5979 42.5343 93.4236 39.4137 93.1385 36.3644C93.1306 36.2298 93.0989 35.9565 93.1583 35.8971C94.4255 37.4416 94.6037 41.8016 93.9503 45.536L93.9384 45.5479ZM85.7371 36.0555C86.0697 35.8853 86.3311 36.2932 86.2638 36.6258C86.0024 39.5048 85.7331 42.3838 85.4718 45.2628C85.4559 45.9083 84.9609 46.0073 84.9094 45.2984C84.7233 42.3125 84.9055 39.3345 85.5272 36.4159C85.5628 36.2694 85.6104 36.1506 85.6935 36.0833L85.7371 36.0555ZM76.5655 93.5363C76.3834 93.6036 76.1774 93.5521 75.9517 93.4452C74.7676 92.8354 73.5717 92.2017 72.4272 91.5048C69.964 90.0078 67.1841 89.3109 64.5031 88.3723C62.9824 87.8654 61.5251 87.1091 59.9886 86.6655C57.1452 85.9765 54.2425 85.4973 51.3437 85.0815C49.1102 84.5904 47.8786 85.4419 46.0926 86.5507C44.4809 87.4061 42.7067 87.8971 41.0752 88.7169C38.113 90.3761 34.7469 91.0652 31.4838 91.5206C29.1909 91.9998 26.8347 92.3324 24.5378 91.6988C24.1299 91.6275 23.7339 91.5127 23.3656 91.3147C17.572 88.4792 15.9127 83.0024 15.5128 76.9395C15.39 75.4901 15.6316 74.0487 15.592 72.5993C15.6157 71.8548 15.3069 71.0786 15.3465 70.3697C16.0434 67.5779 16.8077 64.7781 17.4968 61.9862C17.6987 61.1546 17.8334 60.3111 18.3046 59.5864C20.1738 56.7391 21.6192 53.6344 23.1558 50.593C24.2329 48.7635 25.3378 46.9379 26.4862 45.1717C27.6188 43.6946 27.9633 41.7937 28.886 40.2414C30.6522 37.7901 32.755 35.5764 34.8222 33.4023C35.5152 32.7211 36.1884 32.0202 36.9686 31.442C38.0932 30.6223 39.4753 30.0837 40.5406 29.2085C41.982 27.8304 44.0611 27.2879 45.3481 25.7514C45.6095 25.4465 45.8986 25.1693 46.255 24.9831C47.0391 24.6148 47.8865 24.3416 48.5637 23.7832C50.5794 22.1715 52.7614 20.7656 54.9474 19.3915C57.2601 17.8193 59.7312 16.5481 62.3488 15.5145C63.6517 14.9601 64.9506 15.1859 66.3366 15.7442C66.6059 15.8551 66.9504 16.061 66.5386 16.2749C64.2259 17.1976 62.2419 18.5321 60.246 19.9696C55.7473 22.9833 50.8962 25.5098 46.5401 28.7492C45.2966 29.5808 43.9146 30.2303 42.8097 31.2718C42.2117 31.8341 42.3068 32.238 42.7741 32.7608C43.1819 33.2993 43.8235 33.6082 44.4531 33.2637C48.9478 31.4143 53.0307 28.7967 57.0185 26.0128C59.054 24.9633 60.8796 23.6169 62.7804 22.3457C65.208 20.73 68.2454 20.627 71.057 20.528C73.2232 21.1181 75.2508 22.2863 77.1556 23.4031C78.8307 24.4564 80.3949 25.7593 81.674 27.3473C82.4859 28.3888 83.3492 29.3273 84.26 30.2699C84.6481 30.65 84.8976 31.1173 84.4461 31.5925C83.3254 32.7885 82.1334 34.0399 82.0463 35.7704C81.9631 37.7742 81.7968 39.7978 81.5117 41.7818C81.2899 43.6114 80.2365 43.5837 79.3574 42.158C78.6248 40.7601 78.2644 39.2474 78.6921 37.6119C78.8347 37.0337 79.0366 36.3763 78.9257 35.8021C78.7436 34.7883 77.508 34.3448 76.6328 34.0082C74.7637 33.3112 72.946 32.5667 71.0412 32.0281C68.7641 31.3312 67.5444 32.1826 66.099 33.8221C64.214 35.3823 62.7963 37.3505 61.2202 39.2038C60.5232 39.9958 59.8104 40.776 59.1372 41.5918C57.7432 43.3184 56.4047 45.0846 55.0622 46.8508C53.5059 48.9813 51.5377 51.1395 50.9714 53.7572C50.3022 56.0184 50.9833 58.5013 50.9912 60.8497C51.0586 64.8058 53.3871 69.2688 56.0483 72.2112C59.0857 75.1615 62.7686 77.3553 66.3326 79.6007C67.3227 80.3056 68.1345 81.2442 69.2354 81.7827C73.2153 83.6044 77.4486 85.0815 81.2622 87.2239C82.9531 88.1664 84.3273 89.6 85.6737 90.986C85.9034 91.2315 85.943 91.3701 85.6816 91.3384C81.8602 90.2217 79.0168 89.6554 77.1833 92.8433C77.0407 93.0928 76.8388 93.3977 76.613 93.5086L76.5576 93.5323L76.5655 93.5363ZM86.3073 99.1557C84.2323 98.6012 81.8206 96.2569 80.8899 94.4827C80.7989 94.2451 80.9969 94.158 81.2147 94.1303C83.765 93.9283 85.4322 95.3817 86.8736 97.033C87.5587 97.6904 87.1786 98.7517 86.3707 99.1398L86.3113 99.1517L86.3073 99.1557ZM90.5209 88.903C89.5705 90.1266 89.0636 89.3425 88.3072 88.4634C86.9449 86.9309 85.345 85.6993 83.5353 84.7766C81.8206 83.9727 80.0425 83.3311 78.407 82.3451C75.8091 81.0105 73.1638 79.771 70.6412 78.3018C66.2455 75.6089 61.6043 73.0943 57.8145 69.5777C55.2206 66.9918 54.7692 63.9782 54.7335 60.4893C54.591 58.4103 54.2583 56.3035 54.5474 54.2284C54.9157 52.3038 56.5314 50.8386 57.5808 49.2189C59.0065 47.3418 60.3173 45.3459 61.9805 43.6787C62.3923 43.2708 62.6973 42.7917 62.9666 42.2769C64.4199 39.5959 66.8276 37.6911 68.6651 35.3269C68.9978 34.9626 69.4611 34.9626 69.8848 35.1526C71.5718 35.9486 73.4846 36.4753 75.0013 37.5802C75.5993 38.2534 75.7458 39.3622 75.9953 40.2414C76.6526 42.463 76.7556 45.0925 78.4822 46.7953C79.3811 47.6269 80.5533 48.1101 81.4602 48.9338C82.1334 49.4723 82.6561 50.1852 83.2858 50.7792C84.9253 52.3711 87.535 51.6227 88.0537 49.5199C88.5527 47.3893 88.3983 45.0529 89.7487 43.1956C89.8635 43.0689 89.9783 43.0055 90.0774 43.152C90.4892 44.5856 90.6357 46.1617 90.9525 47.6349C91.1387 48.5694 91.1505 49.5911 91.7485 50.3475C92.4732 51.3415 93.8672 51.7415 94.9997 51.2425C96.1363 50.7514 96.8253 49.5595 97.7837 48.8229C99.146 47.52 101.312 47.0329 102.009 45.1242C102.67 43.1362 103.423 41.2235 103.688 39.1167C103.775 38.5623 103.664 37.9049 104.084 37.4733C105.803 36.408 107.712 35.7783 109.422 34.915C109.652 34.8081 109.913 34.725 110.151 34.7725C110.876 35.0378 111.315 35.9011 111.87 36.4238C112.947 37.6633 114.068 38.8593 115.058 40.1463C117.398 43.5876 119.952 46.831 122.439 50.197C123.326 51.4603 124.76 52.4978 124.839 54.1571C125.081 58.1529 124.665 62.113 123.734 65.9938C123.532 67.1541 122.843 68.0729 121.869 68.7105C118.432 72.3498 113.957 74.615 109.791 77.3672C108.219 78.3691 106.595 79.2998 104.868 80.0047C102.31 81.0897 99.9578 82.6183 97.3996 83.6796C94.7305 84.8043 92.1762 86.3527 90.5526 88.8396L90.509 88.8951L90.5209 88.903ZM97.1818 96.2252C96.0373 97.1716 94.9205 98.1815 93.6216 98.9339C92.7544 99.4131 91.8317 98.4072 91.9663 97.5993C92.0257 97.033 92.5524 96.5499 92.9801 96.1697C95.0195 94.3798 95.9858 93.9204 98.2787 94.0788C98.5084 94.0907 98.845 94.158 98.6668 94.4431C98.251 95.0332 97.7362 95.6985 97.2293 96.1777L97.1818 96.2212V96.2252ZM163.941 73.9259C163.763 76.3851 163.462 78.8443 163.145 81.2996C162.48 85.7983 158.813 90.3326 154.441 91.683C151.914 92.1582 149.368 91.683 146.889 91.1167C142.846 90.7048 139.179 88.9822 135.508 87.4219C134.141 86.8437 132.949 86.0517 131.607 85.3745C129.207 84.2419 126.475 84.8835 123.964 85.2439C121.208 85.7428 118.622 86.7922 116.012 87.6991C112.464 88.9465 108.813 90.0593 105.53 91.98C104.845 92.376 104.195 92.7997 103.534 93.2314C103.142 93.4967 102.746 93.5561 102.413 93.1244C100.156 89.4257 97.4233 89.996 93.8632 91.3305C93.7206 91.3701 93.3999 91.4612 93.3444 91.382C93.2692 91.3266 93.3246 91.18 93.4514 90.9939C96.9798 86.8913 102.049 84.7092 107.062 82.8916C109.498 82.151 111.505 80.6343 113.624 79.276C117.121 77.0623 120.495 74.615 123.556 71.8429C126.197 68.5996 128.399 64.7504 128.375 60.4299C128.245 58.1647 128.815 55.9194 128.395 53.6582C128.292 52.9849 128.102 52.3276 127.702 51.7732C126.344 49.8565 124.918 47.9675 123.532 46.0667C122.328 44.5895 121.576 42.7996 120.198 41.473C119.378 40.7324 118.535 40.0077 118.032 39.0019C116.741 36.6694 114.681 35.0695 112.868 33.228C111.68 31.7905 109.961 31.1767 108.171 31.8618C106.306 32.4558 104.516 33.1132 102.663 33.7706C100.409 34.5111 100.033 35.4338 100.714 37.6673C101.126 39.4256 100.663 41.1482 99.3836 42.4828C99.1856 42.7045 98.8331 42.9699 98.5955 42.8788C98.0767 42.6451 97.9579 41.8096 97.8827 41.2789C97.7005 39.3781 97.6887 37.4139 97.3996 35.5368C97.1263 34.0715 96.2115 32.7805 95.277 31.6361C94.8493 31.1767 94.8532 30.6144 95.2294 30.1431C96.4531 28.4007 97.8431 26.9236 99.2885 25.4623C101.498 23.1694 104.389 21.7992 107.3 20.631C108.349 20.1637 109.49 20.433 110.603 20.4528C113.161 20.5478 115.537 21.126 117.501 22.8684C117.838 23.1654 118.182 23.4783 118.562 23.704C122.625 25.8979 126.34 28.7254 130.355 31.0143C131.951 31.7905 133.484 32.5033 135.163 33.1251C135.781 33.2874 136.208 32.8875 136.652 32.4915C137.591 31.5846 135.674 30.4203 135.048 29.9412C131.884 27.87 128.621 25.8504 125.461 23.8426C121.362 21.324 117.564 18.2985 113.216 16.1996C112.994 16.1125 112.618 15.863 112.828 15.6769C114.277 14.7384 116.174 14.7423 117.659 15.5819C120.764 17.0075 123.897 18.4054 126.506 20.6785C127.465 21.3478 128.605 21.7834 129.472 22.6031C130.233 23.3555 131.239 23.6803 132.126 24.2743C133.52 25.1811 134.751 26.3375 136.22 27.1295C137.139 27.5809 137.895 28.266 138.715 28.864C140.909 30.3253 143.194 31.7113 145.075 33.5924C146.948 35.7546 149.027 37.8851 150.457 40.38C151.922 43.6629 153.89 46.6607 155.676 49.7456C156.068 50.4584 156.433 51.195 156.765 51.9434C157.866 54.5096 159.51 56.8381 160.884 59.2854C161.177 59.8201 161.387 60.3864 161.549 60.9764C162.325 63.9148 163.177 66.8175 163.779 69.7797C164.036 71.1142 164.02 72.5042 163.937 73.8586V73.9338L163.941 73.9259Z" fill="#FFE1F0"/>
<path d="M103.981 59.0954C103.169 56.4183 98.6193 53.4998 95.083 55.1986C93.4197 56.1293 91.8397 57.242 90.1646 58.1291C89.7408 58.3271 89.3211 58.1806 88.9528 57.9271C88.0736 57.341 87.2539 56.7668 86.3272 56.252C82.8384 54.1413 78.7832 54.8145 76.3755 58.1014C75.5479 59.1548 75.7577 60.517 75.8013 61.7684C76.0666 65.0751 76.526 68.4966 78.3952 71.3162C79.6267 73.1893 81.488 74.4209 83.278 75.7198C84.5491 76.6505 85.6619 77.6722 87.1588 78.1434C88.0063 78.4879 88.925 78.8008 89.824 78.4761C91.1902 78.0602 92.7148 77.7672 93.8435 76.8128C96.0374 74.8724 98.0253 72.7339 100.005 70.5678C100.94 69.447 101.498 68.0412 102.354 66.8413C104.037 64.6197 104.734 61.7803 103.997 59.1587L103.977 59.0954H103.981ZM97.8709 67.8155C95.875 70.2668 93.2455 72.1399 90.9249 74.2506C90.4972 74.6427 90.0259 74.9001 89.4201 74.8843C88.1607 74.9714 87.3964 73.9378 86.3431 73.4943C84.5452 72.829 83.4562 71.4192 82.3988 69.9381C80.9336 68.1679 80.1495 66.0453 79.4565 63.9267C78.7872 62.505 79.1713 60.7071 80.0267 59.4953C80.2485 59.1864 80.5376 58.937 80.8821 58.7865C82.7473 57.9865 84.6719 58.8063 85.6065 60.6477C86.5807 62.1407 87.8439 65.7444 90.1091 64.6672C90.6516 64.3781 91.0714 63.8356 91.4239 63.3406C92.1842 62.2476 92.9168 61.1625 93.6851 60.0933C93.9702 59.6973 94.2553 59.3171 94.6909 59.0756C95.8592 58.4697 98.1679 58.0063 99.3124 58.9884C99.7876 59.4795 100.049 60.4378 100.219 61.1507C100.69 63.4752 99.3163 66.0176 97.9184 67.76L97.8709 67.8155Z" fill="#FFE1F0"/>
</svg>
