<svg xmlns="http://www.w3.org/2000/svg" width="100%" viewBox="0 0 20 20" fill="none" class="vimeo-player__fullscreen-scale-svg"><path fill-rule="evenodd" clip-rule="evenodd" d="M2.5 3.95833C2.5 3.15292 3.15292 2.5 3.95833 2.5H6.875C7.22017 2.5 7.5 2.77983 7.5 3.125C7.5 3.47017 7.22017 3.75 6.875 3.75H3.95833C3.84327 3.75 3.75 3.84327 3.75 3.95833V6.875C3.75 7.22017 3.47017 7.5 3.125 7.5C2.77983 7.5 2.5 7.22017 2.5 6.875V3.95833ZM12.5 3.125C12.5 2.77983 12.7798 2.5 13.125 2.5H16.0417C16.8471 2.5 17.5 3.15292 17.5 3.95833V6.875C17.5 7.22017 17.2202 7.5 16.875 7.5C16.5298 7.5 16.25 7.22017 16.25 6.875V3.95833C16.25 3.84327 16.1567 3.75 16.0417 3.75H13.125C12.7798 3.75 12.5 3.47017 12.5 3.125ZM3.125 12.5C3.47017 12.5 3.75 12.7798 3.75 13.125V16.0417C3.75 16.1567 3.84327 16.25 3.95833 16.25H6.875C7.22017 16.25 7.5 16.5298 7.5 16.875C7.5 17.2202 7.22017 17.5 6.875 17.5H3.95833C3.15292 17.5 2.5 16.8471 2.5 16.0417V13.125C2.5 12.7798 2.77983 12.5 3.125 12.5ZM16.875 12.5C17.2202 12.5 17.5 12.7798 17.5 13.125V16.0417C17.5 16.8471 16.8471 17.5 16.0417 17.5H13.125C12.7798 17.5 12.5 17.2202 12.5 16.875C12.5 16.5298 12.7798 16.25 13.125 16.25H16.0417C16.1567 16.25 16.25 16.1567 16.25 16.0417V13.125C16.25 12.7798 16.5298 12.5 16.875 12.5Z" fill="currentColor"></path></svg>