<svg xmlns="http://www.w3.org/2000/svg" viewBox="0 0 200 200" style=""><rect x="0" y="0" width="200" height="200" fill="#FFFFFF"></rect><path d="M 0 0 L 8 0 L 8 8 L 0 8 L 0 0 A 0 0 0 0 1 0 0 M 8 0 L 16 0 L 16 8 L 8 8 L 8 0 M 16 0 L 24 0 L 24 8 L 16 8 L 16 0 M 24 0 L 32 0 L 32 8 L 24 8 L 24 0 M 32 0 L 40 0 L 40 8 L 32 8 L 32 0 M 40 0 L 48 0 L 48 8 L 40 8 L 40 0 M 48 0 L 56 0 A 0 0 0 0 1 56 0 L 56 8 L 48 8 L 48 0 M 64 0 L 72 0 A 0 0 0 0 1 72 0 L 72 8 A 0 0 0 0 1 72 8 L 64 8 A 0 0 0 0 1 64 8 L 64 0 A 0 0 0 0 1 64 0 M 88 0 L 96 0 L 96 8 L 88 8 L 88 0 A 0 0 0 0 1 88 0 M 96 0 L 104 0 L 104 8 L 96 8 L 96 0 M 104 0 L 112 0 A 0 0 0 0 1 112 0 L 112 8 A 0 0 0 0 1 112 8 L 104 8 L 104 0 M 128 0 L 136 0 A 0 0 0 0 1 136 0 L 136 8 A 0 0 0 0 1 136 8 L 128 8 A 0 0 0 0 1 128 8 L 128 0 A 0 0 0 0 1 128 0 M 144 0 L 152 0 L 152 8 L 144 8 L 144 0 A 0 0 0 0 1 144 0 M 152 0 L 160 0 L 160 8 L 152 8 L 152 0 M 160 0 L 168 0 L 168 8 L 160 8 L 160 0 M 168 0 L 176 0 L 176 8 L 168 8 L 168 0 M 176 0 L 184 0 L 184 8 L 176 8 L 176 0 M 184 0 L 192 0 L 192 8 L 184 8 L 184 0 M 192 0 L 200 0 A 0 0 0 0 1 200 0 L 200 8 L 192 8 L 192 0 M 0 8 L 8 8 L 8 16 L 0 16 L 0 8 M 8 8 L 8 8 L 8 8 A 0 0 0 0 1 8 8 M 48 8 L 48 8 L 48 8 A 0 0 0 0 1 48 8 M 48 8 L 56 8 L 56 16 L 48 16 L 48 8 M 72 16 L 72 16 L 72 16 A 0 0 0 0 1 72 16 M 72 8 L 80 8 A 0 0 0 0 1 80 8 L 80 16 L 72 16 L 72 8 A 0 0 0 0 1 72 8 M 80 16 L 80 16 L 80 16 A 0 0 0 0 1 80 16 M 88 8 L 96 8 L 96 16 L 88 16 A 0 0 0 0 1 88 16 L 88 8 M 96 8 L 104 8 L 104 16 L 96 16 L 96 8 M 104 8 L 104 8 L 104 8 A 0 0 0 0 1 104 8 M 104 16 L 104 16 L 104 16 A 0 0 0 0 1 104 16 M 144 8 L 152 8 L 152 16 L 144 16 L 144 8 M 152 8 L 152 8 L 152 8 A 0 0 0 0 1 152 8 M 192 8 L 192 8 L 192 8 A 0 0 0 0 1 192 8 M 192 8 L 200 8 L 200 16 L 192 16 L 192 8 M 0 16 L 8 16 L 8 24 L 0 24 L 0 16 M 16 16 L 24 16 L 24 24 L 16 24 L 16 16 A 0 0 0 0 1 16 16 M 24 16 L 32 16 L 32 24 L 24 24 L 24 16 M 32 16 L 40 16 A 0 0 0 0 1 40 16 L 40 24 L 32 24 L 32 16 M 48 16 L 56 16 L 56 24 L 48 24 L 48 16 M 64 16 L 72 16 L 72 24 L 64 24 A 0 0 0 0 1 64 24 L 64 16 A 0 0 0 0 1 64 16 M 72 16 L 80 16 L 80 24 L 72 24 L 72 16 M 80 16 L 88 16 A 0 0 0 0 1 88 16 L 88 24 L 80 24 L 80 16 M 96 16 L 96 16 L 96 16 A 0 0 0 0 1 96 16 M 96 16 L 104 16 L 104 24 L 96 24 A 0 0 0 0 1 96 24 L 96 16 M 104 16 L 112 16 L 112 24 L 104 24 L 104 16 M 112 16 L 120 16 A 0 0 0 0 1 120 16 L 120 24 A 0 0 0 0 1 120 24 L 112 24 L 112 16 M 128 16 L 136 16 A 0 0 0 0 1 136 16 L 136 24 L 128 24 L 128 16 A 0 0 0 0 1 128 16 M 144 16 L 152 16 L 152 24 L 144 24 L 144 16 M 160 16 L 168 16 L 168 24 L 160 24 L 160 16 A 0 0 0 0 1 160 16 M 168 16 L 176 16 L 176 24 L 168 24 L 168 16 M 176 16 L 184 16 A 0 0 0 0 1 184 16 L 184 24 L 176 24 L 176 16 M 192 16 L 200 16 L 200 24 L 192 24 L 192 16 M 0 24 L 8 24 L 8 32 L 0 32 L 0 24 M 16 24 L 24 24 L 24 32 L 16 32 L 16 24 M 24 24 L 32 24 L 32 32 L 24 32 L 24 24 M 32 24 L 40 24 L 40 32 L 32 32 L 32 24 M 48 24 L 56 24 L 56 32 L 48 32 L 48 24 M 72 24 L 72 24 L 72 24 A 0 0 0 0 1 72 24 M 72 24 L 80 24 L 80 32 L 72 32 L 72 24 M 80 24 L 88 24 L 88 32 A 0 0 0 0 1 88 32 L 80 32 L 80 24 M 104 24 L 104 24 L 104 24 A 0 0 0 0 1 104 24 M 104 24 L 112 24 L 112 32 L 104 32 L 104 24 M 112 24 L 112 24 L 112 24 A 0 0 0 0 1 112 24 M 128 24 L 136 24 L 136 32 L 128 32 L 128 24 M 144 24 L 152 24 L 152 32 L 144 32 L 144 24 M 160 24 L 168 24 L 168 32 L 160 32 L 160 24 M 168 24 L 176 24 L 176 32 L 168 32 L 168 24 M 176 24 L 184 24 L 184 32 L 176 32 L 176 24 M 192 24 L 200 24 L 200 32 L 192 32 L 192 24 M 0 32 L 8 32 L 8 40 L 0 40 L 0 32 M 16 32 L 24 32 L 24 40 L 16 40 A 0 0 0 0 1 16 40 L 16 32 M 24 32 L 32 32 L 32 40 L 24 40 L 24 32 M 32 32 L 40 32 L 40 40 A 0 0 0 0 1 40 40 L 32 40 L 32 32 M 48 32 L 56 32 L 56 40 L 48 40 L 48 32 M 72 40 L 72 40 L 72 40 A 0 0 0 0 1 72 40 M 72 32 L 80 32 L 80 40 L 72 40 L 72 32 M 80 32 L 80 32 L 80 32 A 0 0 0 0 1 80 32 M 104 40 L 104 40 L 104 40 A 0 0 0 0 1 104 40 M 104 32 L 112 32 L 112 40 L 104 40 L 104 32 M 128 32 L 136 32 L 136 40 L 128 40 L 128 32 M 144 32 L 152 32 L 152 40 L 144 40 L 144 32 M 160 32 L 168 32 L 168 40 L 160 40 A 0 0 0 0 1 160 40 L 160 32 M 168 32 L 176 32 L 176 40 L 168 40 L 168 32 M 176 32 L 184 32 L 184 40 A 0 0 0 0 1 184 40 L 176 40 L 176 32 M 192 32 L 200 32 L 200 40 L 192 40 L 192 32 M 0 40 L 8 40 L 8 48 L 0 48 L 0 40 M 8 48 L 8 48 L 8 48 A 0 0 0 0 1 8 48 M 48 48 L 48 48 L 48 48 A 0 0 0 0 1 48 48 M 48 40 L 56 40 L 56 48 L 48 48 L 48 40 M 64 40 L 72 40 L 72 48 L 64 48 L 64 40 A 0 0 0 0 1 64 40 M 72 40 L 80 40 L 80 48 A 0 0 0 0 1 80 48 L 72 48 L 72 40 M 96 40 L 104 40 L 104 48 L 96 48 L 96 40 A 0 0 0 0 1 96 40 M 104 40 L 112 40 L 112 48 A 0 0 0 0 1 112 48 L 104 48 L 104 40 M 128 40 L 136 40 L 136 48 L 128 48 L 128 40 M 144 40 L 152 40 L 152 48 L 144 48 L 144 40 M 152 48 L 152 48 L 152 48 A 0 0 0 0 1 152 48 M 192 48 L 192 48 L 192 48 A 0 0 0 0 1 192 48 M 192 40 L 200 40 L 200 48 L 192 48 L 192 40 M 0 48 L 8 48 L 8 56 L 0 56 A 0 0 0 0 1 0 56 L 0 48 M 8 48 L 16 48 L 16 56 L 8 56 L 8 48 M 16 48 L 24 48 L 24 56 L 16 56 L 16 48 M 24 48 L 32 48 L 32 56 L 24 56 L 24 48 M 32 48 L 40 48 L 40 56 L 32 56 L 32 48 M 40 48 L 48 48 L 48 56 L 40 56 L 40 48 M 48 48 L 56 48 L 56 56 A 0 0 0 0 1 56 56 L 48 56 L 48 48 M 64 48 L 72 48 L 72 56 A 0 0 0 0 1 72 56 L 64 56 A 0 0 0 0 1 64 56 L 64 48 M 72 48 L 72 48 L 72 48 A 0 0 0 0 1 72 48 M 80 48 L 88 48 A 0 0 0 0 1 88 48 L 88 56 A 0 0 0 0 1 88 56 L 80 56 A 0 0 0 0 1 80 56 L 80 48 A 0 0 0 0 1 80 48 M 96 48 L 104 48 L 104 56 A 0 0 0 0 1 104 56 L 96 56 A 0 0 0 0 1 96 56 L 96 48 M 104 48 L 104 48 L 104 48 A 0 0 0 0 1 104 48 M 112 48 L 120 48 A 0 0 0 0 1 120 48 L 120 56 A 0 0 0 0 1 120 56 L 112 56 A 0 0 0 0 1 112 56 L 112 48 A 0 0 0 0 1 112 48 M 128 48 L 136 48 L 136 56 A 0 0 0 0 1 136 56 L 128 56 A 0 0 0 0 1 128 56 L 128 48 M 144 48 L 152 48 L 152 56 L 144 56 A 0 0 0 0 1 144 56 L 144 48 M 152 48 L 160 48 L 160 56 L 152 56 L 152 48 M 160 48 L 168 48 L 168 56 L 160 56 L 160 48 M 168 48 L 176 48 L 176 56 L 168 56 L 168 48 M 176 48 L 184 48 L 184 56 L 176 56 L 176 48 M 184 48 L 192 48 L 192 56 L 184 56 L 184 48 M 192 48 L 200 48 L 200 56 A 0 0 0 0 1 200 56 L 192 56 L 192 48 M 88 64 L 88 64 L 88 64 A 0 0 0 0 1 88 64 M 88 56 L 96 56 A 0 0 0 0 1 96 56 L 96 64 L 88 64 L 88 56 A 0 0 0 0 1 88 56 M 96 64 L 96 64 L 96 64 A 0 0 0 0 1 96 64 M 0 64 L 8 64 A 0 0 0 0 1 8 64 L 8 72 A 0 0 0 0 1 8 72 L 0 72 A 0 0 0 0 1 0 72 L 0 64 A 0 0 0 0 1 0 64 M 16 64 L 24 64 A 0 0 0 0 1 24 64 L 24 72 L 16 72 L 16 64 A 0 0 0 0 1 16 64 M 48 64 L 56 64 L 56 72 L 48 72 A 0 0 0 0 1 48 72 L 48 64 A 0 0 0 0 1 48 64 M 56 64 L 64 64 A 0 0 0 0 1 64 64 L 64 72 L 56 72 L 56 64 M 72 64 L 80 64 L 80 72 L 72 72 A 0 0 0 0 1 72 72 L 72 64 A 0 0 0 0 1 72 64 M 80 64 L 88 64 L 88 72 L 80 72 L 80 64 M 88 64 L 96 64 L 96 72 L 88 72 L 88 64 M 96 64 L 104 64 A 0 0 0 0 1 104 64 L 104 72 L 96 72 L 96 64 M 112 64 L 120 64 L 120 72 L 112 72 L 112 64 A 0 0 0 0 1 112 64 M 120 64 L 128 64 A 0 0 0 0 1 128 64 L 128 72 L 120 72 L 120 64 M 152 72 L 152 72 L 152 72 A 0 0 0 0 1 152 72 M 152 64 L 160 64 A 0 0 0 0 1 160 64 L 160 72 L 152 72 L 152 64 A 0 0 0 0 1 152 64 M 176 64 L 184 64 A 0 0 0 0 1 184 64 L 184 72 A 0 0 0 0 1 184 72 L 176 72 A 0 0 0 0 1 176 72 L 176 64 A 0 0 0 0 1 176 64 M 192 72 L 192 72 L 192 72 A 0 0 0 0 1 192 72 M 192 64 L 200 64 A 0 0 0 0 1 200 64 L 200 72 L 192 72 L 192 64 A 0 0 0 0 1 192 64 M 16 72 L 24 72 L 24 80 A 0 0 0 0 1 24 80 L 16 80 A 0 0 0 0 1 16 80 L 16 72 M 56 72 L 56 72 L 56 72 A 0 0 0 0 1 56 72 M 56 72 L 64 72 L 64 80 A 0 0 0 0 1 64 80 L 56 80 A 0 0 0 0 1 56 80 L 56 72 M 80 72 L 80 72 L 80 72 A 0 0 0 0 1 80 72 M 80 72 L 88 72 L 88 80 A 0 0 0 0 1 88 80 L 80 80 A 0 0 0 0 1 80 80 L 80 72 M 88 72 L 88 72 L 88 72 A 0 0 0 0 1 88 72 M 96 72 L 96 72 L 96 72 A 0 0 0 0 1 96 72 M 96 72 L 104 72 L 104 80 A 0 0 0 0 1 104 80 L 96 80 A 0 0 0 0 1 96 80 L 96 72 M 112 80 L 112 80 L 112 80 A 0 0 0 0 1 112 80 M 112 72 L 120 72 L 120 80 L 112 80 L 112 72 M 120 72 L 128 72 L 128 80 L 120 80 L 120 72 M 144 80 L 144 80 L 144 80 A 0 0 0 0 1 144 80 M 144 72 L 152 72 L 152 80 L 144 80 L 144 72 A 0 0 0 0 1 144 72 M 152 72 L 160 72 L 160 80 A 0 0 0 0 1 160 80 L 152 80 L 152 72 M 168 72 L 176 72 A 0 0 0 0 1 176 72 L 176 80 L 168 80 L 168 72 A 0 0 0 0 1 168 72 M 176 80 L 176 80 L 176 80 A 0 0 0 0 1 176 80 M 184 72 L 192 72 L 192 80 L 184 80 A 0 0 0 0 1 184 80 L 184 72 A 0 0 0 0 1 184 72 M 192 72 L 200 72 L 200 80 L 192 80 L 192 72 M 8 80 L 16 80 A 0 0 0 0 1 16 80 L 16 88 A 0 0 0 0 1 16 88 L 8 88 A 0 0 0 0 1 8 88 L 8 80 A 0 0 0 0 1 8 80 M 32 80 L 40 80 A 0 0 0 0 1 40 80 L 40 88 A 0 0 0 0 1 40 88 L 32 88 A 0 0 0 0 1 32 88 L 32 80 A 0 0 0 0 1 32 80 M 48 80 L 56 80 A 0 0 0 0 1 56 80 L 56 88 A 0 0 0 0 1 56 88 L 48 88 A 0 0 0 0 1 48 88 L 48 80 A 0 0 0 0 1 48 80 M 104 80 L 112 80 L 112 88 L 104 88 A 0 0 0 0 1 104 88 L 104 80 A 0 0 0 0 1 104 80 M 112 80 L 120 80 L 120 88 L 112 88 L 112 80 M 120 80 L 128 80 L 128 88 L 120 88 L 120 80 M 136 80 L 144 80 L 144 88 L 136 88 L 136 80 A 0 0 0 0 1 136 80 M 144 80 L 152 80 L 152 88 A 0 0 0 0 1 152 88 L 144 88 L 144 80 M 152 80 L 152 80 L 152 80 A 0 0 0 0 1 152 80 M 168 80 L 176 80 L 176 88 L 168 88 L 168 80 M 176 80 L 184 80 A 0 0 0 0 1 184 80 L 184 88 A 0 0 0 0 1 184 88 L 176 88 L 176 80 M 192 80 L 192 80 L 192 80 A 0 0 0 0 1 192 80 M 192 80 L 200 80 L 200 88 A 0 0 0 0 1 200 88 L 192 88 A 0 0 0 0 1 192 88 L 192 80 M 16 88 L 24 88 A 0 0 0 0 1 24 88 L 24 96 A 0 0 0 0 1 24 96 L 16 96 A 0 0 0 0 1 16 96 L 16 88 A 0 0 0 0 1 16 88 M 40 88 L 48 88 A 0 0 0 0 1 48 88 L 48 96 A 0 0 0 0 1 48 96 L 40 96 A 0 0 0 0 1 40 96 L 40 88 A 0 0 0 0 1 40 88 M 56 88 L 64 88 L 64 96 L 56 96 A 0 0 0 0 1 56 96 L 56 88 A 0 0 0 0 1 56 88 M 64 88 L 72 88 A 0 0 0 0 1 72 88 L 72 96 A 0 0 0 0 1 72 96 L 64 96 L 64 88 M 80 88 L 88 88 L 88 96 L 80 96 A 0 0 0 0 1 80 96 L 80 88 A 0 0 0 0 1 80 88 M 88 88 L 96 88 A 0 0 0 0 1 96 88 L 96 96 L 88 96 L 88 88 M 96 96 L 96 96 L 96 96 A 0 0 0 0 1 96 96 M 112 88 L 112 88 L 112 88 A 0 0 0 0 1 112 88 M 112 88 L 120 88 L 120 96 L 112 96 L 112 88 M 120 88 L 128 88 L 128 96 L 120 96 L 120 88 M 136 88 L 144 88 L 144 96 L 136 96 L 136 88 M 144 88 L 144 88 L 144 88 A 0 0 0 0 1 144 88 M 144 96 L 144 96 L 144 96 A 0 0 0 0 1 144 96 M 152 88 L 160 88 A 0 0 0 0 1 160 88 L 160 96 A 0 0 0 0 1 160 96 L 152 96 A 0 0 0 0 1 152 96 L 152 88 A 0 0 0 0 1 152 88 M 168 88 L 176 88 L 176 96 A 0 0 0 0 1 176 96 L 168 96 A 0 0 0 0 1 168 96 L 168 88 M 176 88 L 176 88 L 176 88 A 0 0 0 0 1 176 88 M 0 96 L 8 96 L 8 104 L 0 104 A 0 0 0 0 1 0 104 L 0 96 A 0 0 0 0 1 0 96 M 8 96 L 16 96 A 0 0 0 0 1 16 96 L 16 104 A 0 0 0 0 1 16 104 L 8 104 L 8 96 M 48 96 L 56 96 A 0 0 0 0 1 56 96 L 56 104 A 0 0 0 0 1 56 104 L 48 104 A 0 0 0 0 1 48 104 L 48 96 A 0 0 0 0 1 48 96 M 72 96 L 80 96 A 0 0 0 0 1 80 96 L 80 104 A 0 0 0 0 1 80 104 L 72 104 A 0 0 0 0 1 72 104 L 72 96 A 0 0 0 0 1 72 96 M 88 96 L 88 96 L 88 96 A 0 0 0 0 1 88 96 M 88 96 L 96 96 L 96 104 L 88 104 A 0 0 0 0 1 88 104 L 88 96 M 96 96 L 104 96 A 0 0 0 0 1 104 96 L 104 104 L 96 104 L 96 96 M 112 96 L 120 96 L 120 104 L 112 104 L 112 96 M 120 96 L 128 96 L 128 104 L 120 104 L 120 96 M 136 96 L 144 96 L 144 104 L 136 104 A 0 0 0 0 1 136 104 L 136 96 M 144 96 L 152 96 A 0 0 0 0 1 152 96 L 152 104 L 144 104 L 144 96 M 152 104 L 152 104 L 152 104 A 0 0 0 0 1 152 104 M 192 104 L 192 104 L 192 104 A 0 0 0 0 1 192 104 M 192 96 L 200 96 A 0 0 0 0 1 200 96 L 200 104 L 192 104 L 192 96 A 0 0 0 0 1 192 96 M 16 104 L 24 104 A 0 0 0 0 1 24 104 L 24 112 A 0 0 0 0 1 24 112 L 16 112 A 0 0 0 0 1 16 112 L 16 104 A 0 0 0 0 1 16 104 M 32 104 L 40 104 A 0 0 0 0 1 40 104 L 40 112 A 0 0 0 0 1 40 112 L 32 112 A 0 0 0 0 1 32 112 L 32 104 A 0 0 0 0 1 32 104 M 64 104 L 72 104 A 0 0 0 0 1 72 104 L 72 112 A 0 0 0 0 1 72 112 L 64 112 A 0 0 0 0 1 64 112 L 64 104 A 0 0 0 0 1 64 104 M 80 104 L 88 104 A 0 0 0 0 1 88 104 L 88 112 L 80 112 L 80 104 A 0 0 0 0 1 80 104 M 96 104 L 96 104 L 96 104 A 0 0 0 0 1 96 104 M 96 104 L 104 104 L 104 112 L 96 112 L 96 104 M 112 112 L 112 112 L 112 112 A 0 0 0 0 1 112 112 M 104 112 L 104 112 L 104 112 A 0 0 0 0 1 104 112 M 112 104 L 120 104 L 120 112 L 112 112 L 112 104 M 120 104 L 128 104 L 128 112 L 120 112 L 120 104 M 144 104 L 144 104 L 144 104 A 0 0 0 0 1 144 104 M 144 104 L 152 104 L 152 112 L 144 112 A 0 0 0 0 1 144 112 L 144 104 M 152 104 L 160 104 A 0 0 0 0 1 160 104 L 160 112 A 0 0 0 0 1 160 112 L 152 112 L 152 104 M 184 104 L 192 104 L 192 112 L 184 112 A 0 0 0 0 1 184 112 L 184 104 A 0 0 0 0 1 184 104 M 192 104 L 200 104 L 200 112 L 192 112 L 192 104 M 0 112 L 8 112 L 8 120 L 0 120 A 0 0 0 0 1 0 120 L 0 112 A 0 0 0 0 1 0 112 M 8 112 L 16 112 A 0 0 0 0 1 16 112 L 16 120 A 0 0 0 0 1 16 120 L 8 120 L 8 112 M 24 120 L 24 120 L 24 120 A 0 0 0 0 1 24 120 M 24 112 L 32 112 A 0 0 0 0 1 32 112 L 32 120 L 24 120 L 24 112 A 0 0 0 0 1 24 112 M 32 120 L 32 120 L 32 120 A 0 0 0 0 1 32 120 M 48 112 L 56 112 L 56 120 L 48 120 A 0 0 0 0 1 48 120 L 48 112 A 0 0 0 0 1 48 112 M 56 112 L 64 112 A 0 0 0 0 1 64 112 L 64 120 A 0 0 0 0 1 64 120 L 56 120 L 56 112 M 80 112 L 88 112 L 88 120 L 80 120 L 80 112 M 96 120 L 96 120 L 96 120 A 0 0 0 0 1 96 120 M 88 120 L 88 120 L 88 120 A 0 0 0 0 1 88 120 M 96 112 L 104 112 L 104 120 L 96 120 L 96 112 M 104 112 L 112 112 L 112 120 L 104 120 L 104 112 M 112 112 L 120 112 L 120 120 L 112 120 L 112 112 M 120 112 L 128 112 L 128 120 L 120 120 L 120 112 M 128 120 L 128 120 L 128 120 A 0 0 0 0 1 128 120 M 168 120 L 168 120 L 168 120 A 0 0 0 0 1 168 120 M 168 112 L 176 112 L 176 120 L 168 120 L 168 112 A 0 0 0 0 1 168 112 M 176 112 L 184 112 A 0 0 0 0 1 184 112 L 184 120 A 0 0 0 0 1 184 120 L 176 120 L 176 112 M 192 112 L 192 112 L 192 112 A 0 0 0 0 1 192 112 M 192 112 L 200 112 L 200 120 A 0 0 0 0 1 200 120 L 192 120 A 0 0 0 0 1 192 120 L 192 112 M 16 120 L 24 120 L 24 128 L 16 128 A 0 0 0 0 1 16 128 L 16 120 A 0 0 0 0 1 16 120 M 24 120 L 32 120 L 32 128 L 24 128 L 24 120 M 32 120 L 40 120 L 40 128 L 32 128 L 32 120 M 40 120 L 48 120 A 0 0 0 0 1 48 120 L 48 128 A 0 0 0 0 1 48 128 L 40 128 L 40 120 M 64 128 L 64 128 L 64 128 A 0 0 0 0 1 64 128 M 64 120 L 72 120 A 0 0 0 0 1 72 120 L 72 128 L 64 128 L 64 120 A 0 0 0 0 1 64 120 M 80 120 L 88 120 L 88 128 L 80 128 A 0 0 0 0 1 80 128 L 80 120 M 88 120 L 96 120 L 96 128 L 88 128 L 88 120 M 96 120 L 104 120 L 104 128 L 96 128 L 96 120 M 104 120 L 104 120 L 104 120 A 0 0 0 0 1 104 120 M 120 120 L 120 120 L 120 120 A 0 0 0 0 1 120 120 M 120 120 L 128 120 L 128 128 L 120 128 A 0 0 0 0 1 120 128 L 120 120 M 128 120 L 136 120 A 0 0 0 0 1 136 120 L 136 128 L 128 128 L 128 120 M 144 128 L 144 128 L 144 128 A 0 0 0 0 1 144 128 M 136 128 L 136 128 L 136 128 A 0 0 0 0 1 136 128 M 144 120 L 152 120 L 152 128 L 144 128 L 144 120 A 0 0 0 0 1 144 120 M 152 120 L 160 120 L 160 128 L 152 128 L 152 120 M 160 120 L 168 120 L 168 128 L 160 128 L 160 120 M 168 120 L 176 120 L 176 128 A 0 0 0 0 1 176 128 L 168 128 L 168 120 M 176 120 L 176 120 L 176 120 A 0 0 0 0 1 176 120 M 0 128 L 8 128 L 8 136 L 0 136 A 0 0 0 0 1 0 136 L 0 128 A 0 0 0 0 1 0 128 M 8 128 L 16 128 A 0 0 0 0 1 16 128 L 16 136 A 0 0 0 0 1 16 136 L 8 136 L 8 128 M 48 128 L 56 128 L 56 136 L 48 136 A 0 0 0 0 1 48 136 L 48 128 A 0 0 0 0 1 48 128 M 56 128 L 64 128 L 64 136 L 56 136 L 56 128 M 64 128 L 72 128 L 72 136 L 64 136 L 64 128 M 72 136 L 72 136 L 72 136 A 0 0 0 0 1 72 136 M 96 128 L 96 128 L 96 128 A 0 0 0 0 1 96 128 M 96 128 L 104 128 L 104 136 A 0 0 0 0 1 104 136 L 96 136 A 0 0 0 0 1 96 136 L 96 128 M 112 128 L 120 128 A 0 0 0 0 1 120 128 L 120 136 L 112 136 L 112 128 A 0 0 0 0 1 112 128 M 128 128 L 128 128 L 128 128 A 0 0 0 0 1 128 128 M 128 128 L 136 128 L 136 136 L 128 136 L 128 128 M 136 128 L 144 128 L 144 136 L 136 136 L 136 128 M 144 128 L 152 128 L 152 136 L 144 136 L 144 128 M 152 128 L 160 128 L 160 136 L 152 136 L 152 128 M 160 128 L 168 128 L 168 136 L 160 136 L 160 128 M 168 128 L 168 128 L 168 128 A 0 0 0 0 1 168 128 M 184 128 L 192 128 A 0 0 0 0 1 192 128 L 192 136 A 0 0 0 0 1 192 136 L 184 136 A 0 0 0 0 1 184 136 L 184 128 A 0 0 0 0 1 184 128 M 64 136 L 64 136 L 64 136 A 0 0 0 0 1 64 136 M 64 136 L 72 136 L 72 144 L 64 144 L 64 136 M 72 136 L 80 136 A 0 0 0 0 1 80 136 L 80 144 A 0 0 0 0 1 80 144 L 72 144 L 72 136 M 112 144 L 112 144 L 112 144 A 0 0 0 0 1 112 144 M 112 136 L 120 136 L 120 144 L 112 144 L 112 136 M 128 136 L 136 136 L 136 144 L 128 144 L 128 136 M 136 136 L 136 136 L 136 136 A 0 0 0 0 1 136 136 M 160 136 L 160 136 L 160 136 A 0 0 0 0 1 160 136 M 160 136 L 168 136 L 168 144 L 160 144 L 160 136 M 192 136 L 200 136 A 0 0 0 0 1 200 136 L 200 144 L 192 144 L 192 136 A 0 0 0 0 1 192 136 M 0 144 L 8 144 L 8 152 L 0 152 L 0 144 A 0 0 0 0 1 0 144 M 8 144 L 16 144 L 16 152 L 8 152 L 8 144 M 16 144 L 24 144 L 24 152 L 16 152 L 16 144 M 24 144 L 32 144 L 32 152 L 24 152 L 24 144 M 32 144 L 40 144 L 40 152 L 32 152 L 32 144 M 40 144 L 48 144 L 48 152 L 40 152 L 40 144 M 48 144 L 56 144 A 0 0 0 0 1 56 144 L 56 152 L 48 152 L 48 144 M 64 144 L 72 144 L 72 152 A 0 0 0 0 1 72 152 L 64 152 A 0 0 0 0 1 64 152 L 64 144 M 72 144 L 72 144 L 72 144 A 0 0 0 0 1 72 144 M 88 144 L 96 144 L 96 152 L 88 152 L 88 144 A 0 0 0 0 1 88 144 M 96 144 L 104 144 L 104 152 L 96 152 L 96 144 M 104 144 L 112 144 L 112 152 L 104 152 L 104 144 M 112 144 L 120 144 L 120 152 L 112 152 L 112 144 M 128 144 L 136 144 L 136 152 L 128 152 L 128 144 M 144 144 L 152 144 A 0 0 0 0 1 152 144 L 152 152 A 0 0 0 0 1 152 152 L 144 152 A 0 0 0 0 1 144 152 L 144 144 A 0 0 0 0 1 144 144 M 160 144 L 168 144 L 168 152 L 160 152 L 160 144 M 192 144 L 200 144 L 200 152 A 0 0 0 0 1 200 152 L 192 152 A 0 0 0 0 1 192 152 L 192 144 M 0 152 L 8 152 L 8 160 L 0 160 L 0 152 M 8 152 L 8 152 L 8 152 A 0 0 0 0 1 8 152 M 48 152 L 48 152 L 48 152 A 0 0 0 0 1 48 152 M 48 152 L 56 152 L 56 160 L 48 160 L 48 152 M 72 152 L 80 152 A 0 0 0 0 1 80 152 L 80 160 A 0 0 0 0 1 80 160 L 72 160 A 0 0 0 0 1 72 160 L 72 152 A 0 0 0 0 1 72 152 M 88 160 L 88 160 L 88 160 A 0 0 0 0 1 88 160 M 88 152 L 96 152 L 96 160 L 88 160 L 88 152 M 96 152 L 96 152 L 96 152 A 0 0 0 0 1 96 152 M 112 152 L 112 152 L 112 152 A 0 0 0 0 1 112 152 M 112 152 L 120 152 L 120 160 L 112 160 L 112 152 M 128 160 L 128 160 L 128 160 A 0 0 0 0 1 128 160 M 120 160 L 120 160 L 120 160 A 0 0 0 0 1 120 160 M 128 152 L 136 152 L 136 160 L 128 160 L 128 152 M 136 160 L 136 160 L 136 160 A 0 0 0 0 1 136 160 M 160 160 L 160 160 L 160 160 A 0 0 0 0 1 160 160 M 160 152 L 168 152 L 168 160 L 160 160 L 160 152 M 184 152 L 192 152 A 0 0 0 0 1 192 152 L 192 160 L 184 160 L 184 152 A 0 0 0 0 1 184 152 M 0 160 L 8 160 L 8 168 L 0 168 L 0 160 M 16 160 L 24 160 L 24 168 L 16 168 L 16 160 A 0 0 0 0 1 16 160 M 24 160 L 32 160 L 32 168 L 24 168 L 24 160 M 32 160 L 40 160 A 0 0 0 0 1 40 160 L 40 168 L 32 168 L 32 160 M 48 160 L 56 160 L 56 168 L 48 168 L 48 160 M 80 168 L 80 168 L 80 168 A 0 0 0 0 1 80 168 M 80 160 L 88 160 L 88 168 L 80 168 L 80 160 A 0 0 0 0 1 80 160 M 88 160 L 96 160 L 96 168 L 88 168 L 88 160 M 112 160 L 120 160 L 120 168 L 112 168 L 112 160 M 120 160 L 128 160 L 128 168 L 120 168 L 120 160 M 128 160 L 136 160 L 136 168 L 128 168 L 128 160 M 136 160 L 144 160 L 144 168 L 136 168 L 136 160 M 144 160 L 152 160 L 152 168 L 144 168 L 144 160 M 152 160 L 160 160 L 160 168 L 152 168 L 152 160 M 160 160 L 168 160 L 168 168 L 160 168 L 160 160 M 184 168 L 184 168 L 184 168 A 0 0 0 0 1 184 168 M 184 160 L 192 160 L 192 168 L 184 168 L 184 160 M 0 168 L 8 168 L 8 176 L 0 176 L 0 168 M 16 168 L 24 168 L 24 176 L 16 176 L 16 168 M 24 168 L 32 168 L 32 176 L 24 176 L 24 168 M 32 168 L 40 168 L 40 176 L 32 176 L 32 168 M 48 168 L 56 168 L 56 176 L 48 176 L 48 168 M 72 168 L 80 168 L 80 176 L 72 176 A 0 0 0 0 1 72 176 L 72 168 A 0 0 0 0 1 72 168 M 80 168 L 88 168 L 88 176 L 80 176 L 80 168 M 88 168 L 96 168 L 96 176 L 88 176 L 88 168 M 96 176 L 96 176 L 96 176 A 0 0 0 0 1 96 176 M 112 176 L 112 176 L 112 176 A 0 0 0 0 1 112 176 M 112 168 L 120 168 L 120 176 L 112 176 L 112 168 M 120 168 L 128 168 L 128 176 A 0 0 0 0 1 128 176 L 120 176 L 120 168 M 128 168 L 128 168 L 128 168 A 0 0 0 0 1 128 168 M 136 168 L 136 168 L 136 168 A 0 0 0 0 1 136 168 M 136 176 L 136 176 L 136 176 A 0 0 0 0 1 136 176 M 136 168 L 144 168 L 144 176 L 136 176 L 136 168 M 144 168 L 144 168 L 144 168 A 0 0 0 0 1 144 168 M 160 168 L 160 168 L 160 168 A 0 0 0 0 1 160 168 M 160 176 L 160 176 L 160 176 A 0 0 0 0 1 160 176 M 160 168 L 168 168 L 168 176 L 160 176 L 160 168 M 168 176 L 168 176 L 168 176 A 0 0 0 0 1 168 176 M 176 168 L 184 168 L 184 176 L 176 176 A 0 0 0 0 1 176 176 L 176 168 A 0 0 0 0 1 176 168 M 184 168 L 192 168 L 192 176 L 184 176 L 184 168 M 192 176 L 192 176 L 192 176 A 0 0 0 0 1 192 176 M 0 176 L 8 176 L 8 184 L 0 184 L 0 176 M 16 176 L 24 176 L 24 184 L 16 184 A 0 0 0 0 1 16 184 L 16 176 M 24 176 L 32 176 L 32 184 L 24 184 L 24 176 M 32 176 L 40 176 L 40 184 A 0 0 0 0 1 40 184 L 32 184 L 32 176 M 48 176 L 56 176 L 56 184 L 48 184 L 48 176 M 64 176 L 72 176 A 0 0 0 0 1 72 176 L 72 184 A 0 0 0 0 1 72 184 L 64 184 A 0 0 0 0 1 64 184 L 64 176 A 0 0 0 0 1 64 176 M 88 176 L 88 176 L 88 176 A 0 0 0 0 1 88 176 M 88 176 L 96 176 L 96 184 L 88 184 A 0 0 0 0 1 88 184 L 88 176 M 96 176 L 104 176 L 104 184 L 96 184 L 96 176 M 104 176 L 112 176 L 112 184 L 104 184 L 104 176 M 112 176 L 120 176 L 120 184 A 0 0 0 0 1 120 184 L 112 184 L 112 176 M 120 176 L 120 176 L 120 176 A 0 0 0 0 1 120 176 M 128 176 L 136 176 L 136 184 L 128 184 L 128 176 A 0 0 0 0 1 128 176 M 136 176 L 144 176 L 144 184 L 136 184 L 136 176 M 152 184 L 152 184 L 152 184 A 0 0 0 0 1 152 184 M 144 184 L 144 184 L 144 184 A 0 0 0 0 1 144 184 M 152 176 L 160 176 L 160 184 L 152 184 L 152 176 A 0 0 0 0 1 152 176 M 160 176 L 168 176 L 168 184 L 160 184 L 160 176 M 168 176 L 176 176 A 0 0 0 0 1 176 176 L 176 184 A 0 0 0 0 1 176 184 L 168 184 L 168 176 M 184 176 L 184 176 L 184 176 A 0 0 0 0 1 184 176 M 184 176 L 192 176 L 192 184 L 184 184 A 0 0 0 0 1 184 184 L 184 176 M 192 176 L 200 176 A 0 0 0 0 1 200 176 L 200 184 A 0 0 0 0 1 200 184 L 192 184 L 192 176 M 0 184 L 8 184 L 8 192 L 0 192 L 0 184 M 8 192 L 8 192 L 8 192 A 0 0 0 0 1 8 192 M 48 192 L 48 192 L 48 192 A 0 0 0 0 1 48 192 M 48 184 L 56 184 L 56 192 L 48 192 L 48 184 M 80 192 L 80 192 L 80 192 A 0 0 0 0 1 80 192 M 80 184 L 88 184 A 0 0 0 0 1 88 184 L 88 192 L 80 192 L 80 184 A 0 0 0 0 1 80 184 M 96 184 L 96 184 L 96 184 A 0 0 0 0 1 96 184 M 88 192 L 88 192 L 88 192 A 0 0 0 0 1 88 192 M 96 184 L 104 184 L 104 192 A 0 0 0 0 1 104 192 L 96 192 A 0 0 0 0 1 96 192 L 96 184 M 104 184 L 104 184 L 104 184 A 0 0 0 0 1 104 184 M 128 184 L 136 184 L 136 192 L 128 192 L 128 184 M 136 184 L 144 184 L 144 192 L 136 192 L 136 184 M 144 184 L 152 184 L 152 192 L 144 192 L 144 184 M 152 184 L 160 184 L 160 192 L 152 192 L 152 184 M 160 184 L 168 184 L 168 192 A 0 0 0 0 1 168 192 L 160 192 L 160 184 M 168 184 L 168 184 L 168 184 A 0 0 0 0 1 168 184 M 0 192 L 8 192 L 8 200 L 0 200 A 0 0 0 0 1 0 200 L 0 192 M 8 192 L 16 192 L 16 200 L 8 200 L 8 192 M 16 192 L 24 192 L 24 200 L 16 200 L 16 192 M 24 192 L 32 192 L 32 200 L 24 200 L 24 192 M 32 192 L 40 192 L 40 200 L 32 200 L 32 192 M 40 192 L 48 192 L 48 200 L 40 200 L 40 192 M 48 192 L 56 192 L 56 200 A 0 0 0 0 1 56 200 L 48 200 L 48 192 M 64 192 L 72 192 L 72 200 L 64 200 A 0 0 0 0 1 64 200 L 64 192 A 0 0 0 0 1 64 192 M 72 192 L 80 192 L 80 200 L 72 200 L 72 192 M 80 192 L 88 192 L 88 200 L 80 200 L 80 192 M 88 192 L 96 192 A 0 0 0 0 1 96 192 L 96 200 A 0 0 0 0 1 96 200 L 88 200 L 88 192 M 112 192 L 120 192 A 0 0 0 0 1 120 192 L 120 200 A 0 0 0 0 1 120 200 L 112 200 A 0 0 0 0 1 112 200 L 112 192 A 0 0 0 0 1 112 192 M 128 192 L 136 192 L 136 200 A 0 0 0 0 1 136 200 L 128 200 A 0 0 0 0 1 128 200 L 128 192 M 136 192 L 136 192 L 136 192 A 0 0 0 0 1 136 192 M 144 192 L 144 192 L 144 192 A 0 0 0 0 1 144 192 M 144 192 L 152 192 L 152 200 A 0 0 0 0 1 152 200 L 144 200 A 0 0 0 0 1 144 200 L 144 192 M 152 192 L 152 192 L 152 192 A 0 0 0 0 1 152 192 M 168 192 L 176 192 A 0 0 0 0 1 176 192 L 176 200 A 0 0 0 0 1 176 200 L 168 200 A 0 0 0 0 1 168 200 L 168 192 A 0 0 0 0 1 168 192 M 192 192 L 200 192 A 0 0 0 0 1 200 192 L 200 200 A 0 0 0 0 1 200 200 L 192 200 A 0 0 0 0 1 192 200 L 192 192 A 0 0 0 0 1 192 192 " fill="#000000"></path></svg>