<svg xmlns="http://www.w3.org/2000/svg" width="100%" viewBox="0 0 436 511" fill="none" class="team-grid__blob-1"><path d="M436 199.141V199.315C435.019 225.786 426.015 251.582 410.908 273.329C402.123 287.217 392.574 300.975 380.039 311.75C374.873 318.564 368.442 324.05 361.422 328.926C357.302 331.473 353.487 334.346 349.476 337.046C344.244 339.985 338.772 342.597 333.213 344.861C325.605 347.887 316.994 347.995 309.058 349.432C308.208 349.606 307.14 349.846 306.595 350.434C305.636 351.37 306.072 352.893 306.464 354.047C307.816 357.748 309.146 361.361 310.606 364.844C314.312 372.616 316.492 380.866 317.43 389.465C319.152 403.985 316.187 418.439 310.911 431.892C304.459 447.348 292.316 459.669 279.628 470.227C263.845 481.177 246.907 490.537 228.922 497.242C222.294 500.246 215.318 502.336 208.233 503.903C204.048 505.471 199.993 506.864 195.524 507.277C186.019 508.388 176.754 511.152 167.053 511C154.562 511.043 141.765 509.367 130.298 504.186C127.661 503.163 125.306 501.618 123.279 499.658C119.268 495.936 114.668 492.671 111.725 487.947C104.465 475.626 103.572 460.148 106.166 446.412C107.67 438.271 108.302 429.846 110.94 421.922C113.73 414.499 116.87 407.272 119.769 399.849C121.535 395.8 118.374 396.453 115.823 397.476C105.861 401.046 95.9416 405.073 85.4994 406.88C76.5614 408.926 67.3836 407.903 58.4674 406.88C54.2382 406.662 49.9872 406.118 45.976 404.812C34.9234 401.416 25.2442 394.145 17.2654 385.917C9.91877 376.317 4.97017 365.149 2.63757 353.329C-0.654231 342.074 -0.458031 330.014 0.849969 318.433C0.762769 290.439 16.0664 256.284 34.1386 235.103C39.8502 226.656 47.8072 219.864 56.1566 214.096C62.4568 210.852 68.3864 206.586 75.515 204.975C84.9326 203.494 94.5464 202.188 104.008 203.429C116.325 205.932 128.642 209.677 139.672 215.75C152.36 224.697 145.188 209.524 143.248 203.581C138.277 189.932 135.465 175.63 131.715 161.611C129.819 152.773 128.816 143.783 128.009 134.792C126.767 128.37 126.331 121.883 125.917 115.374C125.306 102.727 127.312 90.1662 128.227 77.6274C131.04 65.1974 134.266 52.898 139.869 41.2953C154.104 10.9279 189.093 -21.1593 214.446 18.3075C221.488 32 226.872 47.0422 229.27 62.2804C229.728 68.7239 231.254 75.0586 231.843 81.5022C232.017 86.9879 231.93 92.4736 232.235 97.9594C232.322 109.344 231.974 120.795 231.93 132.202C232.039 134.117 228.595 150.183 233.805 142.607C241.435 129.35 246.798 114.721 255.932 102.313C261.077 95.456 266.527 88.7512 272.325 82.4382C275.617 79.5865 278.647 77.3879 281.503 73.992C292.621 66.1552 304.764 56.4899 319.239 60.8219C343.197 70.7702 308.644 125.715 300.469 140.321C297.548 145.546 294.561 150.814 290.921 155.581C288.654 158.716 290.376 158.672 292.861 157.17C304.371 150.509 316.536 144.653 329.485 141.366C349.476 133.53 371.755 131.331 392.879 135.315C401.599 138.362 409.949 142.498 417.143 148.376C422.571 152.49 425.47 158.564 428.37 164.55C431.378 168.686 432.403 173.671 433.427 178.678C434.757 185.339 436.022 192.458 435.891 199.162L436 199.141Z" fill="#2D7864"></path></svg>