<svg width="158" height="144" viewBox="0 0 158 144" fill="none" xmlns="http://www.w3.org/2000/svg">
<path d="M156.689 95.5797C155.418 103.928 152.48 111.899 149.363 119.728C145.138 130.044 139.364 140.404 127.563 142.768C119.33 144.827 111.873 142.618 103.873 140.539C99.3232 139.351 94.777 138.38 90.2427 137.18C85.7321 135.917 81.2889 134.646 76.7269 133.549C71.0917 132.179 65.6307 130.551 60.2767 128.722C55.6355 127.165 50.7883 125.874 46.3134 123.823C37.3161 119.708 29.0395 112.462 26.9209 102.407C25.8477 96.2568 25.6457 93.8491 20.5649 89.5682C18.767 88.0674 16.985 86.5982 15.0247 85.3626C12.9972 84.0795 10.8785 82.9826 8.91824 81.5807C3.85328 78.1077 -0.356279 71.9696 0.0238893 65.8393C0.558502 59.5388 5.31459 54.1016 10.7835 51.0959C15.8009 48.2843 19.258 48.8308 16.8464 41.8729C13.6624 31.9647 9.55187 21.2289 12.7397 10.8297C14.6643 4.10151 21.2817 -0.638713 28.295 0.0701432C33.5698 0.509713 38.2823 3.87183 41.6999 7.82005C42.4998 8.71503 43.2681 9.64565 44.0165 10.5881C45.3947 12.2157 46.8044 14.5958 48.8201 15.0512C50.5547 15.3917 52.1308 13.5859 53.4653 12.4019C60.4628 5.47172 70.8343 7.02406 76.4259 14.968C78.5881 18.2232 80.3464 21.0982 84.358 22.1595C91.3396 23.6089 97.4936 27.9967 99.6519 34.9704C100.943 39.2632 100.662 44.2133 104.725 47.0843C107.144 48.8822 110.134 49.0407 113.033 48.6446C121.919 47.219 131.832 49.8921 138.496 56.0975C141.435 58.8775 142.94 62.6594 145.506 65.7562C147.486 68.3223 149.846 70.5242 151.668 73.2051C156.836 80.3492 158.257 86.8001 156.689 95.4965L156.677 95.5757L156.689 95.5797Z" fill="#2D2D2D"/>
<path d="M142.025 82.0558C140.999 80.3055 139.265 79.0739 138.314 77.2602C138.096 76.8404 137.867 76.377 137.483 76.088C137.094 75.7949 136.592 75.7276 136.128 75.6247C134.647 75.3118 133.515 74.2862 132.184 73.6486C131.325 73.1892 130.386 72.9001 130.604 71.7081C131.637 67.1897 130.339 64.8136 126.394 62.687C124.054 61.2812 121.306 60.7545 118.629 60.208C117.151 59.915 115.579 60.0021 114.094 60.1169C111.635 60.6278 110.847 63.4672 109.904 65.4829C109.207 67.1461 108.38 67.9658 106.843 66.6709C105.572 65.6571 104.352 64.6354 103.259 63.4474C101.616 61.5188 100.143 59.4437 97.9015 58.1685C96.1907 57.2419 94.8799 55.6618 93.28 54.6243C89.8783 52.7749 86.0291 51.8206 82.267 51.2741C80.2434 51.0008 78.1802 50.9414 76.0892 51.0048C74.4577 50.8701 73.0162 51.2186 71.4678 51.7017C66.9494 52.6918 62.3834 54.3708 59.1321 57.7567C57.6154 59.6021 56.0908 60.4139 53.7741 59.3883C52.5782 59.0279 51.2595 59.1031 50.0081 59.1586C48.7092 59.0992 47.2518 59.2655 46.5271 60.5169C45.6005 62.295 45.2441 64.3622 44.5115 66.2274C43.8145 68.3421 43.066 70.429 42.3889 72.5477C41.5652 74.9673 41.3592 77.5809 39.997 79.8025C39.7197 80.2777 39.5178 80.7886 39.4109 81.3311C38.7258 84.7566 38.0724 88.194 37.3754 91.6234C37.1932 92.7481 36.5358 93.7698 36.6388 94.9301C36.9635 97.6309 37.0784 100.518 38.1397 103.056C39.0188 104.763 40.6583 105.967 41.8543 107.468C42.4206 108.188 43.0739 108.846 43.858 109.325C46.4915 110.929 49.022 112.794 51.9684 113.788C57.5085 115.447 63.0012 117.269 68.4898 119.079C69.7056 119.487 70.8619 120.049 72.1331 120.251C74.1765 120.512 76.1407 121.007 78.0693 121.748C80.477 122.619 83.0709 122.766 85.538 123.415C87.0864 123.787 88.4725 124.583 89.9694 124.995C92.6543 125.759 95.4343 126.266 98.1509 126.92C103.774 128.29 109.406 129.755 115.005 131.173C118.26 131.973 121.662 131.668 124.822 130.642C127 129.989 129.285 129.054 130.481 127.015C132.049 124.674 133.93 122.465 134.608 119.613C134.786 118.362 135.693 117.415 136.382 116.433C136.984 115.376 137.245 114.156 137.673 113.024C138.726 109.749 140.061 106.509 141.288 103.27C141.656 102.003 141.625 100.621 142.064 99.3733C142.278 98.7001 142.777 98.1338 142.896 97.4646C143.114 95.9083 143.05 94.2767 143.375 92.764C144.722 88.8395 144.187 85.6753 142.056 82.1271L142.017 82.0638L142.025 82.0558ZM113.239 66.7778C113.71 65.859 114.114 64.5562 114.803 63.8711C116.11 63.0949 117.833 63.4355 119.223 63.8196C121.238 64.4809 127.091 66.4214 127.333 68.7143C127.372 69.439 127.384 70.3855 127.119 71.122C127 71.3002 126.992 71.2606 126.862 71.3319C126.644 71.3992 126.406 71.3557 126.173 71.3121C123.056 70.6191 119.935 69.8865 116.815 69.2172C115.975 69.0192 115.227 69.1459 114.308 69.0667C112.93 68.9677 112.637 68.0609 113.207 66.857L113.239 66.7817V66.7778ZM98.5905 79.4065C100.095 75.8504 100.757 72.1081 100.879 68.1955C100.891 67.9381 100.911 67.6411 101.097 67.4906C101.873 66.9798 103.093 70.2073 103.204 70.7854C103.691 73.2565 104.079 75.8227 103.422 78.3373C103.125 79.4541 102.713 80.5233 102.487 81.6598C101.905 84.618 100.353 87.1643 99.0103 89.8057C98.0678 91.7818 96.4322 93.2075 94.9432 94.7836C94.4799 95.2984 94.0205 95.8013 93.4107 96.1498C89.7516 98.2882 85.8588 100.605 81.4631 100.435C78.8019 100.304 76.1764 99.6426 73.7132 98.6447C72.4697 98.1497 71.2223 97.5952 70.0224 97.0329C69.4363 96.7478 68.8027 96.3082 68.5849 95.6706C68.5294 95.4132 68.767 95.2984 69.1551 95.2904C69.9907 95.2746 70.8461 95.2667 71.6856 95.2904C74.3151 95.5162 76.8813 95.2469 79.4276 94.5777C80.4889 94.3757 81.6136 94.3836 82.6432 94.0351C83.8114 93.6391 84.7936 92.8709 85.8786 92.3006C88.1953 91.1205 90.5673 89.8929 92.4761 88.1266C94.9789 85.6358 97.1253 82.737 98.5628 79.4739L98.5945 79.4026L98.5905 79.4065ZM56.2294 72.2942C56.6056 69.2291 56.8036 65.8591 58.8589 63.384C59.9756 62.2475 60.7875 60.7664 62.0191 59.7803C66.1257 57.2261 70.5055 55.2064 75.4517 54.9253C78.0297 54.7866 80.4929 55.1628 83.0392 55.1628C85.3994 55.2737 87.3121 56.3627 89.2486 57.527C90.6426 58.323 92.088 59.2615 93.1652 60.4971C94.6264 62.2316 96.0521 64.1206 96.7847 66.263C97.4104 68.9875 96.757 71.8309 96.0244 74.4881C95.4977 76.6226 94.4641 78.563 93.3671 80.4678C91.6445 83.5013 88.809 85.3705 85.9301 87.1169C84.9361 87.7307 84.148 88.59 83.063 89.0415C80.3622 90.2414 77.8673 91.4967 75.123 91.2591C72.3985 91.1918 69.5195 91.5403 67.0682 90.6096C65.599 90.0117 63.9357 89.7701 62.6645 88.784C61.3894 87.7544 60.3558 86.3803 59.2866 85.0734C58.4352 84.0319 57.5085 83.0221 56.9264 81.842C55.3146 78.9036 56.0195 75.4939 56.2294 72.3734V72.2982V72.2942ZM41.0345 98.7595C40.2068 98.1417 40.1712 97.0923 40.0802 96.0983C39.597 93.057 40.785 90.1621 41.7077 87.3227C43.6244 81.6479 44.0957 75.4029 47.0697 70.1201C47.8459 68.5955 48.3092 66.9718 48.8953 65.3522C49.1686 64.6433 49.4378 63.7602 50.0477 63.2731C50.713 62.7623 51.9287 62.889 52.899 62.8653C53.5128 62.9009 54.3959 62.7543 54.8037 63.3167C54.9424 63.5859 54.8988 63.7444 54.8473 64.0176C54.2572 65.9897 53.3227 67.7678 52.6851 69.732C52.3406 71.2052 52.4 72.7258 52.1188 74.2109C51.7466 76.4325 52.5148 78.5908 53.1009 80.5708C53.592 82.2499 53.9088 84.1349 55.1325 85.6199C55.9997 86.5109 56.2294 87.7346 56.7996 88.8078C58.3599 91.1957 60.1895 93.4371 62.6289 95.0014C64.1377 95.7538 64.6525 97.6071 65.9475 98.5654C67.0127 99.4802 68.28 100.102 69.567 100.648C72.5014 101.833 75.3963 103.135 78.501 103.781C83.3125 104.747 88.1002 102.846 92.4603 101.009C92.8919 100.839 93.3077 100.629 93.676 100.347C94.9037 99.3416 96.1946 98.3437 97.3708 97.2626C100.305 94.3519 102.44 90.7285 104.356 87.0693C106.285 83.228 106.42 78.9868 106.994 74.8366C107.184 73.8268 107.049 72.9635 106.748 71.9418C106.602 71.4547 106.74 71.0864 107.319 71.2091C110.015 71.7319 112.783 72.0368 115.488 72.5477C118.981 73.1615 122.335 74.2703 125.662 75.5257C127.634 76.286 129.566 77.1097 131.534 77.9215C132.568 78.3531 133.578 78.963 134.113 79.9689C134.778 81.3707 134.841 83.1726 134.754 84.717C134.679 85.5526 134.216 86.3565 134.136 87.1446C134.069 87.7425 134.113 88.3564 133.962 88.9464C133.867 89.3385 133.701 89.7067 133.534 90.0711C132.481 92.3125 132.323 94.8786 131.158 97.0963C130.232 98.8427 130.152 100.898 129.293 102.68C128.184 104.985 127.305 107.393 126.367 109.769C125.337 112.311 124.149 114.798 123.004 117.305C122.593 118.164 121.757 118.406 120.882 118.445C117.246 118.655 113.631 118.346 110.079 117.673C105.62 116.295 101.165 114.917 96.5312 114.243C94.571 113.879 92.686 113.19 90.7416 112.719C85.3677 111.547 79.9979 110.398 74.7111 108.893C68.3988 107.373 62.027 106.078 55.8809 103.943C52.1268 102.83 48.3211 101.797 44.5828 100.613C43.3353 100.225 42.1552 99.5476 41.1137 98.7952L41.0583 98.7476L41.0345 98.7595ZM140.001 93.1678C139.672 94.843 138.75 96.4389 139.027 98.2011C139.071 98.5298 139.09 98.8704 139.011 99.1872C138.191 100.945 137.772 102.842 137.233 104.708C136.94 105.713 136.287 106.577 136.053 107.602C135.784 108.759 135 109.753 134.58 110.866C134.259 111.634 134.362 112.513 133.986 113.257C133.324 114.481 133.134 115.974 132.338 117.142C131.895 117.839 131.075 118.251 130.679 118.948C130.41 119.407 130.323 119.958 130.18 120.465C129.772 122.029 128.465 123.019 127.606 124.278C127.372 124.607 127.095 124.896 126.743 125.094C125.147 125.807 123.591 126.698 121.86 127.019C119.634 127.276 117.365 127.221 115.14 127.141C114.063 127.078 113.001 126.841 111.964 126.551C110.122 126.013 108.206 125.886 106.344 125.427C104.447 124.944 102.729 123.95 100.828 123.486C98.7054 122.845 96.456 122.639 94.3334 122.104C92.0801 121.502 89.8347 120.877 87.5379 120.465C85.3202 120.029 83.1422 119.091 80.9285 118.568C79.5464 118.235 78.0535 118.184 76.6556 117.772C72.9449 116.663 69.3532 115.024 65.4723 114.628C64.6288 114.643 64.0268 114.053 63.2823 113.776C61.9042 113.483 60.5419 113.261 59.2668 112.719C55.9205 111.337 52.5822 109.808 49.2755 108.394C47.8776 107.86 46.6262 107.792 45.9569 106.109C45.8064 105.773 45.5728 105.436 45.6124 105.064C45.6678 104.977 45.6758 104.993 45.7233 104.969C46.4757 104.921 47.244 105.242 47.9528 105.393C52.396 106.798 56.9779 107.789 61.5993 108.497C63.7179 108.996 65.8088 109.951 67.9196 110.485C72.4064 111.281 76.7783 112.454 81.0156 114.148C89.3991 116.164 97.7391 118.532 106.146 120.453C107.861 120.797 109.485 121.483 111.199 121.839C112.324 122.172 113.548 121.823 114.668 122.144C116.478 123.13 118.514 122.975 120.47 122.706C124.038 122.473 126.248 120.892 127.301 117.372C128.077 115.012 128.976 112.735 129.891 110.43C132.228 104.771 133.788 98.8229 136.433 93.2946C136.702 92.7521 136.829 92.166 136.813 91.564C136.766 89.4652 137.851 87.5445 138.077 85.509C138.156 84.3883 139.027 84.1785 139.704 85.1408C140.991 87.5406 140.433 90.5067 140.029 93.0966L140.013 93.1718L140.001 93.1678Z" fill="#F0EBE6"/>
<path d="M87.6805 40.6808C87.5815 42.5619 85.7321 44.1023 84.6946 41.8411C83.8788 39.5759 82.1839 37.4098 79.5663 37.4533C75.6893 37.5048 71.7451 42.0629 67.979 39.0968C66.6643 37.3306 65.9713 35.1129 65.1159 33.0933C64.7674 32.1706 64.609 31.2004 64.4189 30.2301C64.1338 29.2718 64.0546 28.3372 64.011 27.3591C63.8685 26.4601 63.3972 25.7552 62.827 25.0186C62.423 24.4919 62.0785 24.5791 61.7934 25.1731C60.4074 27.6204 59.548 30.0044 59.1282 32.6893C58.562 34.3209 57.7264 35.9049 57.3304 37.6078C55.9404 42.8866 50.7606 47.4209 46.6856 41.4966C44.666 38.7998 42.4958 36.198 40.9475 33.1764C40.4326 32.424 39.5496 32.0241 38.9318 31.3667C38.1833 30.5945 37.5853 29.6757 36.9319 28.8203C35.2568 26.5275 33.9104 23.993 31.9303 21.906C31.364 21.1496 30.9324 20.2665 30.3106 19.5577C29.3602 18.4845 28.2276 17.5895 27.1228 16.6391C26.9287 16.4728 26.7149 16.3223 26.4654 16.3064C25.8714 16.2906 25.8318 17.0588 25.8793 17.5618C25.9665 19.0429 25.8595 20.5437 26.0694 22.0169C26.2476 23.1574 26.6238 24.2504 26.8495 25.383C28.5088 31.933 30.6512 38.2968 33.0115 44.6171C33.2451 45.3418 33.8233 45.8408 34.1876 46.4863C35.237 48.9455 36.0528 51.5236 36.9398 54.0461C37.5774 55.8757 36.9597 58.03 35.2212 59.02C31.3284 61.7841 26.6673 61.9386 22.2241 62.9445C21.5984 63.1187 20.9767 63.388 20.3788 63.6494C18.9175 64.2988 17.3374 64.5641 15.7533 64.9918C12.1576 65.7997 15.3613 68.2589 17.0008 69.2568C21.2143 71.4626 25.2774 73.8782 29.1662 76.6305C29.7444 77.0424 30.2988 77.5611 30.6354 78.1749C31.1621 79.1848 31.9541 81.7311 30.4611 82.139C29.6097 82.3014 28.3742 82.436 28.0257 81.3628C26.9129 78.8125 25.9229 77.8621 23.3845 76.8998C19.9431 74.8049 16.1771 73.2486 12.9338 70.829C6.40357 65.3324 14.9217 60.9565 19.9986 59.6299C22.3904 58.9448 24.9448 58.9408 27.3683 58.3587C28.6752 58.0458 29.9146 57.3568 31.1383 56.8103C31.9145 56.3747 33.5738 56.1568 33.1302 54.9213C32.6313 53.2145 32.1481 51.4325 31.5937 49.6781C31.1502 48.6921 30.9641 47.7218 30.7581 46.6922C29.1741 43.8964 27.6495 41.0452 27.0079 37.8612C26.905 37.4336 26.7585 37.0296 26.5723 36.6297C24.6359 32.5626 24.2002 27.9887 22.6043 23.7871C21.9668 21.6644 22.3271 19.3557 22.4855 17.2212C22.4736 16.2154 22.3588 15.1818 22.6994 14.2076C23.3132 12.3622 25.1942 11.3326 27.0436 12.0177C28.2712 12.5443 29.3286 13.4116 30.3384 14.2591C31.2571 15.0075 31.7917 16.1559 32.4135 17.0905C33.0233 17.8667 33.8668 18.532 34.4648 19.3557C36.7775 22.4089 39.1773 25.4186 41.3514 28.5669C41.9335 29.4975 42.2543 30.6103 42.8641 31.5251C43.1017 31.8458 43.4542 32.0795 43.7829 32.3131C46.0283 33.8734 47.2163 36.4118 49.0736 38.3048C50.8437 40.1898 52.5228 40.9778 53.497 37.9285C54.3128 35.9168 55.3543 33.9685 55.4295 31.7389C55.4454 31.2122 55.4968 30.6816 55.7384 30.2103C56.8037 28.5154 57.0334 26.4839 57.8887 24.7098C58.5382 23.4346 59.3421 22.2268 60.2054 21.0863C60.7281 20.3576 61.5281 19.8072 62.4428 19.7438C63.3893 19.6369 64.0269 20.1992 64.6605 20.8249C65.3891 21.5259 66.0861 22.2901 66.5099 23.1336C67.8484 26.2819 67.7335 29.9014 68.779 33.1685C68.9928 33.8497 69.0998 34.5704 69.4918 35.1565C70.7472 36.7682 73.246 36.3089 74.6993 35.2119C75.9626 34.3961 77.4357 34.2575 78.802 34.0952C83.1185 33.3546 87.3597 35.8218 87.6686 40.6095V40.6848L87.6805 40.6808Z" fill="#F0EBE6"/>
<path d="M126.43 83.4697C125.016 80.9867 122.719 79.1254 119.868 78.7572C116.716 77.6404 114.399 77.0504 112.265 80.2898C110.039 83.2083 111.14 85.921 112.471 88.9901C112.748 89.5762 113.354 89.8692 113.88 90.2217C116.118 91.671 118.522 92.3482 120.688 92.2492C122.391 92.273 124.28 91.5126 125.278 90.1068C125.737 89.39 125.729 88.5069 125.923 87.5842C126.014 87.0654 126.109 86.5467 126.24 86.0358C126.438 85.1725 126.913 84.3409 126.466 83.5331L126.434 83.4657L126.43 83.4697ZM122.795 86.2061C122.561 87.2041 121.698 89.4653 120.387 89.1445C118.664 88.4792 117.005 87.8099 115.373 87.0773C114.803 86.8001 114.138 86.4516 113.944 85.8101C113.754 84.7528 114.28 82.6777 115.29 82.1272C117.021 81.351 119.488 81.8183 121.064 82.947C122.363 83.6677 123.305 84.5468 122.814 86.123L122.795 86.2061Z" fill="#F0EBE6"/>
<path d="M92.6109 69.1817C92.5515 66.3106 90.4724 63.9425 88.5676 61.9941C85.0748 58.2399 80.4138 57.2935 75.6142 57.638C73.943 57.737 72.2798 58.0261 70.7195 58.6399C69.4721 59.0676 68.3989 59.9507 67.2148 60.5486C65.2863 61.2733 64.0032 62.9089 62.4865 64.2078C62.0073 64.5959 61.6073 65.0671 61.4014 65.6532C60.8945 67.1382 59.7065 68.4332 59.4372 70.0014C59.2986 70.6112 59.5125 71.2924 59.4372 71.8904C59.3778 72.3735 59.0729 72.7893 58.9858 73.2645C58.7719 75.4584 59.3857 77.6562 60.5064 79.5531C62.4033 83.2717 65.8446 85.8497 69.9156 86.6892C71.5392 87.0219 73.2223 87.3466 74.8855 87.2793C76.9448 86.8991 78.8179 85.8418 80.8969 85.5844C82.4572 85.3943 83.8987 84.7052 85.154 83.7548C86.6866 82.6856 88.1043 81.4659 89.2686 79.9888C91.0783 77.6127 92.4842 75.102 92.7931 72.2151C92.9 71.2528 92.5555 70.2113 92.603 69.245V69.1856L92.6109 69.1817ZM86.8846 66.0017C84.2789 67.8907 82.2355 70.3538 80.2792 72.8725C78.4338 75.1574 76.6003 77.4503 74.7905 79.7591C74.0262 80.7095 73.4084 81.7153 72.6956 82.7172C72.4738 83.0024 72.2838 83.1568 71.959 83.1964C70.9848 83.1964 69.9117 83.2321 69.0484 82.6499C67.7297 81.4817 65.809 81.3589 64.8269 79.8977C64.6368 79.7036 64.4071 79.3314 64.4428 79.0581C64.5339 78.6265 64.9299 78.3414 65.1754 77.9889C66.102 76.7969 67.0089 75.5455 67.8761 74.3654C69.8839 72.2151 71.8125 69.9737 73.6935 67.7165C74.5093 66.77 75.5587 66.0809 76.5527 65.3364C77.8437 64.3622 78.7585 63.3445 79.9663 62.1248C80.291 61.7763 80.7187 61.5229 81.1939 61.6694C83.1383 62.3466 85.4035 62.6634 86.8569 64.5365C87.1816 64.9444 87.34 65.5621 86.9242 65.9502L86.8727 66.0017H86.8846Z" fill="#F0EBE6"/>
</svg>
