<svg xmlns="http://www.w3.org/2000/svg" width="100%" viewBox="0 0 24 24" fill="none" data-icon-name="Activation" class="type__icon-svg"><path d="M10.9 0.999954C11.3556 0.999954 11.725 1.36932 11.725 1.82496V3.74997C11.725 4.2056 11.3556 4.57497 10.9 4.57497C10.4443 4.57497 10.075 4.2056 10.075 3.74997V1.82496C10.075 1.36932 10.4443 0.999954 10.9 0.999954Z" fill="currentColor"></path><path d="M17.9802 3.81884C18.3024 4.14102 18.3024 4.66338 17.9802 4.98557L16.5384 6.4273C16.2162 6.74948 15.694 6.74948 15.3718 6.4273C15.0496 6.10511 15.0496 5.58275 15.3718 5.26057L16.8134 3.81884C17.1356 3.49665 17.658 3.49665 17.9802 3.81884Z" fill="currentColor"></path><path d="M6.42823 16.5388C6.75041 16.2167 6.75041 15.6943 6.42823 15.3721C6.10604 15.0499 5.58368 15.0499 5.2615 15.3721L3.81977 16.8138C3.49758 17.136 3.49758 17.6584 3.81977 17.9805C4.14195 18.3027 4.66431 18.3027 4.9865 17.9805L6.42823 16.5388Z" fill="currentColor"></path><path d="M4.57502 10.9C4.57502 11.3556 4.20564 11.725 3.75001 11.725H1.825C1.36937 11.725 1 11.3556 1 10.9C1 10.4444 1.36937 10.075 1.825 10.075H3.75001C4.20564 10.075 4.57502 10.4444 4.57502 10.9Z" fill="currentColor"></path><path d="M5.26125 6.42808C5.58344 6.75026 6.1058 6.75026 6.42798 6.42808C6.75017 6.10589 6.75017 5.58353 6.42798 5.26135L4.98625 3.81962C4.66407 3.49742 4.14171 3.49742 3.81952 3.81962C3.49734 4.1418 3.49734 4.66416 3.81952 4.98635L5.26125 6.42808Z" fill="currentColor"></path><path d="M9.32792 7.69133C8.31574 7.29369 7.30288 8.26251 7.68076 9.26684L12.5445 22.1927C12.9174 23.1834 14.3019 23.2877 14.8242 22.3645L17.5058 17.6238L22.3528 14.979C23.2792 14.4735 23.193 13.1384 22.209 12.7518L9.32792 7.69133Z" fill="currentColor"></path></svg>