<svg xmlns="http://www.w3.org/2000/svg" width="100%" viewBox="0 0 139 121" fill="none" data-scroll-animation="sticker" class="team-grid__sticker-2-svg" style=""><path d="M138.464 56.6095C138.108 64.7237 134.687 72.9884 128.35 78.1999C124.038 81.5422 118.902 83.6846 114.347 86.6626C110.34 89.2763 105.98 91.5533 102.495 94.8125C100.277 96.84 98.5111 99.2755 96.5944 101.576C93.6204 105.18 89.6365 107.766 85.3834 109.694C81.7955 111.326 78.0414 112.649 74.113 113.365C71.2379 113.892 68.3471 114.264 65.5077 114.965C58.9537 116.585 52.5265 119.745 45.6874 119.955C32.8528 121.005 19.5191 115.603 11.0802 105.798C4.78758 98.7567 0.835411 89.9534 0.174076 80.5878C-0.277375 75.0279 0.0750734 69.3372 2.03532 64.2208C4.91827 56.9936 10.3911 50.7683 17.0124 46.6973C20.3705 44.6975 23.6772 42.6818 24.3663 38.789C24.8415 36.6783 24.889 34.3023 25.4711 32.1678C26.3424 28.4334 29.5104 25.7485 31.9142 23.0952C33.2844 21.5626 34.413 19.8638 35.2724 17.9946C37.2168 13.5276 38.4523 8.97747 42.848 6.17373C48.2258 2.36016 53.8214 4.90254 59.619 3.36602C65.571 1.60378 69.3054 -1.73458 75.998 1.09689C78.1087 1.97207 79.9224 3.60363 81.4272 5.25499C83.3202 7.25483 85.1181 9.36952 87.9258 9.36556C89.5415 9.40912 91.4621 8.80719 93.6323 8.19337C99.7942 6.45489 106.693 6.06284 112.922 7.80528C120.676 9.80909 126.707 15.3334 130.909 22.2002C137.265 32.1915 139.209 44.9985 138.468 56.5303V56.6055L138.464 56.6095Z" fill="#4B69F0"></path><path d="M126.56 47.0894C126.121 43.7431 125.285 40.484 124.683 37.1614C124.533 36.3892 124.335 35.617 124.058 34.8844C122.458 31.0589 120.058 27.6018 117.623 24.2199C116.66 22.8734 115.306 21.9745 113.856 21.2062C111.235 19.5866 108.059 18.6718 105.113 18.7906C100.939 18.7985 96.7132 19.4361 92.8957 21.2696C91.6324 21.9111 90.7018 23.1427 89.9217 24.2595C89.1494 25.4515 88.6822 26.786 88.7693 28.3384C88.7653 29.3521 89.3831 30.7461 88.2386 31.3599C86.6704 32.0886 84.8884 32.5757 83.3044 33.3043C79.6848 34.9002 76.295 37.3001 73.0398 39.5929C71.733 40.4206 70.2558 41.0344 69.1312 42.1274C67.9511 43.2006 67.0046 44.5312 66.0542 45.937C65.8562 46.2103 65.6146 46.4835 65.3295 46.6459C64.9176 46.8954 64.3711 46.8874 63.8801 46.8043C61.1318 46.3449 58.3518 45.9014 55.5401 45.5291C54.0551 45.3153 52.5661 45.541 51.0692 45.4816C48.9783 45.3668 46.9151 44.9113 44.8043 45.1252C42.1154 45.2242 40.3334 47.5488 37.9613 48.4833C35.7674 49.4536 34.0646 51.1921 32.3221 52.7761C31.8192 53.2196 31.2648 53.5681 30.643 53.8097C28.0729 54.8116 25.2811 55.3779 22.81 56.6253C21.9031 57.152 21.3329 58.1064 20.5448 58.7994C20.1409 59.1637 19.6855 59.4726 19.2578 59.8092C18.248 60.5577 17.5312 61.5754 16.656 62.4744C15.1353 63.9752 14.2839 65.9632 13.1988 67.765C12.8068 68.4343 12.5415 69.1709 12.4187 69.9352C11.991 72.2558 11.698 74.6279 11.9712 77.0039C12.1098 79.0275 12.0306 81.0709 12.3791 83.0668C12.5494 84.0846 12.8781 85.0746 13.2464 86.0369C14.3156 88.7892 15.2502 91.6563 17.056 93.9611C18.1688 95.3708 19.4003 96.6816 20.525 98.0835C23.3486 101.414 27.0512 103.853 31.043 105.58C34.2705 106.883 37.7079 107.421 41.1571 107.817C43.5411 108.146 45.8696 107.552 48.2219 107.128C49.9049 106.843 51.6672 106.835 53.275 106.198C56.8311 104.859 59.7299 101.62 63.5593 100.923C64.68 100.82 65.8879 101.41 67.0165 101.636C67.8521 101.814 68.7114 101.881 69.5668 101.85C72.0339 101.731 74.3783 100.772 76.6989 99.9962C79.1304 99.1131 81.5144 98.1271 83.8231 96.9351C86.5041 95.6322 88.4049 93.5452 89.5415 90.8682C91.1374 88.2229 91.0503 84.9914 88.3733 83.1104C86.813 82.1877 87.8862 80.8096 88.9673 79.8671C92.5393 77.2217 91.0661 83.5816 100.951 80.7066C102.887 80.2235 104.332 78.8097 105.944 77.697C108.055 76.3149 109.334 73.8596 111.263 72.3271C112.518 71.6776 114.229 71.7766 115.639 71.5034C119.325 71.1707 121.25 69.3095 123.234 66.3394C125.895 63.203 126.184 61.4764 126.287 57.4411C126.541 54.0235 126.968 50.5703 126.576 47.1646L126.564 47.0894H126.56ZM91.3869 48.622C92.5393 46.3924 92.6502 43.7946 93.3788 41.4265C93.7154 40.5156 94.6777 41.0859 94.9629 41.7354C95.2084 42.2264 95.2242 42.7412 95.1925 43.2877C95.0143 45.6638 94.1708 47.9171 92.6145 49.6714C91.7829 50.6178 91.1057 49.6635 91.3671 48.6893L91.3869 48.622ZM83.9657 66.4384C83.5459 64.1218 85.0666 63.2822 86.6902 62.1021C88.1079 61.025 89.7395 60.2409 91.0899 59.0885C91.9611 58.4192 92.4799 57.4252 93.165 56.5936C94.0362 55.6986 95.5292 55.7303 96.7013 55.4056C99.1843 54.6769 97.723 56.8589 97.0538 57.9163C94.4639 61.2269 91.5493 64.3633 88.1198 66.8661C86.6427 67.8205 83.9063 69.757 83.9657 66.5176L83.9578 66.4384H83.9657ZM71.725 44.9747C73.6021 43.6204 75.3644 42.0482 77.1781 40.5869C78.9878 39.5573 80.9639 38.8049 82.7658 37.7634C83.7637 37.1931 84.7221 36.4684 85.8269 36.116C86.6387 35.8586 87.5139 35.6051 88.3099 35.3358C90.1553 34.8488 89.5613 38.195 89.395 39.1257C89.193 40.3968 88.0485 41.1215 87.0427 41.767C85.6289 42.6977 84.2231 43.561 82.8133 44.4757C81.9302 45.1569 80.1957 45.9053 80.3541 47.2122C80.5085 47.8695 81.352 48.8239 82.2034 48.7368C83.8271 48.3527 84.9795 46.8716 86.7338 46.4795C87.5575 46.2459 87.8981 46.7013 87.6803 47.4973C85.7754 54.3403 90.1672 55.1165 87.4664 57.2114C86.5199 57.948 85.526 58.5578 84.6072 59.3538C84.0409 59.8211 83.4984 60.3636 82.8489 60.7042C82.0926 61.314 77.8394 61.6705 78.2988 60.0072C78.5522 59.2627 79.0868 58.4588 79.3482 57.6708C80.8016 54.1423 78.7819 49.9446 75.1545 48.8041C74.0734 48.416 72.8695 48.1705 71.7844 47.8735C71.1508 47.6913 70.3073 47.5448 70.1014 47.1726C69.7806 46.4914 71.1271 45.5489 71.6656 45.0222L71.725 44.9747ZM68.6481 74.7942C69.7569 74.0378 70.6875 73.0478 71.6102 72.0776C72.3389 71.3054 73.1903 70.4975 73.1269 69.5035C73.0398 68.3155 72.1844 67.3373 71.832 66.2364C71.7092 65.8404 71.725 65.4642 71.923 65.1435C72.8655 63.999 74.4654 63.4485 75.9227 63.3773C79.5383 63.3218 81.4312 66.1295 79.9185 69.4124C79.2017 70.9054 77.7365 72.0142 76.4296 72.9765C74.0496 74.6873 71.4241 76.002 69.052 77.7128C66.3195 79.9106 62.9218 80.7858 59.4765 81.1502C58.1617 81.1937 56.7638 81.859 55.5085 81.6174C54.6808 81.36 53.4453 80.8373 53.1918 80.1047C52.9027 78.9404 54.5264 76.8218 55.4887 76.6238C56.4351 76.3347 58.0508 76.9841 59.3339 77.1901C62.5852 77.7841 65.8522 76.695 68.5807 74.8457L68.6441 74.8021L68.6481 74.7942ZM61.2981 67.9472C60.5734 67.5552 60.2329 66.1968 61.314 66.1454C63.5197 66.6166 65.7136 67.3057 67.6659 68.5689C67.86 68.6996 68.0818 68.8857 68.1293 69.0996C68.1491 69.0917 68.1372 69.3332 68.1174 69.3174L68.0659 69.4164C67.6184 69.8956 66.9254 69.5827 66.3393 69.5471C64.6008 69.4006 62.8346 68.9887 61.3615 67.9908L61.2981 67.9432V67.9472ZM47.2952 49.0378C48.6337 49.1684 49.9723 48.8873 51.287 49.1803C55.6114 50.1585 60.0982 50.1307 64.4622 50.903C66.965 51.3663 69.4955 51.6752 71.9943 52.1385C72.6953 52.2732 73.3962 52.4553 74.0298 52.788C77.1345 54.4552 76.3306 57.4846 73.6892 59.1241C72.1527 60.1775 70.4697 61.0408 68.8619 62.015C68.0224 62.5219 67.0917 63.0605 66.1057 63.1278C65.2186 63.2149 64.3751 62.9654 63.5593 62.6486C61.2031 61.7338 58.8943 60.6171 56.5183 59.5201C55.4649 59.0647 55.5243 58.5895 56.5104 58.1103C58.13 57.2431 59.9042 57.0371 61.702 56.7639C63.5079 56.5263 64.8939 55.1244 63.8405 53.3226C62.8822 51.6316 60.8189 52.8315 59.4052 53.1563C57.4964 53.7027 55.5599 54.1067 53.7898 54.8353C52.5384 55.2353 51.2751 56.2333 49.9129 55.8689C47.7427 55.1799 45.6122 53.4137 43.4341 52.7999C42.3412 52.5266 41.1452 52.483 40.0562 52.2336C39.2008 52.0395 39.5453 51.6277 40.0879 51.3267C42.064 50.1901 43.8262 49.014 45.9726 48.9784C46.3884 48.9704 46.8042 48.9982 47.216 49.0259H47.2952V49.0378ZM60.8942 97.3509C60.6724 97.9607 60.0705 98.3211 59.5082 98.6023C57.7697 99.4379 56.0074 100.214 54.265 101.038C52.479 101.818 50.788 102.927 48.8793 103.41C42.8362 104.463 35.6367 103.204 30.0807 100.761C28.0096 99.7507 26.3028 98.131 24.6316 96.6341C23.7287 95.8302 22.7189 95.1293 21.9308 94.2303C21.0438 93.3235 20.6953 92.0523 20.125 90.9672C19.5984 90.092 18.7945 89.3198 18.3351 88.3694C16.1254 82.9995 14.1968 76.3901 16.4263 70.7113C17.1193 69.3174 17.052 67.567 18.3034 66.5097C19.8637 65.0524 20.7032 62.9773 22.1605 61.4526C22.711 60.8666 23.4 60.4705 24.1525 60.2092C25.9899 59.5716 27.8433 58.9459 29.6966 58.3321C33.4428 57.1045 37.3435 55.659 41.3432 56.3877C43.3391 56.6372 45.0221 57.6906 46.6814 58.7558C48.6496 59.9676 50.6296 61.1517 52.7483 62.0981C54.1422 62.704 55.5203 63.2822 56.6609 64.2722C57.1163 64.696 57.1202 65.3098 57.0291 65.884C56.9024 66.6879 57.0806 67.4958 57.3459 68.3472C57.7142 69.6778 58.4073 70.7866 59.524 71.5232C59.8883 71.8281 60.5536 72.1251 60.6091 72.5884C60.617 72.9211 59.7854 73.1112 59.1161 73.0122C58.5973 72.933 58.1142 72.7072 57.6073 72.5726C56.8509 72.3469 56.0154 72.3746 55.2511 72.1172C54.558 71.8994 53.9046 71.5707 53.2314 71.2658C45.9607 67.8878 42.2501 72.3746 35.5932 73.329C34.124 73.6299 32.2548 73.0953 30.9797 74.022C30.3856 74.4893 30.2431 75.3486 30.5916 76.0694C31.0193 77.0119 32.1043 77.3128 33.0666 77.3603C35.6328 77.3999 38.2306 77.0119 40.7017 76.3268C42.7372 75.5862 44.6935 74.5408 46.8834 74.3784C47.8298 74.2794 52.2652 73.8953 50.7841 75.8674C49.5089 77.8237 48.7724 81.1303 50.8276 82.8371C52.376 84.1202 53.9759 85.0944 56.0074 84.9677C56.7955 85.0112 57.0925 85.5142 56.8787 86.2824C55.6986 89.498 56.7401 91.9929 59.5874 93.9135C60.7041 94.6145 61.2466 96.0124 60.9021 97.2915L60.8783 97.3548L60.8942 97.3509ZM63.4801 90.793C60.7516 90.4762 60.514 89.1456 60.3635 86.6151C60.3239 86.2428 60.2685 85.8112 60.4388 85.4746C60.6011 85.1261 61.0882 84.9479 61.4882 84.8568C64.1137 84.2667 66.5848 83.1698 69.0163 81.9818C72.0141 80.667 74.8258 79.0671 77.3405 76.9208C78.8572 75.5427 80.8927 75.313 82.8608 75.6377C83.2568 75.6971 83.6568 75.8159 83.9736 76.0614C85.7636 77.7247 83.8706 80.0651 82.6549 81.459C81.3243 83.253 79.7442 84.9835 77.6771 85.9735C75.1426 87.2051 72.7863 88.908 70.0737 89.7238C67.9669 90.397 65.8166 91.1098 63.5633 90.8049L63.4801 90.793ZM86.9001 88.7852C86.7694 90.2702 85.6408 91.3236 84.3736 91.9731C79.8907 94.6263 75.5228 97.7469 70.1172 97.6756C68.5451 97.7707 66.8898 97.8895 65.6582 96.7727C64.8424 96.1035 63.9237 95.1095 65.3731 94.8996C67.1353 94.6105 68.7787 94.3293 70.4261 93.7076C74.2951 92.1592 78.378 90.6861 81.6926 88.116C82.7658 87.3398 83.7598 85.8666 85.2369 86.128C86.4526 86.3181 87.1219 87.5497 86.912 88.7139L86.9041 88.7892L86.9001 88.7852ZM88.4643 75.5783C87.8268 75.4674 87.2011 74.6596 86.6308 74.1606C86.1002 73.6775 85.3438 73.0161 86.2507 72.43C91.375 69.2224 96.0717 65.6781 99.6239 60.7359C100.685 59.2073 101.117 60.7042 100.661 61.8289C99.6556 64.6682 98.0201 67.2423 95.9212 69.4322C94.4203 71.1192 92.8759 72.735 91.1572 74.1012C90.3494 74.6398 89.5296 75.5823 88.5277 75.5862L88.4643 75.5783ZM104.926 73.523C102.891 75.214 98.7923 77.9742 96.1469 77.7207C95.0579 77.5425 94.0718 76.8297 95.1688 75.8119C97.2439 73.6379 99.3308 71.5113 101.311 69.3016C102.198 68.3511 102.82 67.2779 103.342 66.0701C103.532 65.6781 103.806 65.2702 104.166 65.0682C104.736 64.7514 105.489 64.7276 106.107 64.9336C107.314 65.4603 107.576 67.472 107.584 68.7273C107.528 70.6005 106.447 72.1924 104.99 73.4676L104.926 73.523ZM122.501 57.4926C122.541 58.6251 122.026 59.5875 121.622 60.6527C121.052 62.2764 120.311 63.8921 119.155 65.2108C118.165 66.474 116.846 67.3968 115.254 67.6819C114.387 67.8244 113.282 68.165 112.482 67.9234C111.956 67.7492 111.635 67.2146 111.421 66.7156C110.851 65.389 110.407 64.1891 109.69 63.0723C109.033 62.0269 107.98 61.2665 106.819 60.8784C105.849 60.625 105.014 60.0745 104.685 59.0885C103.679 56.752 103.129 54.3166 102.277 51.9445C101.972 50.9148 102.618 50.103 103.129 49.1486C103.307 48.8318 103.612 48.2814 103.964 48.2774C104.372 48.2853 104.661 48.8675 104.875 49.2041C106.103 51.2792 107.215 53.2077 108.451 55.1878C108.938 55.9323 109.449 56.7283 110.249 57.1599C112.051 58.0747 113.635 56.5699 112.831 54.7086C111.678 52.2573 109.595 50.3248 108.645 47.7587C107.912 45.5608 106.72 43.6124 105.6 41.5849C105.144 40.8047 104.673 39.8741 103.921 39.3633C103.2 38.8643 101.98 39.0702 101.481 39.8464C101.026 40.5394 101.093 41.5413 100.958 42.3848C100.772 44.0441 100.523 45.6954 99.7625 47.2122C99.3863 47.9804 98.3329 49.4932 97.6914 49.6318C97.1053 49.6041 98.2497 47.5606 98.2735 47.1409C98.622 46.0162 98.5982 44.8321 98.82 43.6679C98.9824 42.765 99.1328 41.8027 98.9388 40.8998C98.721 39.7513 97.9963 38.7653 97.0142 38.1396C95.1054 37.0545 93.6283 37.106 93.26 34.6349C92.8997 32.4727 92.2621 30.4174 92.8046 28.2473C93.8501 24.1644 96.8716 22.9685 100.8 22.8932C104.317 22.6635 107.766 22.1606 110.902 24.204C117.163 28.0849 119.226 32.8291 121.084 39.6365C121.531 41.0978 121.939 42.5709 122.185 44.0797C122.581 46.6538 122.501 49.2872 122.794 51.8771C122.953 53.7384 122.343 55.564 122.497 57.4134V57.4846L122.501 57.4926Z" fill="#F0BEFA"></path><path d="M77.6809 27.079C76.8335 28.8966 74.596 27.7918 73.305 27.0869C72.3348 26.5483 71.618 25.7365 70.9844 24.8098C70.3627 23.9188 69.8241 22.9526 69.2816 22.0497C69.0756 21.7091 68.7588 21.3329 68.3628 21.3566C67.8203 21.3883 67.2698 21.9586 66.8026 22.2873C66.1016 22.8219 65.3809 23.3525 64.6087 23.7921C61.8049 25.3603 58.5933 26.1483 55.5242 24.7425C54.7639 24.4099 54.0194 24.0139 53.259 23.7089C52.8274 23.5347 52.4353 23.4713 52.1779 23.6376C51.6275 24.0416 51.7106 25.1148 51.5602 25.7484C51.0335 28.3541 50.2771 30.9797 48.7247 33.1894C46.5744 36.0684 43.3152 37.9217 39.6601 37.6326C38.4047 37.4821 36.5554 36.8881 36.1712 35.5694C36.096 35.0823 36.5514 34.6111 37.1335 34.3576C38.4641 33.819 40.0046 34.3141 41.359 33.819C43.141 33.3399 44.3845 31.8034 45.4695 30.354C46.5665 28.9917 47.2991 27.3562 47.3545 25.59C47.6436 23.1149 47.307 20.624 47.604 18.2361C47.8496 16.5847 49.8138 14.6007 51.4176 15.8877C52.0156 16.363 52.471 17.1471 53.0175 17.745C54.1184 18.7984 55.1718 20.1924 56.5103 20.8973C59.5991 21.915 62.9494 20.6795 65.0562 18.3311C66.6481 16.6639 67.9391 14.9848 69.0281 13.0404C69.3964 12.387 69.9706 11.6544 70.723 11.6386C71.4715 11.6029 72.2912 12.0861 72.6675 12.7474C73.21 13.682 72.8773 14.8185 72.7427 15.8283C72.4892 17.4203 73.0516 18.9727 73.21 20.529C73.2575 22.4417 74.9564 23.7089 76.3345 24.7742C77.0909 25.2534 78.1284 26.0097 77.7086 27.0037L77.6849 27.0671L77.6809 27.079Z" fill="#F0BEFA"></path></svg>