<svg width="153" height="103" viewBox="0 0 153 103" fill="none" xmlns="http://www.w3.org/2000/svg">
<path d="M152.936 27.3958C152.904 17.5747 151.253 3.38969 140.434 0.764146C133.286 -0.879292 126.031 3.63125 122.4 9.67435C120.325 12.9097 118.531 16.5808 114.27 15.7333C111.367 15.171 108.464 13.678 105.458 13.3295C102.334 12.8385 99.0985 13.2464 96.1166 13.1632C93.3088 13.1236 90.5685 12.5573 87.935 11.5831C86.2678 10.9851 84.6164 10.2684 82.9294 9.69415C79.4604 8.52197 75.9518 8.28436 72.5857 7.15969C68.7444 6.00731 65.4932 3.64313 61.834 1.95613C56.8245 -0.237757 51.0507 -0.471402 45.7085 0.684944C32.866 3.68669 22.538 13.6622 16.19 24.794C13.1605 30.0688 12.0042 36.7218 9.85782 42.7451C7.86194 48.7367 3.55336 53.4532 1.7832 59.4646C-1.66604 70.9885 -0.299811 84.4488 7.53721 93.9016C11.5646 98.7725 17.5879 101.687 23.8528 101.303C27.4684 101.129 30.9414 99.7902 34.553 99.6793C39.4318 99.4219 44.3898 101.735 49.4033 101.442C52.6347 101.382 55.8424 101.275 59.058 101.644C62.6063 101.996 66.3921 102.82 70.1344 102.574C75.9478 102.475 81.3256 99.4061 87.1192 99.4536C90.0101 99.4417 92.8534 100.182 95.677 100.753C98.952 101.41 102.251 101.687 105.506 102.115C110.04 102.649 114.646 103.513 119.212 102.467C126.871 100.606 133.809 95.6202 138.442 89.3118C142.442 84.0528 143.075 78.0057 144.382 71.7844C145.57 66.6086 146.762 61.5555 147.728 56.4391C148.429 52.9463 149.653 49.1961 150.734 45.628C152.453 39.6879 152.92 33.6725 152.936 27.471V27.3918V27.3958Z" fill="#F5693C"/>
<path d="M61.8342 19.9191C61.8065 23.7999 59.9334 28.0491 56.1911 29.5975C54.9991 30.0846 53.6962 29.7282 52.4647 29.6371C51.0469 29.4906 49.5183 29.4708 48.0294 29.4827C47.5066 29.4946 46.9839 29.5579 46.4928 29.748C44.0019 30.7618 40.422 34.7258 41.1032 37.6682C41.222 38.2305 41.5625 38.7414 42.0694 38.9235C43.9584 39.5294 46.0414 36.393 47.3245 35.2565C48.6748 33.8942 50.6707 33.2844 52.5161 33.6804C53.9616 34.0447 54.3774 35.6287 54.5001 36.9435C55.0229 42.2857 51.8112 48.9505 47.1819 51.6869C44.2158 53.4769 41.6576 52.5661 39.1706 50.5306C37.5628 49.2158 35.5234 49.2039 33.5394 49.7861C31.1594 50.3128 28.3319 51.279 26.0112 50.1583C19.2157 46.4517 24.3559 34.4962 27.4567 29.5856C31.4682 23.0792 38.0262 16.0223 45.3048 13.3215C51.6014 11.096 61.7471 10.9257 61.8342 19.8597V19.9151V19.9191Z" fill="#FFE1F0"/>
<path d="M46.7896 61.4842C46.1837 64.1849 44.9205 66.5729 43.6097 68.9687C42.0573 71.923 40.0733 74.6238 38.2517 77.4196C36.8062 79.5659 35.1707 81.542 33.4797 83.4825C31.4165 86.3417 28.5138 88.2623 25.1239 89.185C21.7816 90.3176 18.1977 88.5435 16.2177 85.7952C14.9544 84.0607 14.1941 81.9856 13.3427 79.962C12.9981 79.1145 12.6734 78.2552 12.4635 77.3641C11.9923 75.1782 11.9329 72.8813 11.8774 70.6518C11.9804 69.3885 12.321 68.1292 12.4873 66.8897C12.7051 64.0107 13.1209 61.1872 14.7406 58.8309C15.7108 57.3934 16.9345 55.845 18.5542 55.1757C21.35 54.0036 24.4745 55.5163 25.7892 58.1537C26.9892 60.411 27.0644 63.0246 27.5317 65.4839C27.6505 65.8165 27.694 67.8243 28.1613 67.6184C28.5257 67.3649 28.7672 66.7986 29.0563 66.4184C32.0264 61.9752 37.5626 56.1618 43.2849 56.245C46.3184 56.245 47.4866 58.5933 46.8094 61.4287L46.7975 61.4921L46.7896 61.4842Z" fill="#FFE1F0"/>
<path d="M112.083 31.2726C107.09 21.4833 95.0828 23.887 89.8515 32.0211C87.2458 35.7317 85.9429 40.1313 85.5984 44.5825C85.3964 46.4041 85.3529 48.4119 86.0063 50.1583C87.0636 53.0373 89.2338 55.7341 92.2751 56.5776C98.3301 58.0943 104.789 55.3579 109.109 51.1285C112.622 47.4813 113.826 42.7569 113.885 37.7989C114.056 35.6644 113.101 33.5061 112.111 31.332L112.083 31.2766V31.2726ZM99.9102 48.5386C98.1479 49.3544 96.7896 48.0278 97.2213 46.2101C97.6767 45.0221 97.9618 43.4935 98.9756 42.6737C100.813 41.6322 102.144 43.0143 102.191 44.8993C102.243 46.4002 101.367 47.9169 99.9696 48.5149L99.9141 48.5386H99.9102Z" fill="#FFE1F0"/>
<path d="M85.448 72.1843C84.3234 69.6894 82.1216 68.0816 79.7336 66.8619C78.9179 66.462 77.9952 65.959 77.9278 64.9452C77.8288 62.2128 78.5298 59.4882 78.3634 56.7479C78.1496 54.7322 76.9695 52.2373 75.0092 51.4809C73.9361 51.1443 72.8827 51.6512 71.8451 52.0512C71.164 52.3086 70.4591 52.5462 69.877 52.9897C69.1681 53.5085 68.6295 54.1976 68.1583 54.9302C66.3485 57.8052 64.6576 60.7871 63.4775 64.0027C60.8836 71.4636 59.4065 79.7243 61.8063 87.4227C63.2359 91.6442 68.2137 90.6225 71.655 90.1869C78.0546 89.5889 85.0877 84.8883 85.8757 78.1244C86.1292 76.1563 86.3193 74.0891 85.4758 72.2397L85.452 72.1843H85.448ZM71.4412 81.6727C70.1661 81.934 70.1383 80.3817 70.2215 79.5025C70.3126 77.9858 70.7126 76.4731 71.7461 75.3009C72.6332 74.2911 73.7579 74.9405 74.1459 76.0295C74.9261 78.0888 73.6351 81.0945 71.4927 81.6608L71.4412 81.6727Z" fill="#FFE1F0"/>
<path d="M140.208 17.4004C139.959 15.7451 139.301 13.0364 137.697 12.2167C136.862 11.8721 135.927 12.2404 135.167 12.6404C134.343 13.0839 133.781 13.8799 133.151 14.6244C131.896 16.0421 131.056 17.7212 130.383 19.4874C129.603 21.4516 128.965 23.4752 128.233 25.4632C127.714 26.8848 126.914 28.2036 125.706 29.15C120.273 33.5932 114.262 39.2997 114.808 46.9269C114.923 48.6178 115.549 50.2454 116.733 51.4176C118.614 53.3343 121.473 53.8016 124.075 53.7699C127.084 53.7065 129.94 52.7007 132.613 51.3582C135.068 50.1425 137.056 48.2891 138.161 45.8101C139.808 42.4322 140.244 38.6463 140.505 34.9278C140.664 32.7893 140.937 30.6073 141.016 28.4293C140.834 24.7979 140.58 21.111 140.216 17.4559L140.208 17.4004ZM129.734 42.0758C129.405 43.0064 128.36 43.4103 127.461 43.0618C126.312 42.7529 126.38 41.4025 126.748 40.4838C127.065 39.2047 129.971 35.6168 130.284 38.674C130.423 39.8145 130.142 40.9709 129.757 42.0203L129.734 42.0718V42.0758Z" fill="#FFE1F0"/>
<path d="M80.5298 21.4635C73.2234 17.848 65.0577 23.1109 61.252 29.4629C58.6503 33.4903 56.991 37.7316 58.08 42.5431C59.0383 47.3467 63.5568 49.3505 67.9525 49.6238C72.8907 49.5287 77.8448 47.8892 81.0169 44.0994C84.5889 39.482 86.7075 33.5735 85.8878 27.6967C85.3373 24.8177 83.2266 22.7229 80.5852 21.4873L80.5337 21.4635H80.5298ZM72.5423 39.7473C71.5562 40.7017 69.6672 40.567 68.9702 39.379C68.7208 38.9196 68.7683 38.3375 68.8831 37.8346C69.2395 36.3258 70.0593 35.1457 71.3701 34.3536C73.0254 33.3517 74.1976 33.6091 74.2847 35.803C74.3085 37.2683 73.6946 38.7375 72.5898 39.7116L72.5462 39.7473H72.5423Z" fill="#FFE1F0"/>
<path d="M109.316 58.423C103.185 56.2251 96.3899 59.5516 92.3269 64.1493C88.5093 68.1054 86.7748 73.4713 87.9708 78.8808C88.8776 83.7913 90.9408 86.2545 95.5345 88.2504C98.9996 89.8226 103.391 89.9057 106.381 87.4307C108.813 84.8804 106.54 82.4766 103.673 82.1717C101.11 81.9499 102.821 81.2094 103.942 80.4015C105.237 79.5342 106.516 78.5997 107.668 77.5423C111.24 74.1723 114.175 69.2538 113.715 64.177C113.402 62.0029 111.648 59.2942 109.367 58.4467L109.312 58.423H109.316ZM103.411 72.2754C102.904 74.3386 100.667 75.8474 98.7501 76.576C98.1363 76.8374 97.7759 76.6275 97.8353 75.9345C97.9462 73.6891 99.5501 71.4279 101.352 70.8537C102.382 70.4854 103.558 70.9686 103.415 72.216V72.2754H103.411Z" fill="#FFE1F0"/>
<path d="M128.589 68.6757C127.754 69.5113 128.482 69.9667 129.207 70.4062C131.456 71.7249 131.991 74.2158 131.476 76.6949C130.526 81.0945 126.997 85.0269 123.298 87.4148C121.271 88.7811 119.057 89.8463 116.788 90.7849C115.806 91.2205 114.725 91.3868 113.664 91.0938C109.692 90.0562 110.424 86.3139 112.246 83.6409C112.586 83.1419 112.915 82.639 113.212 82.1123C114.155 80.3817 115.232 78.7224 116.606 77.3008C116.907 76.9364 117.568 76.386 117.2 75.9028C116.946 75.6256 116.487 75.5583 116.147 75.3999C115.077 74.9841 114.527 73.808 114.329 72.711C113.822 69.8914 116.325 66.5214 117.865 64.28C119.984 61.2743 122.7 58.7754 125.975 57.1122C128.189 55.9796 131.08 54.9342 133.424 56.2449C134.573 56.938 135.302 58.1695 135.203 59.4843C135.175 61.4802 134.007 63.1157 132.632 64.4582C131.314 65.864 129.947 67.2421 128.621 68.6282L128.585 68.6677L128.589 68.6757Z" fill="#FFE1F0"/>
<path d="M58.0444 73.5545C57.4345 76.8691 56.5514 80.1639 55.1575 83.2488C54.112 85.5457 52.0646 88.3494 49.7361 89.3632C48.1521 89.9137 46.1205 89.7711 44.7979 88.7256C43.194 87.3198 42.8376 84.8447 42.7148 82.8053C42.7307 81.2846 43.2138 79.7956 43.3168 78.2829C43.7049 73.3209 46.6195 66.6996 52.1913 66.0066C53.4665 65.9393 54.8763 66.0937 56.0485 66.6877C56.8999 67.1629 57.4503 68.0381 57.8899 68.9846C58.6067 70.426 58.3334 72.0853 58.0523 73.503L58.0404 73.5585L58.0444 73.5545Z" fill="#FFE1F0"/>
<path d="M63.7467 58.2765C61.8696 62.787 55.684 64.87 51.5971 61.9039C49.328 60.3318 48.5796 58.4705 49.1577 55.8093C49.5854 53.2115 51.5417 51.7344 53.989 51.1325C55.1889 50.8474 56.4126 50.5979 57.6561 50.6731C60.0044 50.8949 61.8063 52.0829 63.224 53.9006C64.2536 55.0807 64.3843 56.8469 63.7705 58.225L63.7507 58.2765H63.7467Z" fill="#FFE1F0"/>
</svg>
