<svg xmlns="http://www.w3.org/2000/svg" width="100%" viewBox="0 0 136 114" fill="none" data-scroll-animation="sticker" class="team-grid__sticker-4-svg" style="translate: none; rotate: none; scale: none; transform: translate(-4.5322%, 4.3112%) translate3d(0px, 0px, 0px) rotate(-2.5878deg) scale(1.1009, 1.1009);"><path d="M135.821 24.0071C135.099 16.5778 130.269 9.20558 122.732 7.50395C118.199 6.32861 113.405 6.99522 108.912 6.01723C106.143 5.44709 103.592 4.24982 101.007 3.0964C90.5077 -1.75849 87.8742 0.258897 77.3924 1.40793C72.4578 1.83772 67.5319 0.956212 62.5929 1.17988C58.5157 1.30268 54.4341 1.26759 50.3744 0.798329C46.1922 0.337839 41.9138 -0.298077 37.7535 0.62729C31.2877 2.07893 25.9943 6.24089 20.211 9.13541C10.5474 13.9114 5.5471 22.6782 7.57695 33.4844C8.12379 36.7473 9.90428 40.0848 10.6742 42.7293C12.3847 47.6412 8.76687 50.9129 5.86645 54.4258C-3.01414 65.4162 -1.588 80.6387 8.64 90.1993C11.2867 92.8088 14.4933 94.7209 17.735 96.4664C22.5296 98.9925 26.878 102.01 31.3665 104.992C37.4954 108.939 45.0504 110.851 52.3605 110.044C56.2715 109.588 60.0775 108.553 63.8747 107.869C69.1593 106.619 74.4133 107.365 79.3348 109.588C82.3052 110.847 85.1794 112.382 88.3816 113.132C101.125 116.061 115.697 111.518 123.3 100.563C127.246 94.9314 128.484 87.4934 126.052 80.9895C125.015 78.1169 123.327 75.4593 121.235 73.2007C119.324 71.0999 117.001 69.429 114.905 67.78C113.173 66.4117 110.224 63.8724 111.257 61.7235C114.87 55.6625 123.615 58.0746 131.407 44.1722C134.714 38.1858 136.595 30.989 135.825 24.0948L135.816 24.0115L135.821 24.0071Z" fill="#2D7864"></path><path d="M122.565 30.8011C121.935 33.7877 120.754 36.691 119.092 39.2478C118.199 40.6951 117.176 42.1073 115.872 43.173C113.829 44.8132 111.467 46.4096 108.768 45.4359C106.878 44.8702 105.163 43.6334 103.789 42.2476C102.958 41.388 102.542 40.2214 101.956 39.2084C101.681 38.7259 101.261 38.7742 100.867 39.1031C99.5108 40.1469 98.264 41.1731 96.9298 42.1467C94.948 43.5019 91.4483 44.2606 90.4334 41.3836C90.1315 40.2784 90.2453 39.0943 90.3153 37.9672C90.4159 36.7612 90.7615 35.5902 90.9933 34.4017C91.1464 33.6561 91.3346 32.9237 91.6102 32.2177C92.3976 30.231 92.9488 28.139 93.8631 26.205C95.0618 23.8762 96.5317 21.4816 98.7934 20.1528C100.119 19.416 101.777 18.9818 103.299 19.1397C104.227 19.2494 105.097 19.7274 105.963 20.0475C107.04 20.4686 108.125 20.8896 109.048 21.5781C110.238 22.4158 111.038 23.6876 112.162 24.5911C112.74 25.0384 113.011 24.3191 113.383 23.7709C113.974 22.8763 114.538 21.8588 115.365 21.1834C116.616 20.1923 119.039 19.1353 120.435 20.2537C120.811 20.5607 121.087 21.0299 121.371 21.4334C121.769 21.986 122.237 22.5079 122.46 23.1701C122.67 23.7578 122.727 24.3805 122.753 25.0033C122.819 26.8979 122.815 28.8627 122.561 30.7529V30.7967L122.565 30.8011Z" fill="#E6FAB9"></path><path d="M114.433 86.476C114.241 83.3315 109.411 78.8625 106.467 78.174C104.949 77.8407 103.378 77.7749 101.856 77.4898C100.815 77.3583 100.259 76.6346 99.9178 75.6786C99.371 74.4331 98.9379 73.1393 98.3561 71.9069C97.083 69.1571 94.2482 69.4115 91.9997 70.7053C89.6286 72.3236 87.8962 75.5514 87.1831 78.2836C86.8813 79.3625 86.7894 80.5028 86.6013 81.5992C86.4132 82.5333 86.1813 83.4674 85.9801 84.406C85.4201 86.8488 85.1883 89.3266 84.8777 91.8001C84.2871 94.7648 85.1358 97.5804 87.8831 99.1022C89.003 99.7864 90.241 100.19 91.5797 100.247C92.8965 100.365 93.9858 100.576 95.2369 100.655C97.9536 100.699 100.456 100.378 102.923 99.5408C104.8 98.8566 106.734 98.1681 108.365 96.9839C109.949 95.813 111.436 94.5412 112.653 92.9579C114.149 91.1335 114.621 88.796 114.45 86.5242V86.4804L114.433 86.476ZM100.294 90.5853C99.9441 90.8835 99.5153 91.116 99.1041 91.344C98.8066 91.4931 98.4304 91.7694 98.2511 91.6116C97.7786 91.0414 98.4042 88.1952 98.776 87.6864C99.1654 87.1075 99.9703 87.0198 100.487 87.4847C101.344 88.2741 101.213 89.8529 100.329 90.5546L100.298 90.5809L100.294 90.5853Z" fill="#E6FAB9"></path><path d="M84.484 78.9503C84.4315 80.9106 83.9722 82.8228 82.9397 84.5069C82.6466 85.1121 82.546 85.8182 82.2398 86.4365C82.021 86.9014 81.7323 87.3312 81.413 87.7347C79.1338 90.4932 75.9577 92.344 72.423 92.9536C68.2714 94.0544 67.5015 93.9009 63.433 92.686C62.4181 92.4405 61.3332 92.4273 60.4101 91.901C59.5002 91.4361 58.7303 90.7344 58.0259 90.002C57.1947 89.1205 56.3154 88.3092 55.5586 87.3619C52.4176 83.599 53.4413 78.1872 55.703 74.2269C56.4598 72.7095 57.6716 71.4859 58.9884 70.4334C61.4163 68.3546 66.5041 66.995 67.4184 71.2272C67.8646 72.6394 67.9083 74.1217 67.4402 75.5689C66.9503 77.0688 66.4209 78.5424 65.7647 79.9853C65.5066 80.573 65.1785 81.3799 65.5723 81.95C66.2022 82.7658 67.5496 82.507 68.4814 82.4018C69.4657 82.3097 69.9557 81.5729 70.1394 80.687C70.5244 79.2002 70.8875 77.7267 71.3775 76.275C72.1343 74.0427 73.5035 72.1701 75.6428 71.1526C77.0514 70.4465 78.0795 70.3325 79.545 70.9597C80.1224 71.1307 80.7305 71.2184 81.2598 71.521C82.3316 72.1175 83.0972 73.2533 83.7665 74.2883C84.5234 75.6698 84.5365 77.3846 84.4971 78.9064V78.9503H84.484Z" fill="#E6FAB9"></path><path d="M52.3826 21.1305C51.9889 23.3847 51.0789 25.4942 49.9634 27.4985C48.2966 31.7306 45.3262 35.397 41.3671 37.7389C38.7686 39.2826 35.7326 39.9668 32.6615 39.9493C31.546 39.9843 30.4392 40.0633 29.3237 39.9229C24.249 39.4405 20.3862 34.7655 20.0931 29.7965C19.9925 27.6914 20.4124 25.3802 21.7642 23.7268C22.5517 22.7181 23.8903 22.1919 25.0758 21.7094C27.0357 20.8148 29.1487 21.4507 30.6623 22.876C32.2634 24.2926 33.7071 25.9416 35.6626 26.8626C37.5962 27.7177 40.3391 28.2616 41.7827 26.2836C42.2902 25.6302 42.6402 24.8364 42.6271 24.0733C42.6402 23.0514 41.5553 23.012 40.7897 22.9593C39.3329 22.7927 36.0213 22.4243 35.2339 21.1218C34.8576 20.5516 34.8226 19.7491 34.9407 19.0517C35.5182 15.3634 38.4142 13.0434 41.9096 13.3329C42.6577 13.3855 43.4233 13.4469 44.1582 13.5171C45.7725 13.6794 47.2992 13.9074 48.7866 14.5302C51.4202 15.5652 52.9513 18.35 52.387 21.0867L52.3782 21.1305H52.3826Z" fill="#E6FAB9"></path><path d="M39.486 66.4957C39.3022 68.4999 36.9355 69.6226 35.1594 69.7893C33.8907 69.9428 32.644 69.2762 31.3797 69.513C30.286 69.7016 29.1748 70.6182 29.1705 71.7848C29.1355 72.6268 29.6386 73.4776 30.1023 74.1574C30.846 75.3547 31.8653 76.3809 32.469 77.6659C33.3789 79.6789 33.2127 82.1831 31.5809 83.8014C30.0935 85.5293 28.068 85.4855 26.0294 85.1039C20.513 84.2005 14.7472 78.9947 13.3823 73.5653C12.6254 70.9427 13.0717 68.1929 14.1216 65.715C15.3684 62.5267 17.7963 60.0751 20.9329 58.7419C22.3591 58.1235 23.9471 57.6543 25.4476 57.6893C29.5948 57.7376 32.7971 58.4261 35.8069 60.6496C37.7186 61.9741 39.7266 63.9213 39.486 66.4474V66.4913V66.4957Z" fill="#E6FAB9"></path><path d="M76.6314 20.4377C75.0696 16.8765 71.2724 14.8241 67.5189 14.4688C66.0053 14.311 64.4785 14.4031 62.9736 14.6223C62.0768 14.7627 61.1494 14.8372 60.3182 15.2056C59.9507 15.3723 59.6139 15.6047 59.2945 15.8503C57.7328 17.0958 56.1185 18.2887 54.8017 19.8193C52.2513 22.6787 51.2057 26.7047 52.1682 30.415C53.5418 35.2172 58.9927 38.0021 63.7479 37.7784C65.4234 37.7302 66.9896 37.1381 68.547 36.5373C71.1849 35.4935 73.4772 33.8314 75.2927 31.5903C77.8344 28.5774 78.4031 24.0339 76.6401 20.4771L76.6226 20.4377H76.6314ZM62.978 27.8713C61.8668 27.3845 62.2955 26.3363 63.2186 25.8934C63.8048 25.5732 64.286 25.6785 64.8722 26.2267C65.3141 26.5863 64.9641 27.1433 64.6798 27.481C64.251 27.9941 63.6561 28.1257 63.0174 27.8932L62.9736 27.8757L62.978 27.8713Z" fill="#E6FAB9"></path><path d="M55.8036 95.3085C54.0362 97.225 50.5278 97.168 48.1261 96.9092C46.5293 96.725 44.9238 96.5496 43.3795 96.1242C41.1309 95.3129 38.9698 94.1814 36.9969 92.8394C36.2226 92.3526 35.6801 91.5938 35.3739 90.7343C34.0877 87.4407 34.3633 83.783 35.3739 80.4631C35.6451 79.5334 35.8463 78.5817 36.2532 77.7089C36.5025 77.1695 36.7738 76.6345 37.0144 76.0863C37.8324 74.1654 39.1361 72.5471 40.4616 70.9507C42.6183 68.4026 45.1994 66.6616 48.6554 66.9115C50.519 66.9642 52.0458 67.6439 52.5795 69.5341C52.9294 70.8323 53.1044 72.1392 53.0563 73.4593C52.9338 74.8232 52.7807 76.1389 52.3039 77.3888C51.7133 78.6606 51.2802 79.9895 50.7421 81.2788C50.0815 82.6866 49.2328 84.0155 48.4717 85.3662C48.2442 85.7785 47.9379 86.3135 48.0998 86.7784C48.4629 87.524 49.5172 87.4933 50.2128 87.7257C51.5777 88.0897 52.9251 88.4625 54.2375 88.9625C54.9987 89.2826 55.5499 89.9405 55.9567 90.6553C56.9848 92.3394 56.9498 93.87 55.8342 95.2646L55.8036 95.2997V95.3085Z" fill="#E6FAB9"></path><path d="M97.398 51.4836C96.0375 44.7736 87.8437 45.0192 83.1191 47.9005C80.9536 49.2601 79.02 51.1766 77.642 53.3606C76.6752 55.0096 76.1808 56.8384 75.9052 58.7374C75.6384 60.5794 75.4765 62.588 76.2289 64.2896C76.7014 65.386 77.5676 66.2675 78.39 67.0964C79.3612 68.1007 80.7086 68.627 82.0691 68.877C84.9346 69.4252 87.8656 68.8287 90.3416 67.342C91.6059 66.4561 92.2709 64.4124 91.291 63.0529C90.6654 62.1231 89.6329 61.803 88.7624 61.2153C88.5174 61.0486 88.2024 60.9171 88.0799 60.6495C87.8656 59.7943 90.8272 59.2593 91.4747 58.9567C94.572 57.948 97.8967 55.1149 97.4068 51.5318L97.398 51.488V51.4836ZM85.1752 56.6279C84.6283 56.5709 84.2958 56.1674 84.6414 55.6631C85.1008 55.1982 85.6957 55.0886 86.3738 54.7465C86.4963 54.6895 86.6844 54.6325 86.6669 54.843C86.5751 55.5885 86.0063 56.6148 85.2102 56.6279H85.1752Z" fill="#E6FAB9"></path><path d="M74.2384 56.5445C73.836 59.5486 71.2418 66.4385 67.777 66.6797C66.4515 66.7323 65.371 65.8157 65.056 64.4956C64.8373 63.5922 64.9029 62.6975 64.7279 61.8204C64.1023 58.5926 61.7356 61.145 60.4976 62.4651C59.3077 63.7106 57.6453 65.4868 55.7598 64.7675C54.2462 64.136 54.0624 62.0221 54.2155 60.5924C54.5218 58.3075 54.7536 56.0796 55.6548 53.9877C55.8473 53.5184 56.031 53.0448 56.1798 52.5536C57.2253 48.567 58.7302 44.5235 61.7531 41.6334C62.9649 40.572 65.5766 39.4055 66.3684 41.4755C66.9065 43.0192 66.4253 44.62 66.2415 46.1725C66.0622 47.2382 66.3771 48.1767 67.3352 48.6197C68.4682 49.2337 69.6713 49.5933 70.8699 50.0582C73.5691 51.1546 74.6978 53.6807 74.2428 56.4963V56.5401L74.2384 56.5445Z" fill="#E6FAB9"></path><path d="M56.7573 46.4047C56.0617 48.0713 55.3618 49.9702 53.625 50.7947C52.9163 51.1807 52.0764 51.2728 51.3502 51.628C50.4184 52.0841 49.8147 52.8998 49.3203 53.7814C47.6667 56.6539 46.1924 62.9692 42.1415 62.9692C39.7442 62.7675 40.5754 58.4257 40.8772 56.825C41.3672 55.0795 41.9053 53.3559 42.2552 51.571C42.3602 50.8737 42.7539 50.0974 42.5046 49.3957C42.3471 49.0229 41.9534 48.8388 41.6034 48.6809C40.886 48.3695 40.1335 48.0537 39.4423 47.6809C37.0231 46.2512 37.1281 43.9575 38.8867 41.9928C41.1091 39.5149 44.6176 39.6333 47.6536 39.7079C49.106 39.9228 50.5496 40.1728 52.002 40.4271C53.9531 40.7122 55.7774 41.8481 56.6392 43.6637C57.0635 44.4838 57.1379 45.4794 56.7704 46.3565L56.7529 46.4003L56.7573 46.4047Z" fill="#E6FAB9"></path><path d="M88.5087 32.2124C87.3713 36.8875 85.0527 41.4091 81.3386 44.5185C80.6343 45.0842 79.8819 45.6368 79.0769 45.9877C78.1801 46.3254 77.0952 46.8166 76.1678 46.3517C75.0304 45.7509 74.9254 43.9922 74.9472 42.8476C74.9341 41.4529 75.341 40.0846 75.5116 38.6988C76.0015 34.5719 77.1652 30.3749 79.965 27.1909C81.5268 25.4103 84.1166 23.6254 86.5139 24.7876C87.6163 25.4059 88.2944 26.6953 88.6837 27.9057C89.0818 29.3135 88.8718 30.7739 88.5219 32.1642L88.5131 32.208L88.5087 32.2124Z" fill="#E6FAB9"></path><path d="M93.7144 19.2577C92.5551 21.49 90.1665 22.5995 87.6861 22.4285C85.9712 22.4022 83.7007 21.2575 83.0489 19.6349C82.6727 18.6788 82.9395 17.6394 83.3595 16.7404C83.5957 16.1307 83.867 15.5431 84.3219 15.0563C86.1724 13.0038 88.7622 12.5521 91.1946 13.2406C94.2437 13.9599 95.1755 16.5342 93.7319 19.2182L93.71 19.2577H93.7144Z" fill="#E6FAB9"></path></svg>