<svg width="185" height="123" viewBox="0 0 185 123" fill="none" xmlns="http://www.w3.org/2000/svg">
<path d="M183.001 73.5406C186.169 64.7492 184.466 53.1858 174.645 49.8197C169.695 48.2752 164.349 49.2653 159.28 48.394C155.003 47.6416 151.161 45.1072 147.241 43.3251C144.271 41.8995 141.222 40.8699 138.252 39.563C135.994 38.573 133.777 37.4246 131.519 36.4346C127.441 34.3753 122.847 34.7317 118.451 34.4545C116.59 34.3357 114.729 34.0981 112.907 33.8209C110.095 33.3853 107.363 32.7121 104.63 33.1873C100.433 33.6625 92.2749 37.2662 88.7505 34.9693C86.4536 33.0289 89.8197 29.0292 90.6909 26.6531C93.859 20.2774 92.5917 11.5256 86.4932 7.28829C82.8895 4.71423 78.3354 4.08061 74.1773 2.73418C66.6531 0.358128 60.8714 -2.13673 53.7036 3.05099C51.5652 4.63503 49.8228 6.69428 47.8427 8.43672C46.2191 9.94155 44.3578 11.1296 42.259 11.8424C39.9225 12.7136 37.1901 13.07 34.5764 13.7828C31.0519 14.7729 27.6858 16.1985 24.1218 17.0697C20.5577 18.0201 16.9144 18.4161 13.5483 20.119C2.46005 25.8215 0.361199 42.0975 0.00479042 53.3442C-0.0744114 60.0367 0.796809 67.0065 4.99451 72.313C6.89535 74.8079 9.66741 76.6295 11.8851 78.6887C14.4987 81.1044 15.5284 83.9161 15.9244 87.4406C16.5976 98.4892 19.4884 108.389 28.7155 115.359C34.022 119.2 40.2789 122.646 46.9715 122.606C52.0404 122.527 55.6837 119.478 58.8914 115.914C61.8218 112.825 65.1087 110.013 68.752 107.637C71.2469 106.053 73.7813 104.667 76.4346 103.558C78.8898 102.529 81.3847 101.618 83.7211 100.35C87.602 98.212 91.2849 95.8755 95.4034 94.1331C96.5914 93.6183 97.8191 93.1827 99.0467 92.7867C103.046 91.5986 107.006 90.4502 111.165 90.2522C118.095 90.0146 125.46 90.5294 132.034 92.7867C135.48 94.1331 138.885 96.43 141.974 98.6872C148.112 103.439 155.597 109.419 163.675 105.895C170.922 103.083 173.1 94.9647 175.793 88.4306C177.932 83.3617 181.219 78.8075 182.921 73.5406V73.4614L183.001 73.5406Z" fill="#82A0FF"/>
<path d="M48.7534 109.815C48.2782 110.765 46.5754 111.043 45.7041 110.647C45.2289 110.449 44.9121 110.013 44.5953 109.657C44.1201 109.102 43.6449 108.587 43.3281 107.914C43.1697 107.439 42.8529 107.281 42.3777 107.399C38.774 108.191 35.5663 105.776 33.2694 103.281C32.2398 102.093 31.4874 100.746 30.735 99.3603C30.339 98.6079 30.0222 97.8555 29.745 97.0635C27.2501 89.4997 27.7253 81.2231 29.745 73.6197C30.6558 70.4121 31.923 67.1648 34.2199 64.7095C34.5763 64.3927 34.8931 64.0363 35.2891 63.7591C35.9227 63.4027 36.6751 63.3235 37.3483 63.0067C38.8532 62.4523 40.358 63.2443 40.9124 64.7095C41.348 65.8976 41.3084 67.1648 41.3084 68.3924C41.3084 68.7092 41.3084 69.026 41.2292 69.3428C40.8332 70.9665 40.0016 72.4317 39.368 74.0158C37.982 77.3818 36.6751 80.9063 36.5563 84.5892C36.5563 88.0741 36.7147 91.757 38.2988 94.925C38.576 95.4399 38.8928 96.1131 39.4076 96.3507C39.8432 96.5487 40.2392 96.1131 40.3184 95.7171C40.4768 94.8458 40.3184 93.935 40.2788 93.0638C40.16 91.361 40.1204 89.6185 39.6056 87.9553C39.3284 86.6484 38.972 85.302 38.972 83.9556C39.0512 82.728 39.2888 81.4211 39.8828 80.3123C40.7936 78.7679 42.5757 78.6491 43.7241 80.0351C44.6745 81.2627 45.2289 82.8072 45.8229 84.2724C46.2189 85.3416 46.5358 86.49 46.7338 87.6385C47.3278 90.8065 48.2782 93.935 48.7534 97.1427C49.2682 99.9148 49.6246 102.726 49.6642 105.578C49.6642 107.003 49.2682 108.429 48.6742 109.696V109.736L48.7534 109.815Z" fill="#FFE1F0"/>
<path d="M65.188 86.0544C65.0692 84.312 65.1088 82.5695 64.792 80.8667C64.6732 80.1935 64.5544 79.5203 64.4752 78.8471C64.396 78.2134 64.396 77.5402 64.3168 76.867C64.1584 75.7186 63.9208 74.6098 63.7228 73.4613C63.2476 70.7685 62.6536 68.0756 61.3467 65.66C60.9903 65.0659 60.6339 64.5115 60.3171 63.9175C60.1191 63.5611 59.9607 63.1651 59.8023 62.7691C59.4063 61.8583 58.7331 61.2247 58.0202 60.6306C57.3074 59.997 56.555 59.5614 55.6046 59.2446C55.0898 59.0466 54.575 58.8486 54.0206 58.7694C52.8721 58.611 52.0405 59.5614 51.1693 60.1158C49.8625 60.7494 49.1892 61.9771 48.516 63.1651C48.0408 63.9967 47.6844 64.8679 47.4864 65.7788C47.1696 67.6796 47.0112 69.62 46.8528 71.5209C46.7736 72.2337 46.6548 72.9069 46.6548 73.6197C46.6548 74.2138 46.8528 74.8078 46.8924 75.3622C46.9716 76.2334 47.0112 77.065 47.13 77.8966C47.526 80.4311 47.8032 83.0052 48.5952 85.4208C48.8328 86.2128 49.11 86.9653 49.3872 87.7573C49.6249 88.4305 49.7833 89.1433 50.0605 89.7769C50.9713 91.4402 52.0009 93.0638 53.1097 94.6082C54.0998 95.9943 55.4462 97.1427 57.0302 97.8555C57.6638 98.2119 58.3371 98.6079 59.0499 98.7267C59.4459 98.8059 59.8815 98.7663 60.2775 98.7267C61.1487 98.7267 61.8219 98.0535 62.3367 97.4595C63.2476 96.4299 64 95.2814 64.3564 93.935C64.7128 92.8658 65.0692 91.7966 65.0692 90.6877C65.2276 89.1037 65.386 87.5593 65.1484 85.9752L65.188 86.0544ZM58.6935 87.9949C58.2183 88.4701 57.7826 88.1137 57.5054 87.6781C56.2778 85.9752 55.4858 84.0348 55.367 81.8963C55.169 80.5103 54.8522 78.3322 56.4362 77.6986C57.9014 77.5402 58.6935 80.9063 59.0499 82.0151C59.4459 83.124 59.4855 84.0744 59.6043 85.3812C59.8419 86.5692 59.5647 87.1237 58.6935 87.9949Z" fill="#FFE1F0"/>
<path d="M81.6225 72.4318C81.6225 71.719 81.6225 71.0062 81.6225 70.2933C81.5433 68.7093 80.9097 67.2441 80.6325 65.6996C80.4345 64.5512 80.0781 63.4028 79.6821 62.294C79.0881 60.3931 78.4148 58.5319 77.3456 56.9082C76.91 56.235 76.2764 55.7994 75.6824 55.2846C75.0488 54.8094 74.4548 54.1758 73.6627 53.9778C72.4747 53.7402 71.2867 54.3342 70.3759 55.047C69.9006 55.443 69.5046 55.9578 69.1482 56.433C68.6334 56.9478 68.1186 57.5023 67.8018 58.1755C66.7722 60.2347 66.099 62.5712 65.7822 64.9076C65.6634 65.9373 65.7822 67.0065 65.6237 68.0361C65.3861 70.6894 65.5049 73.303 66.297 75.8771C66.5742 76.7483 66.7722 77.6195 66.9306 78.4907C67.4058 81.2232 68.5542 83.7577 69.7818 86.2129C70.2967 87.0841 70.9303 87.8762 71.7223 88.5098C72.3559 89.0246 73.0687 89.4206 73.7023 89.9354C74.4548 90.569 74.6924 90.8066 75.722 90.6482C76.0784 90.6482 76.4744 90.767 76.8308 90.767C77.7416 90.767 78.5336 90.2126 79.0089 89.4602C79.5237 88.6682 79.8009 87.797 80.1969 86.9257C81.1473 84.7081 81.6225 82.3716 81.7017 79.9956C81.7809 77.4611 82.0581 74.9267 81.6621 72.4318H81.6225ZM75.326 81.1044C74.9696 81.6192 74.3359 81.5004 74.0191 80.9856C73.6231 80.2332 73.3459 79.4412 73.1479 78.6095C72.8311 77.0651 72.6727 75.4019 72.7123 73.8178C72.7519 73.2238 73.0687 72.511 73.6231 72.2734C74.1775 72.1546 74.6924 73.0258 74.9696 73.4218C75.326 74.0554 75.326 74.7683 75.524 75.4415C75.8012 76.3127 76.118 77.1839 76.0388 78.0947C76.0388 78.6491 76.118 79.2432 75.92 79.7976C75.7616 80.2332 75.5636 80.6688 75.326 81.0648V81.1044Z" fill="#FFE1F0"/>
<path d="M97.5816 68.2341C97.4628 67.0064 97.3836 65.7392 97.344 64.5116C97.1064 62.6107 96.9084 60.7099 96.4332 58.8883C95.9976 56.8686 95.5619 54.849 94.5323 53.0669C93.5027 51.3245 92.6711 49.1464 90.6514 48.3148C85.5825 46.9288 83.1273 53.7797 82.7312 57.6606C82.5332 59.7595 82.3748 61.8583 82.6124 63.9572C82.7312 64.8284 82.85 65.7392 82.9292 66.65C83.0877 68.7885 83.3649 70.8873 83.9193 72.9466C84.2361 74.3722 84.5529 75.7979 85.1865 77.0651C85.4637 77.6195 85.8201 78.0947 86.0973 78.6491C86.2953 79.0451 86.5329 79.4411 86.7705 79.7975C87.523 80.8272 88.513 81.6192 89.5822 82.2924C91.3642 83.52 93.6215 82.53 94.9283 81.0252C95.6807 79.9955 96.1164 78.7679 96.6312 77.6195C96.75 77.3027 96.8292 76.9859 96.9084 76.6691C97.146 75.7582 97.4628 74.887 97.5024 73.9366C97.5816 72.0754 97.6608 70.1349 97.542 68.2737L97.5816 68.2341ZM91.8791 72.907C91.5226 75.1246 90.2158 73.7386 89.6614 72.511C88.9486 70.6893 88.5526 68.6301 88.7902 66.65C88.909 65.6996 89.9782 64.3532 90.9286 65.264C91.3642 65.8184 91.5623 66.7688 91.6811 67.4421C91.6811 67.8381 91.8395 68.2341 91.9979 68.5905C92.5127 70.0161 92.2751 71.4417 91.9187 72.8674L91.8791 72.907Z" fill="#FFE1F0"/>
<path d="M28.0421 66.5709C27.1709 67.5213 26.1016 68.2737 24.8344 68.5509C23.488 68.7093 22.1416 68.6697 20.8347 68.5509C18.6567 68.0757 15.9242 67.4421 14.3798 65.6601C13.7462 64.9473 13.3105 63.9176 13.0729 62.9672C11.8453 58.5319 11.8849 53.859 12.4393 49.3049C12.9145 44.3548 13.667 39.3255 15.6866 34.7714C16.3598 33.4249 17.033 31.9993 18.1419 31.0489C20.1219 29.346 22.1812 30.3361 22.9336 32.6329C23.7652 35.3654 23.1712 38.6919 22.4584 41.4243C21.7455 44.1964 21.0723 46.9288 20.3991 49.7405C20.0823 51.0869 20.1219 52.5126 20.3991 53.859C20.6763 54.849 21.4683 55.6806 22.4188 56.0767C23.092 56.3539 23.8048 56.3935 24.478 56.5519C25.666 56.8291 26.7353 57.3439 27.6065 58.1755C28.3589 58.9279 28.9925 59.9179 29.2697 60.9476C29.3885 61.502 29.2697 62.1356 29.3489 62.7296C29.6657 64.2344 28.8737 65.5413 27.9629 66.6501L28.0421 66.5709Z" fill="#FFE1F0"/>
<path d="M114.491 61.7395C114.293 59.2842 113.738 56.7894 113.422 54.3341C113.224 52.7105 112.748 51.166 111.877 49.8196C111.125 48.5128 110.57 47.0871 109.501 46.0179C106.927 43.5231 104.432 44.7111 102.452 47.1267C100.908 49.0276 100.353 51.562 100.116 53.9777C99.7197 56.7894 99.9573 59.6406 100.472 62.4127C100.789 66.254 101.898 69.8973 103.363 73.4218C104.313 75.8374 105.977 79.0055 109.066 78.6095C110.293 78.3323 111.442 76.9066 112.115 75.877C113.105 73.9366 113.699 71.7585 114.095 69.6201C114.451 67.6796 114.649 65.6996 114.53 63.7591C114.53 63.1255 114.412 62.4127 114.491 61.7791V61.7395ZM109.264 70.0161C108.868 70.8477 107.759 70.6101 107.442 69.8181C106.65 68.0756 106.373 65.9768 106.689 64.0363C106.808 62.2147 108.551 61.7791 109.224 63.6007C109.462 64.1551 109.422 64.7096 109.501 65.3036C109.58 65.8184 109.58 66.3332 109.501 66.848C109.501 67.244 109.62 67.64 109.62 68.0756C109.62 68.7093 109.501 69.4221 109.264 70.0161Z" fill="#FFE1F0"/>
<path d="M81.345 19.723C81.345 20.4754 81.0678 21.1486 80.7114 21.8218C80.355 22.5347 79.9193 23.2871 79.4045 23.8415C78.6917 24.5939 77.8601 25.2671 77.0285 25.9007C76.3157 26.3759 75.5236 26.7324 74.8108 27.2076C72.514 28.9104 71.8804 32.1181 72.514 34.7713C72.712 35.6426 73.0288 36.5138 73.3456 37.3454C73.9 38.8106 74.0584 40.3551 74.0584 41.8995C74.2168 45.7408 72.6724 49.4633 70.0587 52.1957C68.1579 54.1758 65.069 56.4726 62.3761 54.651C61.1089 53.9382 60.5941 52.3145 60.7129 50.9681C61.1485 48.8297 62.9305 47.2852 64.1582 45.5032C65.4254 43.5627 67.4451 41.7411 67.3659 39.2066C67.2867 38.177 66.653 37.2266 66.1778 36.3554C64.1582 33.9001 63.7226 31.8805 64.7522 28.8312C65.6234 25.7423 67.3263 22.8911 69.7419 20.713C71.2467 19.327 72.8704 17.941 74.8108 17.1489C75.8404 16.7133 76.9493 16.4361 78.0977 16.3173C78.6917 16.2381 79.2461 16.3173 79.8005 16.5945C80.9094 17.1489 81.6222 18.3766 81.5034 19.6042L81.345 19.723Z" fill="#FFE1F0"/>
<path d="M41.4671 56.1954C40.873 57.1458 40.0414 57.9378 39.1702 58.6506C38.299 59.4426 37.1902 59.9575 36.0021 59.8782C34.4973 59.8782 33.3093 59.7594 32.1608 58.6902C30.2996 57.0666 29.072 54.8489 28.8344 52.3145C28.6364 50.374 28.7156 48.4336 29.1116 46.5723C29.3096 45.5427 29.7452 44.5527 29.7848 43.5231C29.8244 42.6519 29.5076 41.7806 29.072 40.9886C28.0423 39.167 28.1215 37.1077 28.676 35.1673C29.9828 30.8112 33.3093 26.5739 37.7842 25.267C40.5562 24.5542 41.9423 26.4155 41.0314 29.0291C40.4374 30.4548 39.3682 31.6032 38.4574 32.8308C37.7842 33.7416 36.8733 34.4545 36.2793 35.4445C36.0021 35.9989 35.1309 37.3453 36.0021 37.7809C36.5169 38.0185 37.4674 37.9393 37.9822 38.3354C38.9722 39.167 38.4178 40.949 37.8634 41.8994C37.2298 43.2855 34.2201 47.008 36.9921 47.602C38.4178 47.8 39.9622 46.9684 41.3087 47.6812C41.9819 48.0376 42.4175 48.7108 42.6947 49.384C43.6451 51.7997 42.8927 54.0965 41.5463 56.1558L41.4671 56.1954Z" fill="#FFE1F0"/>
<path d="M130.292 59.5615C130.134 57.027 129.817 54.4926 129.262 51.9977C128.668 49.8593 127.56 47.602 125.619 46.3348C125.263 46.1764 124.867 46.1764 124.51 46.216C123.401 46.3744 122.491 46.9288 121.778 47.7604C119.679 49.7405 118.927 51.0473 118.293 53.8986C118.095 54.7302 117.857 55.5618 117.699 56.3934C117.58 57.027 117.659 57.7002 117.501 58.3339C117.303 59.1259 117.54 59.8783 117.461 60.6703C117.382 62.4127 117.54 64.1948 117.501 65.9768C117.659 68.3925 118.253 70.7289 118.887 73.0654C119.481 75.0058 120.471 76.8671 121.976 78.2531C123.085 79.1639 125.065 79.2035 126.015 78.0155C126.649 77.3027 127.243 76.5899 127.639 75.7583C127.995 74.9662 128.352 74.1742 128.629 73.3426C129.54 71.0061 129.777 68.5509 130.054 66.0956C130.411 63.9572 130.411 61.7395 130.252 59.6011L130.292 59.5615ZM125.461 66.2936C125.381 67.0857 125.302 67.9173 125.263 68.7093C125.223 69.2241 125.183 69.7389 124.867 70.1349C124.471 70.6893 123.481 71.1249 123.085 70.3725C122.768 69.8577 122.609 69.0657 122.491 68.5905C122.411 68.2341 122.411 67.8381 122.451 67.4421C122.53 66.254 122.57 65.3036 122.728 64.3532C122.887 63.4028 123.164 63.2048 123.599 62.7296C124.55 61.7395 125.183 63.68 125.381 64.3532C125.54 64.9472 125.54 65.6204 125.5 66.254L125.461 66.2936Z" fill="#FFE1F0"/>
<path d="M58.0995 27.564C57.9807 28.356 57.6243 29.0292 57.0699 29.5836C54.773 31.5241 52.8326 34.0981 52.9118 37.2266C52.9118 39.3254 52.8326 41.4243 52.9118 43.5231C52.9118 44.236 52.991 44.9488 53.0306 45.7012C53.1494 47.8 52.9514 49.8989 52.5158 51.9581C52.1594 53.7006 51.6841 55.5222 50.5357 56.9479C49.9813 57.6607 49.2289 58.3735 48.3577 58.6111C46.2984 59.1259 44.7144 56.5122 45.0708 54.6114C45.4668 50.9285 45.6648 47.2456 46.3776 43.6023C46.6944 41.7807 46.4568 39.9591 46.4964 38.1374C46.4964 37.6622 46.4964 37.1474 46.4172 36.6722C46.1796 35.2861 45.0708 34.2961 43.8036 33.7813C42.4175 33.3457 41.3879 32.4745 41.6255 30.8508C41.8631 29.346 42.7739 28.1184 43.8432 27.0492C46.2984 24.6335 49.7833 23.3663 53.189 23.4851C54.8126 23.7623 56.6343 24.1583 57.7431 25.4255C58.1787 25.9403 58.2579 26.7719 58.1391 27.4848V27.5244L58.0995 27.564Z" fill="#FFE1F0"/>
<path d="M157.894 61.6603C157.458 60.8287 156.389 60.0367 155.438 59.9971C155.122 59.9971 154.805 60.0763 154.528 60.1555C153.894 60.3535 153.221 60.4723 152.587 60.7099C151.795 60.9871 151.36 61.6999 150.805 62.3335C150.251 62.9671 149.736 63.6008 149.3 64.3136C148.271 65.858 147.637 67.64 147.043 69.4221C146.409 71.1645 145.974 72.9466 145.736 74.7682C145.499 76.3523 145.301 77.9363 145.221 79.5203C145.182 80.6688 145.103 81.8568 145.301 82.9656C145.499 84.0348 145.459 85.3813 145.934 86.4109C146.37 87.1633 146.964 87.9553 147.756 88.3909C148.35 88.6681 148.983 88.9453 149.696 88.8661C151.201 88.5889 152.627 87.7969 153.577 86.6089C153.973 86.1733 154.25 85.6189 154.567 85.1437C155.003 84.51 155.478 83.8764 155.834 83.1636C156.349 82.332 156.508 81.342 156.943 80.4707C157.498 79.5995 157.775 78.6095 158.131 77.6195C158.686 76.3919 159.082 75.085 159.161 73.699C159.319 71.5209 159.319 69.3033 159.319 67.0856C159.319 65.1848 158.765 63.3631 157.933 61.6999L157.894 61.6603ZM152.944 77.9759C152.785 78.6491 152.587 79.3619 152.429 80.0747C152.31 80.5103 152.231 80.9856 151.914 81.2628C151.597 81.54 150.964 81.6192 150.568 81.3816C150.171 81.144 150.053 80.5103 149.973 80.0747C150.013 78.3323 150.369 76.5899 151.122 75.1642C151.716 74.0158 152.508 74.1346 152.983 75.3226C153.3 76.1542 153.142 77.0651 152.983 77.9363L152.944 77.9759Z" fill="#FFE1F0"/>
<path d="M145.221 64.2344C145.063 62.4919 144.944 60.7099 144.707 58.9675C144.548 58.1754 144.152 57.423 144.073 56.631C143.954 55.9182 143.439 55.443 143.004 54.8886C142.845 54.6906 142.687 54.453 142.529 54.2154C142.212 53.7401 141.657 53.4629 141.182 53.1461C140.865 52.9085 140.469 52.7897 140.073 52.8689C138.964 53.0273 137.856 53.3837 137.262 54.3738C136.272 55.7598 135.4 57.225 134.688 58.7299C133.896 60.4723 133.658 62.4127 133.302 64.274C133.143 64.9076 133.302 65.5016 133.222 66.1352C133.222 66.452 133.143 66.7292 133.064 67.0064C132.708 68.8281 132.985 70.6101 133.024 72.3922C133.024 74.293 133.064 76.2335 133.777 78.0155C133.975 78.5699 134.054 79.1639 134.45 79.6391C134.925 80.2332 135.559 80.8668 136.272 81.1836C138.45 81.7776 139.836 80.4312 140.984 78.7679C141.657 77.8967 142.212 76.9067 142.766 75.9167C143.677 74.1742 144.073 72.1942 144.548 70.3329C144.667 69.8181 144.746 69.2637 144.865 68.7489C145.301 67.2441 145.34 65.7392 145.221 64.1948V64.2344ZM139.954 70.4121C139.756 71.521 140.034 72.907 139.36 73.8574C138.608 74.7286 137.697 74.6098 137.499 73.4218C137.182 72.0358 137.301 70.6893 137.658 69.3033C137.856 68.5905 137.776 67.7193 138.291 67.1649C138.568 66.8084 139.281 66.3728 139.638 66.8876C140.271 67.8381 140.113 69.2637 139.994 70.3725L139.954 70.4121Z" fill="#FFE1F0"/>
<path d="M172.586 65.2639C172.388 65.8975 172.546 66.6104 172.388 67.2836C172.269 67.8776 172.031 68.4716 171.794 69.026C171.477 69.7784 171.279 70.5308 170.962 71.2833C170.368 72.6297 169.853 74.0949 168.863 75.2038C168.546 75.5206 168.269 75.877 168.071 76.273C167.556 77.5006 166.685 78.5698 166.051 79.7579C165.735 80.3519 165.418 80.9063 164.943 81.4211C164.151 82.1339 163.517 83.0051 162.685 83.6784C162.012 84.1932 161.141 83.8764 160.943 83.0843C160.745 82.5299 160.507 81.8567 160.626 81.2627C161.181 77.9362 161.695 74.4909 162.963 71.3229C164.032 68.3924 164.626 65.2639 166.408 62.6503C166.843 62.0166 167.239 61.383 167.913 60.987C168.705 60.5514 169.932 60.2346 170.804 60.4326C172.506 60.987 173.18 63.7591 172.665 65.2639V65.3035L172.586 65.2639Z" fill="#FFE1F0"/>
<path d="M66.4551 17.9805C66.2967 20.3565 65.3463 22.6138 64.0395 24.5938C63.6039 25.1086 62.3762 26.4551 61.703 25.7026C61.2674 25.0294 61.3466 24.0394 61.3466 23.287C61.3862 22.7326 61.505 22.1386 61.2674 21.6238C61.0298 21.0297 60.3962 20.6733 59.8418 20.3169C58.7725 19.6041 58.4557 18.5745 58.3765 17.4261C58.2181 15.4856 59.0497 13.6244 60.6734 12.5947C64.5939 9.90188 66.8115 14.3372 66.4551 17.9013V17.9409V17.9805Z" fill="#FFE1F0"/>
<path d="M161.973 90.0938C161.973 90.6878 162.012 91.3214 161.775 91.9154C161.339 92.945 160.547 93.8163 159.795 94.6083C159.478 94.9251 159.201 95.2023 158.765 95.2815C158.013 95.4399 157.023 95.2815 156.508 94.7667C155.914 94.2123 155.795 93.2222 155.835 92.4302C155.716 90.2126 157.537 84.0744 160.587 86.4901C161.656 87.3217 162.012 88.7077 161.933 90.0146L161.973 90.0938Z" fill="#FFE1F0"/>
</svg>
