<svg xmlns="http://www.w3.org/2000/svg" width="100%" viewBox="0 0 54 54" fill="none" class="mute__mute-svg"><path d="M12.3818 8.50039C12.8934 7.92803 13.7447 7.84041 14.3584 8.26992C14.3696 8.28308 14.3799 8.29711 14.3916 8.30996L14.501 8.41738L52.001 41.9174L52.1201 42.0141C52.1264 42.0186 52.1333 42.0223 52.1396 42.0268C52.6204 42.5885 52.6243 43.4317 52.1182 43.9984C51.6007 44.5775 50.7353 44.6609 50.1201 44.2143L50.001 44.1176L44.999 39.6488C44.2681 40.687 43.4506 41.6601 42.5557 42.5551C41.9699 43.1407 41.0203 43.1408 40.4346 42.5551C39.8493 41.9693 39.8492 41.0197 40.4346 40.434C41.2902 39.5783 42.0647 38.6412 42.7451 37.6361L37.8271 33.2416C37.2776 34.1931 36.6101 35.068 35.8389 35.8393C35.2532 36.4247 34.3035 36.4246 33.7178 35.8393C33.1321 35.2534 33.132 34.3029 33.7178 33.7172C34.452 32.9828 35.0644 32.1286 35.5273 31.1879L29 25.3559V43.4994C28.9999 44.0475 28.7004 44.5517 28.2197 44.8148C27.7389 45.0778 27.1531 45.0583 26.6914 44.7631L14.6846 37.0785C14.6042 37.0272 14.5104 36.9995 14.415 36.9994H8.5C6.56706 36.9994 5.0001 35.4323 5 33.4994V20.4994C5.00017 18.5666 6.56711 16.9994 8.5 16.9994H14.415C14.5105 16.9994 14.6042 16.9718 14.6846 16.9203L17.5225 15.1029L12.501 10.6176L12.3916 10.5102C11.8788 9.94899 11.8646 9.07956 12.3818 8.50039Z" fill="currentColor"></path><path d="M40.4346 11.4428C41.0203 10.8572 41.9699 10.8573 42.5557 11.4428C46.5351 15.4222 48.9998 20.924 49 26.9984C49 29.5023 48.5806 31.909 47.8096 34.1518L45.3447 31.9506C45.7703 30.3718 46 28.712 46 26.9984C45.9998 21.7516 43.8744 17.0037 40.4346 13.5639C39.8492 12.9782 39.8492 12.0285 40.4346 11.4428Z" fill="currentColor"></path><path d="M33.7178 18.1615C34.3035 17.576 35.2531 17.576 35.8389 18.1615C38.0388 20.3616 39.4237 23.3831 39.4961 26.725L35.8018 23.4242C35.3201 22.2398 34.6083 21.1732 33.7178 20.2826C33.1321 19.6968 33.132 18.7472 33.7178 18.1615Z" fill="currentColor"></path><path d="M26.6914 9.23574C27.153 8.94049 27.7389 8.92026 28.2197 9.18301C28.7004 9.44611 28.9999 9.95137 29 10.4994V17.348L22.7451 11.7602L26.6914 9.23574Z" fill="currentColor"></path></svg>