<svg xmlns="http://www.w3.org/2000/svg" width="100%" viewBox="0 0 166 124" fill="none" data-scroll-animation="sticker" class="team-grid__sticker-1-svg" style=""><path d="M155.269 27.1201C153.847 17.4025 150.204 3.59408 139.122 2.5267C131.814 1.91179 125.27 7.40402 122.531 13.9004C120.935 17.397 119.679 21.285 115.341 21.0493C112.388 20.9036 109.303 19.8366 106.278 19.9172C103.115 19.8735 99.9704 20.7353 97.0068 21.0751C94.2217 21.4334 91.4288 21.2608 88.6839 20.6693C86.9488 20.3134 85.2126 19.8376 83.4613 19.508C79.8613 18.8388 76.3544 19.1003 72.8629 18.4635C68.8972 17.8666 65.344 15.9865 61.4829 14.8345C56.2132 13.372 50.4645 13.9581 45.3399 15.8591C33.0516 20.6489 24.24 31.986 19.5319 43.9045C17.2798 49.5551 17.077 56.3047 15.805 62.5712C14.6775 68.7851 11.08 74.064 10.1788 80.2655C8.39576 92.1616 11.6539 105.293 20.7503 113.541C25.4267 117.793 31.802 119.825 37.9494 118.558C41.5038 117.874 44.7524 116.057 48.3119 115.436C53.1051 114.49 58.3407 116.078 63.2621 115.078C66.4526 114.561 69.6128 114.002 72.8482 113.911C76.4106 113.757 80.2749 114.037 83.9447 113.264C89.6856 112.343 94.5747 108.543 100.317 107.77C103.177 107.349 106.096 107.68 108.972 107.844C112.307 108.032 115.612 107.839 118.895 107.801C123.459 107.689 128.141 107.891 132.513 106.21C139.831 103.283 145.993 97.3653 149.687 90.4645C152.902 84.6922 152.673 78.6163 153.086 72.2727C153.529 66.9807 153.993 61.8098 154.226 56.6081C154.425 53.0513 155.105 49.1656 155.67 45.4804C156.531 39.3568 156.142 33.3358 155.279 27.1946L155.268 27.1162L155.269 27.1201Z" fill="#F5693C"></path><path d="M64.0262 32.6162C64.5482 36.4619 63.2955 40.9335 59.8101 42.9961C58.6991 43.647 57.3589 43.4787 56.1268 43.5629C54.7026 43.6185 53.1866 43.8153 51.7143 44.0379C51.1985 44.1237 50.69 44.2604 50.2308 44.5181C47.9085 45.8743 44.9259 50.3053 46.0167 53.1216C46.214 53.6614 46.6234 54.1189 47.151 54.2275C49.1067 54.5598 50.7247 51.1601 51.8339 49.8534C52.9779 48.3136 54.8673 47.4273 56.7502 47.5581C58.2326 47.7141 58.8685 49.2233 59.1762 50.5075C60.45 55.7218 58.2143 62.7742 54.019 66.1385C51.3362 68.3303 48.6748 67.7909 45.9247 66.128C44.1469 65.0541 42.1264 65.3311 40.2448 66.1882C37.9633 67.0466 35.3011 68.4034 32.8452 67.6225C25.5933 64.9153 28.9891 52.3525 31.3634 47.0524C34.4134 40.0436 39.9062 32.1293 46.7292 28.4253C52.6472 25.3307 62.6667 23.7257 64.0177 32.5574L64.0256 32.6123L64.0262 32.6162Z" fill="#FFE1F0"></path><path d="M55.018 75.8928C54.8005 78.6521 53.8881 81.1949 52.9297 83.7522C51.8112 86.8964 50.2296 89.8509 48.8221 92.8765C47.6951 95.2059 46.3558 97.3936 44.9566 99.5539C43.319 102.676 40.7174 104.989 37.4923 106.382C34.344 107.976 30.5451 106.727 28.1959 104.287C26.6997 102.749 25.6533 100.802 24.5239 98.9198C24.0629 98.1296 23.6198 97.3249 23.2859 96.4726C22.5099 94.3753 22.1259 92.11 21.7554 89.9108C21.6784 88.6457 21.8373 87.3508 21.8265 86.1003C21.6345 83.2194 21.6464 80.3655 22.9161 77.8036C23.6731 76.2432 24.6652 74.5372 26.1738 73.6454C28.7755 72.0892 32.0827 73.1443 33.7576 75.5691C35.265 77.6337 35.7095 80.2104 36.5203 82.5787C36.685 82.8911 37.0124 84.8725 37.4458 84.6025C37.7706 84.3 37.9295 83.7052 38.1619 83.288C40.473 78.469 45.1304 71.9304 50.8068 71.2025C53.8097 70.7731 55.2987 72.9324 55.0297 75.8351L55.0269 75.8995L55.018 75.8928Z" fill="#FFE1F0"></path><path d="M115.377 36.7414C109.048 27.7577 97.502 31.8372 93.475 40.6299C91.4208 44.672 90.754 49.2118 91.0431 53.6669C91.101 55.4988 91.3422 57.4925 92.2363 59.1288C93.6905 61.8291 96.2206 64.1915 99.3508 64.5959C105.559 65.2401 111.566 61.6168 115.244 56.8184C118.205 52.7106 118.728 47.8633 118.085 42.9468C117.951 40.8097 116.701 38.8084 115.413 36.7963L115.378 36.7454L115.377 36.7414ZM105.771 55.557C104.142 56.614 102.609 55.4931 102.779 53.6326C103.062 52.3921 103.128 50.8385 104.015 49.8835C105.687 48.5923 107.2 49.7721 107.514 51.6314C107.777 53.1098 107.125 54.7352 105.826 55.5251L105.775 55.5564L105.771 55.557Z" fill="#FFE1F0"></path><path d="M94.8018 81.012C93.3353 78.7015 90.928 77.4216 88.3915 76.5523C87.5273 76.2718 86.5427 75.9046 86.3325 74.9106C85.8476 72.2196 86.1558 69.4233 85.6032 66.7341C85.1061 64.769 83.5847 62.4663 81.5371 61.9951C80.427 61.8138 79.456 62.4647 78.4856 63.0075C77.8477 63.3588 77.1836 63.6938 76.6701 64.2153C76.0418 64.8292 75.6062 65.5875 75.2435 66.3795C73.859 69.4818 72.6072 72.6731 71.8942 76.0234C70.3828 83.7763 70.0901 92.1629 73.5556 99.4441C75.5685 103.421 80.3515 101.704 83.6965 100.786C89.9469 99.288 96.2437 93.639 96.0662 86.8318C96.0384 84.8475 95.934 82.7743 94.8371 81.063L94.8058 81.0114L94.8018 81.012ZM82.2794 92.3879C81.0541 92.8271 80.8069 91.2943 80.7647 90.4123C80.6402 88.8979 80.8219 87.3438 81.6792 86.0371C82.4143 84.9118 83.6196 85.3955 84.158 86.4186C85.2218 88.3467 84.3693 91.5049 82.3287 92.3688L82.2794 92.3879Z" fill="#FFE1F0"></path><path d="M141.254 19.0272C140.773 17.4239 139.739 14.8356 138.035 14.2512C137.159 14.0284 136.286 14.5253 135.59 15.0289C134.837 15.5846 134.393 16.4521 133.876 17.2783C132.834 18.8594 132.24 20.6405 131.824 22.4842C131.33 24.5391 130.985 26.6325 130.541 28.7042C130.229 30.185 129.624 31.6037 128.562 32.7116C123.813 37.8793 118.67 44.3794 120.29 51.8523C120.644 53.51 121.493 55.0326 122.831 56.0254C124.965 57.6564 127.861 57.7142 130.433 57.3145C133.403 56.8257 136.087 55.4257 138.543 53.7183C140.801 52.1672 142.507 50.0511 143.25 47.4406C144.402 43.8635 144.298 40.0541 144.03 36.336C143.884 34.1967 143.846 31.998 143.616 29.8306C142.921 26.2616 142.148 22.6478 141.27 19.081L141.254 19.0272ZM134.379 44.937C134.185 45.9048 133.208 46.4526 132.268 46.2349C131.088 46.0917 130.963 44.7454 131.198 43.7838C131.33 42.4727 133.7 38.5095 134.442 41.4916C134.741 42.601 134.626 43.7855 134.395 44.8787L134.378 44.933L134.379 44.937Z" fill="#FFE1F0"></path><path d="M82.7521 31.4982C75.0074 28.9535 67.6691 35.3195 64.801 42.1463C62.7956 46.5015 61.7535 50.9349 63.5128 55.5438C65.1416 60.1633 69.8982 61.5073 74.2883 61.1554C79.1633 60.3622 83.8354 58.0379 86.4389 53.8371C89.3212 48.7605 90.5821 42.6116 88.9386 36.9101C87.9861 34.138 85.6 32.363 82.8103 31.5139L82.756 31.4977L82.7521 31.4982ZM77.4336 50.7286C76.5925 51.813 74.7035 51.9472 73.8454 50.8698C73.5334 50.4503 73.498 49.8673 73.5405 49.3532C73.6797 47.8092 74.3241 46.5249 75.5096 45.5553C77.0064 44.3291 78.2032 44.418 78.6 46.5774C78.831 48.0245 78.4314 49.5658 77.4755 50.6866L77.4375 50.7281L77.4336 50.7286Z" fill="#FFE1F0"></path><path d="M116.481 64.0105C110.101 62.7027 103.845 66.9577 100.474 72.0843C97.2547 76.5411 96.2973 82.0985 98.2471 87.2842C99.84 92.0168 102.231 94.1631 107.061 95.4885C110.714 96.5543 115.073 96.0148 117.683 93.1414C119.729 90.2726 117.138 88.2148 114.257 88.3189C111.689 88.4621 113.278 87.4868 114.273 86.5284C115.432 85.4866 116.566 84.3803 117.557 83.1705C120.616 79.3287 122.824 74.0443 121.651 69.0837C121.033 66.9758 118.913 64.5427 116.535 64.0267L116.477 64.011L116.481 64.0105ZM112.597 78.5593C112.387 80.6735 110.386 82.4838 108.592 83.4765C108.021 83.8222 107.635 83.6654 107.595 82.971C107.387 80.7325 108.655 78.267 110.357 77.4435C111.324 76.9331 112.557 77.2449 112.592 78.4999L112.601 78.5587L112.597 78.5593Z" fill="#FFE1F0"></path><path d="M137.012 71.4311C136.303 72.3766 137.089 72.7242 137.868 73.0568C140.282 74.0438 141.164 76.4339 141.005 78.9608C140.687 83.4507 137.751 87.843 134.427 90.7306C132.614 92.3701 130.573 93.738 128.46 94.9884C127.549 95.5586 126.503 95.8763 125.41 95.7365C121.332 95.2717 121.527 91.4634 122.952 88.5594C123.218 88.0172 123.473 87.4728 123.692 86.9094C124.38 85.0628 125.211 83.2678 126.37 81.6659C126.617 81.2626 127.194 80.6241 126.761 80.1979C126.47 79.9594 126.006 79.9578 125.647 79.8492C124.529 79.589 123.818 78.5026 123.467 77.4447C122.566 74.7253 124.566 71.0349 125.774 68.5979C127.445 65.3226 129.781 62.4643 132.787 60.3542C134.818 58.9196 137.532 57.4754 140.039 58.441C141.274 58.9645 142.169 60.0805 142.257 61.396C142.512 63.3757 141.588 65.1602 140.417 66.6837C139.311 68.262 138.154 69.8197 137.037 71.3796L137.007 71.4238L137.012 71.4311Z" fill="#FFE1F0"></path><path d="M67.8681 86.2482C67.7337 89.6158 67.3259 93.0024 66.3828 96.2536C65.673 98.6753 64.0432 101.741 61.8817 103.074C60.3915 103.843 58.3603 103.99 56.9029 103.142C55.1162 101.977 54.4129 99.5777 54.0027 97.5761C53.8031 96.0685 54.0705 94.5261 53.9583 93.014C53.64 88.0471 55.5878 81.0799 61.0054 79.605C62.2582 79.3578 63.6757 79.3111 64.9201 79.7332C65.8303 80.0831 66.4991 80.8715 67.0682 81.7462C67.9819 83.0717 67.9463 84.7529 67.8687 86.1962L67.8647 86.2527L67.8681 86.2482Z" fill="#FFE1F0"></path><path d="M71.3502 70.3165C70.1306 75.0473 64.3022 77.9851 59.8366 75.6275C57.3677 74.3924 56.3633 72.6558 56.5589 69.9396C56.6145 67.3074 58.3419 65.5682 60.6794 64.6259C61.8269 64.1737 63.0029 63.7535 64.2445 63.6519C66.6005 63.539 68.5524 64.46 70.2132 66.0586C71.3995 67.0811 71.779 68.811 71.3664 70.2621L71.3541 70.3159L71.3502 70.3165Z" fill="#FFE1F0"></path></svg>