<svg xmlns="http://www.w3.org/2000/svg" width="100%" viewBox="0 0 201 86" fill="none" data-scroll-animation="draw" class="team__h2-circle-svg"><path d="M94.2928 1.00027C123.974 0.963816 154.146 4.60865 181.273 16.5546C189.974 20.3907 199.369 26.6143 199.971 36.0452C200.401 42.8702 195.929 49.03 190.946 53.75C180.208 63.9191 166.386 70.3066 152.306 74.9538C125.258 83.8745 96.2711 86.9179 67.9394 83.8289C50.4851 81.9245 33.011 77.6054 17.9651 68.6209C9.40333 63.509 1.07316 55.618 1.00038 45.7041C0.960683 39.7721 4.01088 34.1226 8.27852 29.9767C12.5461 25.8307 17.9452 23.015 23.4369 20.6915C48.2553 10.2126 75.8527 8.8093 102.795 7.54272" stroke="currentColor" stroke-width="2" stroke-linecap="round" stroke-linejoin="round" style="transform-origin: 0px 0px; stroke-dashoffset: 0; stroke-dasharray: 466.812px, 0.1px;" data-svg-origin="0.9999970197677612 0.9999998211860657"></path></svg>