<svg width="37" height="44" viewBox="0 0 37 44" fill="none" xmlns="http://www.w3.org/2000/svg">
<path d="M24.5801 2.74309C22.5254 -0.637517 17.6617 -0.896204 15.522 2.59577C13.8751 2.15696 12.2948 2.58672 11.0637 3.50473C9.69139 4.52803 8.73174 6.16738 8.52129 7.94354L8.51606 8.02857V18.0915C6.85016 17.5463 5.0264 17.5355 3.49937 18.1302C1.58613 18.8753 0.18078 20.5641 0.190122 23.1562L0.189941 23.1564C0.195371 24.7247 0.911474 26.0211 1.70078 27.1313C2.0938 27.6841 2.53164 28.2259 2.92132 28.727C3.32022 29.2399 3.67889 29.7228 3.96297 30.2071C4.72248 31.5015 5.23037 32.8199 5.85688 34.2294C6.47339 35.6165 7.18638 37.0412 8.3274 38.3859C11.7073 42.3712 17.069 44.2221 22.145 43.8608C27.2304 43.4987 32.1415 40.904 34.527 35.8652C35.774 33.2309 36.3893 29.2325 36.65 25.2731C36.8961 21.5363 36.8312 17.7403 36.6395 14.9635L36.5997 14.4221C36.4792 12.8934 35.9088 11.3232 34.9224 10.1261C34.0531 9.07118 32.8485 8.29691 31.3633 8.134C31.108 6.4999 30.3847 4.97231 29.2432 3.9306C28.0479 2.83986 26.4353 2.32382 24.5801 2.74309Z" fill="white"/>
<path d="M10.7343 7.84288C10.7732 7.58962 11.2316 6.56364 11.3943 6.2882C12.204 4.91469 13.4814 4.52464 15.0323 4.84075C15.6978 4.97754 16.0287 5.59683 16.6443 5.72068C17.2229 1.07329 22.6893 1.26925 23.4823 5.72068H23.7559C24.1922 5.14392 25.1239 4.88881 25.8189 4.86848C28.8987 4.77789 29.42 8.31427 29.2093 10.7008C31.4794 9.70257 33.4444 10.7581 34.1432 13.0596C34.7717 15.1245 34.5129 23.8592 34.3891 26.4823C34.036 33.9525 31.2631 40.9107 22.8427 41.5133C16.2044 41.9884 11.1429 39.9827 8.05387 33.947C7.39946 32.6678 6.99832 31.2092 6.33652 29.9429C4.99073 27.3697 1.19001 24.4138 2.83526 21.3506C4.42691 18.3892 9.01145 20.1638 10.7343 22.1381V7.84288ZM19.9219 4.27877C18.8479 4.43775 18.4615 5.65228 18.3266 6.57289C17.8607 9.75248 18.0474 14.1596 18.114 17.4427C18.1325 18.3799 18.7166 20.1805 17.9476 20.9495C17.3209 21.5743 16.5149 21.1491 16.3134 20.3468C16.1434 17.0434 16.3412 13.5181 16.0971 10.2331C16.0306 9.33285 15.8531 8.08135 15.2653 7.37518C13.9287 5.76875 12.7623 7.1478 12.5792 8.76533C11.9729 14.13 13.2558 20.3653 12.7734 25.7447C12.6865 26.719 12.204 27.4233 11.1817 26.7633C10.7491 26.4842 10.1409 24.5653 9.62518 23.8924C8.6066 22.5633 4.4454 20.2045 4.35666 22.9681C4.31415 24.2677 6.94101 27.0905 7.68969 28.4086C8.56223 29.9466 9.03917 31.7342 9.84332 33.2667C12.4665 38.2635 16.9013 40.0844 22.4619 39.661C35.2431 38.6887 31.8491 22.872 32.3519 14.1115C31.6513 11.1445 29.2204 12.1926 29.2093 14.8565L28.8026 21.4597C26.8264 23.3379 26.9336 20.504 26.9836 19.0898C27.0945 15.8436 27.6879 12.4015 27.3366 9.15908C26.8893 5.01452 23.8335 7.14226 23.852 10.0612L23.6247 20.3487C22.9573 21.8645 21.6115 21.2342 21.6171 19.6499C21.6319 15.546 22.2733 11.0465 21.7964 6.94261C21.6966 6.07931 21.0495 4.11425 19.9219 4.28062V4.27877Z" fill="black"/>
</svg>
