<svg width="139" height="121" viewBox="0 0 139 121" fill="none" xmlns="http://www.w3.org/2000/svg">
<path d="M138.466 56.6099C138.109 64.7242 134.688 72.9889 128.352 78.2004C124.039 81.5427 118.903 83.6851 114.349 86.6631C110.341 89.2767 105.981 91.5538 102.496 94.813C100.279 96.8405 98.5123 99.276 96.5956 101.577C93.6216 105.18 89.6377 107.766 85.3846 109.695C81.7968 111.327 78.0426 112.649 74.1142 113.366C71.2392 113.893 68.3483 114.265 65.5089 114.966C58.9549 116.586 52.5277 119.746 45.6886 119.956C32.854 121.005 19.5203 115.603 11.0814 105.798C4.7888 98.7572 0.836632 89.9539 0.175296 80.5883C-0.276154 75.0283 0.0762941 69.3377 2.03654 64.2212C4.91949 56.9941 10.3923 50.7688 17.0136 46.6978C20.3718 44.698 23.6784 42.6823 24.3675 38.7895C24.8427 36.6788 24.8902 34.3028 25.4724 32.1683C26.3436 28.4339 29.5117 25.749 31.9154 23.0957C33.2856 21.5631 34.4143 19.8643 35.2736 17.9951C37.218 13.5281 38.4535 8.97796 42.8492 6.17422C48.2271 2.36065 53.8227 4.90303 59.6202 3.36651C65.5723 1.60427 69.3066 -1.73409 75.9992 1.09738C78.1099 1.97256 79.9236 3.60412 81.4285 5.25547C83.3214 7.25532 85.1193 9.37001 87.927 9.36605C89.5427 9.40961 91.4633 8.80768 93.6335 8.19386C99.7954 6.45538 106.694 6.06333 112.923 7.80577C120.677 9.80958 126.708 15.3339 130.91 22.2007C137.266 32.192 139.21 44.999 138.47 56.5307V56.606L138.466 56.6099Z" fill="#4B69F0"/>
<path d="M126.562 47.09C126.122 43.7437 125.287 40.4846 124.685 37.1621C124.534 36.3898 124.336 35.6176 124.059 34.885C122.459 31.0596 120.059 27.6024 117.624 24.2205C116.661 22.874 115.307 21.9751 113.858 21.2068C111.236 19.5872 108.06 18.6724 105.114 18.7912C100.94 18.7991 96.7144 19.4367 92.8969 21.2702C91.6336 21.9117 90.703 23.1433 89.9229 24.2601C89.1507 25.4521 88.6834 26.7866 88.7705 28.339C88.7665 29.3528 89.3843 30.7467 88.2398 31.3605C86.6717 32.0892 84.8896 32.5763 83.3056 33.3049C79.686 34.9008 76.2962 37.3007 73.041 39.5936C71.7342 40.4212 70.2571 41.035 69.1324 42.128C67.9523 43.2012 67.0058 44.5318 66.0554 45.9376C65.8574 46.2109 65.6158 46.4841 65.3307 46.6465C64.9189 46.896 64.3724 46.888 63.8813 46.8049C61.133 46.3455 58.353 45.902 55.5414 45.5297C54.0563 45.3159 52.5673 45.5416 51.0704 45.4822C48.9795 45.3674 46.9163 44.912 44.8056 45.1258C42.1167 45.2248 40.3346 47.5494 37.9625 48.484C35.7686 49.4542 34.0658 51.1927 32.3233 52.7767C31.8204 53.2202 31.266 53.5687 30.6443 53.8103C28.0742 54.8122 25.2823 55.3785 22.8112 56.6259C21.9043 57.1526 21.3341 58.107 20.546 58.8C20.1421 59.1643 19.6867 59.4732 19.259 59.8098C18.2492 60.5583 17.5324 61.576 16.6572 62.475C15.1365 63.9758 14.2851 65.9638 13.2001 67.7656C12.808 68.4349 12.5427 69.1715 12.4199 69.9358C11.9922 72.2564 11.6992 74.6285 11.9724 77.0045C12.111 79.0282 12.0318 81.0716 12.3803 83.0674C12.5506 84.0852 12.8793 85.0752 13.2476 86.0375C14.3168 88.7898 15.2514 91.6569 17.0572 93.9617C18.17 95.3715 19.4016 96.6822 20.5262 98.0841C23.3498 101.415 27.0525 103.854 31.0442 105.581C34.2717 106.883 37.7091 107.422 41.1583 107.818C43.5423 108.147 45.8708 107.553 48.2231 107.129C49.9062 106.844 51.6684 106.836 53.2762 106.198C56.8324 104.86 59.7311 101.62 63.5606 100.924C64.6813 100.821 65.8891 101.411 67.0177 101.636C67.8533 101.815 68.7126 101.882 69.568 101.85C72.0351 101.731 74.3795 100.773 76.7001 99.9968C79.1316 99.1137 81.5156 98.1277 83.8243 96.9357C86.5053 95.6328 88.4062 93.5459 89.5427 90.8688C91.1386 88.2235 91.0515 84.992 88.3745 83.111C86.8142 82.1883 87.8874 80.8102 88.9685 79.8677C92.5405 77.2223 91.0674 83.5823 100.952 80.7072C102.888 80.2241 104.334 78.8103 105.945 77.6976C108.056 76.3155 109.335 73.8602 111.264 72.3277C112.519 71.6782 114.23 71.7772 115.64 71.504C119.327 71.1713 121.251 69.3101 123.235 66.34C125.896 63.2036 126.185 61.477 126.288 57.4417C126.542 54.0241 126.97 50.5709 126.578 47.1652L126.566 47.09H126.562ZM91.3881 48.6226C92.5405 46.393 92.6514 43.7952 93.38 41.4271C93.7167 40.5163 94.679 41.0865 94.9641 41.736C95.2096 42.227 95.2254 42.7418 95.1938 43.2883C95.0156 45.6644 94.1721 47.9177 92.6157 49.672C91.7841 50.6185 91.107 49.6641 91.3683 48.6899L91.3881 48.6226ZM83.9669 66.439C83.5471 64.1224 85.0678 63.2828 86.6915 62.1027C88.1092 61.0256 89.7407 60.2415 91.0911 59.0891C91.9623 58.4198 92.4811 57.4259 93.1662 56.5942C94.0374 55.6992 95.5304 55.7309 96.7026 55.4062C99.1855 54.6775 97.7243 56.8596 97.055 57.9169C94.4651 61.2275 91.5505 64.3639 88.121 66.8667C86.6439 67.8211 83.9075 69.7576 83.9669 66.5182L83.959 66.439H83.9669ZM71.7263 44.9753C73.6033 43.621 75.3656 42.0488 77.1793 40.5875C78.9891 39.5579 80.9652 38.8055 82.767 37.764C83.7649 37.1937 84.7233 36.469 85.8281 36.1166C86.64 35.8592 87.5151 35.6057 88.3111 35.3365C90.1565 34.8494 89.5625 38.1956 89.3962 39.1263C89.1942 40.3975 88.0498 41.1221 87.0439 41.7676C85.6301 42.6983 84.2243 43.5616 82.8145 44.4763C81.9314 45.1575 80.1969 45.9059 80.3553 47.2128C80.5097 47.8701 81.3532 48.8245 82.2047 48.7374C83.8283 48.3533 84.9807 46.8722 86.735 46.4802C87.5587 46.2465 87.8993 46.7019 87.6815 47.4979C85.7767 54.3409 90.1684 55.1171 87.4676 57.212C86.5212 57.9486 85.5272 58.5584 84.6084 59.3544C84.0421 59.8217 83.4996 60.3642 82.8502 60.7048C82.0938 61.3147 77.8406 61.6711 78.3 60.0078C78.5535 59.2633 79.0881 58.4594 79.3494 57.6714C80.8028 54.1429 78.7831 49.9452 75.1557 48.8047C74.0746 48.4166 72.8707 48.1711 71.7857 47.8741C71.152 47.6919 70.3086 47.5454 70.1026 47.1732C69.7819 46.492 71.1283 45.5495 71.6669 45.0228L71.7263 44.9753ZM68.6493 74.7948C69.7581 74.0384 70.6887 73.0484 71.6114 72.0782C72.3401 71.306 73.1915 70.4981 73.1281 69.5041C73.041 68.3161 72.1856 67.338 71.8332 66.2371C71.7104 65.841 71.7263 65.4648 71.9243 65.1441C72.8668 63.9996 74.4666 63.4491 75.924 63.3779C79.5395 63.3224 81.4324 66.1301 79.9197 69.413C79.2029 70.906 77.7377 72.0148 76.4309 72.9771C74.0508 74.6879 71.4253 76.0026 69.0532 77.7134C66.3207 79.9113 62.923 80.7864 59.4777 81.1508C58.163 81.1943 56.765 81.8596 55.5097 81.6181C54.682 81.3606 53.4465 80.8379 53.193 80.1053C52.9039 78.941 54.5276 76.8224 55.4899 76.6244C56.4363 76.3353 58.0521 76.9847 59.3351 77.1907C62.5864 77.7847 65.8534 76.6957 68.5819 74.8463L68.6453 74.8027L68.6493 74.7948ZM61.2993 67.9478C60.5746 67.5558 60.2341 66.1975 61.3152 66.146C63.521 66.6172 65.7148 67.3063 67.6672 68.5695C67.8612 68.7002 68.083 68.8864 68.1305 69.1002C68.1503 69.0923 68.1384 69.3338 68.1186 69.318L68.0671 69.417C67.6196 69.8962 66.9266 69.5833 66.3405 69.5477C64.6021 69.4012 62.8359 68.9893 61.3627 67.9914L61.2993 67.9439V67.9478ZM47.2965 49.0384C48.635 49.1691 49.9735 48.8879 51.2882 49.1809C55.6126 50.1591 60.0994 50.1314 64.4635 50.9036C66.9662 51.3669 69.4967 51.6758 71.9955 52.1391C72.6965 52.2738 73.3974 52.4559 74.031 52.7886C77.1357 54.4558 76.3318 57.4853 73.6905 59.1247C72.154 60.1781 70.4709 61.0414 68.8631 62.0156C68.0236 62.5225 67.093 63.0611 66.1069 63.1284C65.2198 63.2155 64.3763 62.966 63.5606 62.6492C61.2043 61.7344 58.8956 60.6177 56.5195 59.5207C55.4661 59.0653 55.5255 58.5901 56.5116 58.1109C58.1313 57.2437 59.9054 57.0378 61.7033 56.7645C63.5091 56.5269 64.8951 55.125 63.8417 53.3232C62.8834 51.6322 60.8202 52.8321 59.4064 53.1569C57.4977 53.7034 55.5612 54.1073 53.791 54.8359C52.5396 55.2359 51.2763 56.2339 49.9141 55.8695C47.7439 55.1805 45.6134 53.4143 43.4354 52.8005C42.3424 52.5272 41.1464 52.4837 40.0574 52.2342C39.202 52.0401 39.5466 51.6283 40.0891 51.3273C42.0652 50.1908 43.8274 49.0146 45.9738 48.979C46.3896 48.9711 46.8054 48.9988 47.2173 49.0265H47.2965V49.0384ZM60.8954 97.3515C60.6736 97.9614 60.0717 98.3217 59.5094 98.6029C57.7709 99.4385 56.0087 100.215 54.2662 101.038C52.4802 101.818 50.7893 102.927 48.8805 103.41C42.8374 104.464 35.6379 103.205 30.0819 100.761C28.0108 99.7513 26.304 98.1316 24.6328 96.6347C23.7299 95.8308 22.7201 95.1299 21.9321 94.2309C21.045 93.3241 20.6965 92.0529 20.1263 90.9678C19.5996 90.0927 18.7957 89.3204 18.3363 88.37C16.1266 83.0001 14.198 76.3907 16.4275 70.712C17.1206 69.318 17.0532 67.5676 18.3046 66.5103C19.8649 65.053 20.7044 62.9779 22.1618 61.4533C22.7122 60.8672 23.4013 60.4712 24.1537 60.2098C25.9912 59.5722 27.8445 58.9465 29.6978 58.3327C33.4441 57.1051 37.3447 55.6596 41.3444 56.3883C43.3403 56.6378 45.0234 57.6912 46.6826 58.7564C48.6508 59.9682 50.6309 61.1523 52.7495 62.0988C54.1435 62.7047 55.5216 63.2828 56.6621 64.2728C57.1175 64.6966 57.1214 65.3104 57.0304 65.8846C56.9036 66.6885 57.0818 67.4964 57.3472 68.3478C57.7155 69.6784 58.4085 70.7872 59.5252 71.5238C59.8895 71.8287 60.5548 72.1257 60.6103 72.589C60.6182 72.9217 59.7866 73.1118 59.1173 73.0128C58.5986 72.9336 58.1154 72.7078 57.6085 72.5732C56.8522 72.3475 56.0166 72.3752 55.2523 72.1178C54.5593 71.9 53.9058 71.5713 53.2326 71.2664C45.9619 67.8884 42.2513 72.3752 35.5944 73.3296C34.1252 73.6305 32.256 73.0959 30.9809 74.0226C30.3869 74.4899 30.2443 75.3492 30.5928 76.07C31.0205 77.0125 32.1055 77.3134 33.0678 77.361C35.634 77.4006 38.2318 77.0125 40.7029 76.3274C42.7384 75.5868 44.6947 74.5414 46.8846 74.379C47.8311 74.28 52.2664 73.8959 50.7853 75.868C49.5102 77.8243 48.7736 81.131 50.8289 82.8378C52.3773 84.1208 53.9771 85.095 56.0087 84.9683C56.7967 85.0119 57.0937 85.5148 56.8799 86.283C55.6998 89.4986 56.7413 91.9935 59.5886 93.9141C60.7053 94.6151 61.2479 96.013 60.9033 97.2921L60.8796 97.3555L60.8954 97.3515ZM63.4814 90.7936C60.7528 90.4768 60.5152 89.1462 60.3648 86.6157C60.3252 86.2434 60.2697 85.8118 60.44 85.4752C60.6024 85.1267 61.0895 84.9485 61.4894 84.8574C64.115 84.2674 66.5861 83.1704 69.0176 81.9824C72.0153 80.6676 74.827 79.0678 77.3417 76.9214C78.8584 75.5433 80.8939 75.3136 82.862 75.6383C83.2581 75.6977 83.658 75.8165 83.9748 76.062C85.7648 77.7253 83.8719 80.0657 82.6561 81.4596C81.3255 83.2536 79.7454 84.9841 77.6783 85.9742C75.1438 87.2057 72.7876 88.9086 70.0749 89.7244C67.9681 90.3976 65.8178 91.1104 63.5645 90.8055L63.4814 90.7936ZM86.9013 88.7858C86.7707 90.2709 85.642 91.3242 84.3748 91.9737C79.892 94.627 75.524 97.7475 70.1185 97.6762C68.5463 97.7713 66.891 97.8901 65.6594 96.7733C64.8436 96.1041 63.9249 95.1101 65.3743 94.9002C67.1365 94.6111 68.78 94.33 70.4273 93.7082C74.2964 92.1598 78.3792 90.6867 81.6938 88.1166C82.767 87.3404 83.761 85.8672 85.2381 86.1286C86.4538 86.3187 87.1231 87.5503 86.9132 88.7145L86.9053 88.7898L86.9013 88.7858ZM88.4656 75.5789C87.828 75.468 87.2023 74.6602 86.632 74.1612C86.1014 73.6781 85.345 73.0167 86.2519 72.4306C91.3762 69.223 96.0729 65.6787 99.6251 60.7365C100.686 59.2079 101.118 60.7048 100.663 61.8295C99.6568 64.6689 98.0213 67.2429 95.9224 69.4328C94.4215 71.1198 92.8771 72.7356 91.1584 74.1018C90.3506 74.6404 89.5308 75.5829 88.5289 75.5868L88.4656 75.5789ZM104.928 73.5236C102.892 75.2146 98.7935 77.9748 96.1481 77.7213C95.0591 77.5431 94.0731 76.8303 95.17 75.8126C97.2451 73.6385 99.3321 71.5119 101.312 69.3022C102.199 68.3517 102.821 67.2786 103.344 66.0707C103.534 65.6787 103.807 65.2708 104.167 65.0688C104.738 64.752 105.49 64.7283 106.108 64.9342C107.316 65.4609 107.577 67.4726 107.585 68.728C107.529 70.6011 106.448 72.193 104.991 73.4682L104.928 73.5236ZM122.503 57.4932C122.542 58.6258 122.027 59.5881 121.623 60.6533C121.053 62.277 120.313 63.8927 119.156 65.2114C118.166 66.4747 116.848 67.3974 115.256 67.6825C114.388 67.8251 113.283 68.1656 112.484 67.9241C111.957 67.7498 111.636 67.2152 111.422 66.7162C110.852 65.3896 110.408 64.1897 109.692 63.0729C109.034 62.0275 107.981 61.2671 106.821 60.879C105.85 60.6256 105.015 60.0752 104.686 59.0891C103.68 56.7526 103.13 54.3172 102.278 51.9451C101.973 50.9155 102.619 50.1036 103.13 49.1493C103.308 48.8324 103.613 48.282 103.965 48.278C104.373 48.286 104.662 48.8681 104.876 49.2047C106.104 51.2798 107.217 53.2084 108.452 55.1884C108.939 55.9329 109.45 56.7289 110.25 57.1605C112.052 58.0753 113.636 56.5705 112.832 54.7092C111.68 52.2579 109.597 50.3254 108.646 47.7593C107.914 45.5614 106.722 43.613 105.601 41.5855C105.145 40.8053 104.674 39.8747 103.922 39.3639C103.201 38.8649 101.981 39.0708 101.482 39.847C101.027 40.54 101.094 41.5419 100.96 42.3854C100.774 44.0447 100.524 45.6961 99.7637 47.2128C99.3875 47.981 98.3341 49.4938 97.6926 49.6324C97.1065 49.6047 98.251 47.5613 98.2747 47.1415C98.6232 46.0168 98.5994 44.8328 98.8212 43.6685C98.9836 42.7656 99.1341 41.8033 98.94 40.9004C98.7222 39.752 97.9975 38.7659 97.0154 38.1402C95.1066 37.0551 93.6295 37.1066 93.2612 34.6355C92.9009 32.4733 92.2633 30.418 92.8058 28.2479C93.8513 24.165 96.8728 22.9691 100.801 22.8938C104.318 22.6642 107.767 22.1612 110.903 24.2046C117.164 28.0855 119.228 32.8297 121.085 39.6371C121.532 41.0984 121.94 42.5715 122.186 44.0803C122.582 46.6544 122.503 49.2879 122.796 51.8778C122.954 53.739 122.344 55.5646 122.499 57.414V57.4853L122.503 57.4932Z" fill="#F0BEFA"/>
<path d="M77.6821 27.0797C76.8347 28.8974 74.5972 27.7925 73.3062 27.0876C72.336 26.549 71.6192 25.7372 70.9856 24.8106C70.3639 23.9195 69.8253 22.9533 69.2828 22.0504C69.0769 21.7098 68.7601 21.3336 68.3641 21.3574C67.8215 21.389 67.2711 21.9593 66.8038 22.288C66.1028 22.8226 65.3821 23.3533 64.6099 23.7928C61.8061 25.361 58.5945 26.1491 55.5254 24.7432C54.7651 24.4106 54.0206 24.0146 53.2603 23.7097C52.8286 23.5354 52.4366 23.4721 52.1792 23.6384C51.6287 24.0423 51.7119 25.1155 51.5614 25.7491C51.0347 28.3548 50.2783 30.9804 48.726 33.1901C46.5756 36.0691 43.3165 37.9224 39.6613 37.6333C38.406 37.4829 36.5566 36.8888 36.1725 35.5701C36.0972 35.083 36.5526 34.6118 37.1348 34.3584C38.4654 33.8198 40.0058 34.3148 41.3602 33.8198C43.1422 33.3406 44.3857 31.8041 45.4708 30.3547C46.5677 28.9924 47.3003 27.3569 47.3558 25.5907C47.6448 23.1156 47.3082 20.6248 47.6052 18.2368C47.8508 16.5855 49.815 14.6015 51.4188 15.8885C52.0168 16.3637 52.4722 17.1478 53.0187 17.7458C54.1196 18.7991 55.173 20.1931 56.5115 20.898C59.6004 21.9157 62.9506 20.6802 65.0574 18.3319C66.6493 16.6647 67.9403 14.9856 69.0293 13.0412C69.3976 12.3878 69.9718 11.6551 70.7243 11.6393C71.4727 11.6037 72.2925 12.0868 72.6687 12.7481C73.2112 13.6827 72.8786 14.8193 72.7439 15.8291C72.4905 17.421 73.0528 18.9734 73.2112 20.5297C73.2587 22.4424 74.9576 23.7097 76.3357 24.7749C77.0921 25.2541 78.1296 26.0105 77.7099 27.0045L77.6861 27.0678L77.6821 27.0797Z" fill="#F0BEFA"/>
</svg>
