<svg width="234" height="124" viewBox="0 0 234 124" fill="none" xmlns="http://www.w3.org/2000/svg">
<path d="M0.506911 47.4736C2.51468 60.1776 12.6802 70.5966 24.8219 74.2201C28.8849 75.4635 33.0747 75.8635 37.2684 76.0219C47.3152 76.3585 57.659 75.6497 67.6582 75.9585C73.6221 76.2872 79.1187 77.499 84.6945 79.1939C89.902 80.7067 94.9868 82.9164 99.4577 86.0647C105.172 90.009 110.51 94.3017 115.821 98.931C122.161 104.602 129.467 109.425 138.275 108.879C143.379 108.677 148.321 105.889 152.606 104.194C156.317 102.65 158.772 103.485 161.093 106.229C166.902 113.465 171.29 120.755 181.36 122.953C195.534 125.895 215.663 117.848 225.547 107.825C235.653 97.9291 236.556 82.8174 227.333 71.8321C223.599 67.2226 218.126 63.904 213.96 59.8568C209.885 55.972 208.713 51.7307 209.33 45.9688C209.75 41.4701 210.823 36.5081 210.57 31.8669C210.273 23.6022 205.164 16.9928 198.646 11.7536C189.621 4.73233 176.268 -2.58988 164.787 0.895004C157.037 3.24334 151.775 9.71809 148.955 17.0957C147.244 21.1034 146.203 24.5684 144.029 27.891C138.718 36.0329 129.028 28.1484 122.145 24.8219C119.318 23.3091 116.387 21.931 113.33 20.9727C106.59 18.7431 99.3785 18.6758 92.4127 17.8284C86.6468 17.1551 81.0354 16.1968 75.4318 14.791C68.1374 12.8941 61.1834 9.70621 53.8691 7.7816C40.686 3.96012 29.5898 2.70873 17.4561 10.6606C5.40159 18.359 -2.03943 33.1302 0.495031 47.3984L0.506911 47.4736Z" fill="#A0325A"/>
<path d="M222.063 87.7557C218.114 104.55 198.963 109.497 183.959 110.982C179.686 111.615 176.244 109.984 174.351 106.028C172.066 101.727 170.522 97.2045 169.164 92.5712C164.974 80.9919 164.764 68.2127 176.03 60.641C181.194 56.9818 188.742 58.0471 193.423 62.0151C195.894 64.0942 196.975 67.2385 198.452 70.0818C199.787 72.8103 202.615 72.541 205.2 72.1371C214.004 71.1075 222.506 78.8495 222.078 87.6686L222.066 87.7557H222.063Z" fill="#FFE1F0"/>
<path d="M162.17 63.306C161.984 59.6786 159.537 56.9937 157.224 54.4909C154.266 50.5625 150.512 49.8378 145.961 48.7527C144.191 48.4201 142.409 49.0022 140.639 49.2002C138.52 49.5526 136.414 50.0081 134.382 50.7328C129.464 52.4792 125.816 55.865 122.72 59.8212C120.205 62.9417 118.973 66.6167 117.991 70.3709C117.54 72.1569 116.926 73.9706 117.275 75.8239C117.975 78.8771 118.981 81.8908 120.114 84.8133C121.27 87.8982 123.749 90.2426 126.232 92.3058C128.466 94.7135 131.238 96.3411 134.307 97.1411C136.176 97.6242 138.231 98.0638 140.14 97.6994C143.478 97.1728 145.53 94.7729 144.94 91.3435C144.354 88.1239 141.293 86.0885 140.417 83.0233C140.394 82.6273 140.837 82.4293 141.209 82.3699C143.372 82.0056 145.253 81.9185 147.387 81.8314C150.797 81.6017 153.83 80.1721 156.305 77.8792C157.826 76.5526 159.414 75.1269 160.352 73.2696C161.002 71.9589 160.986 70.5887 161.548 69.3095C162.388 67.4443 162.325 65.3653 162.182 63.3971L162.174 63.3021L162.17 63.306ZM142.389 74.1765C141.427 75.3843 139.91 76.6476 138.655 76.5763C136.758 76.4932 133.012 75.4794 134.556 72.9647C135.261 71.9509 136.39 71.1787 137.606 70.949C139.126 70.7669 140.944 70.4936 142.271 71.4242C143.094 72.0975 143.098 73.2102 142.445 74.0894L142.385 74.1725L142.389 74.1765Z" fill="#FFE1F0"/>
<path d="M199.343 36.7616C196.75 44.8125 188.374 48.5904 180.834 50.5942C178.264 51.2595 175.646 51.7268 172.989 52.0634C171.298 52.2812 169.496 52.2852 167.857 51.7862C165.896 51.208 164.423 49.8141 163.382 48.1033C161.711 45.4303 160.21 42.6384 159.568 39.4703C159.323 38.3179 159.002 37.1893 158.646 36.0686C156.943 30.6908 156.285 24.4616 158.915 19.3293C160.582 16.0662 163.113 12.8664 166.748 11.7536C170.807 10.4825 175.424 11.5556 178.398 14.7514C179.46 15.8801 180.188 17.2067 180.751 18.5808C181.495 20.5926 182.458 22.1528 184.846 22.1172C186.517 22.1766 188.049 21.9865 189.689 22.1924C196.429 22.8696 201.993 30.1087 199.371 36.6785L199.339 36.7656L199.343 36.7616Z" fill="#FFE1F0"/>
<path d="M49.4461 29.8671C47.6799 31.2135 45.7355 32.4411 43.8782 33.6806C40.1557 36.1597 36.1481 38.2862 33.8671 42.2622C32.2909 44.6778 32.6117 48.032 35.2254 49.3428C37.0827 50.2774 39.3241 50.0952 41.1972 51.01C43.8901 52.2139 45.9255 54.8473 46.4839 57.6946C47.1175 61.1954 46.0958 63.6387 42.3931 64.6248C40.3616 65.0406 38.2984 64.9218 36.2471 65.1238C33.9938 65.3376 32.0454 64.2288 30.0179 63.4843C27.1903 62.4943 24.1886 61.7894 21.6145 60.1618C16.7713 56.9303 13.4171 52.008 12.3717 46.2658C11.6311 41.1969 12.5459 35.5577 15.2784 31.2571C16.803 28.8454 18.0227 26.1485 20.3037 24.2833C21.3928 23.3963 22.7352 22.9132 23.852 22.1607C25.4756 21.1113 26.8933 19.7292 28.6199 18.8303C30.2238 17.9908 31.9623 17.5235 33.7166 17.0997C38.1717 16.0028 42.8802 16.0582 46.8166 18.4778C48.4362 19.4916 49.7272 21.1153 50.8123 22.6478C51.0657 23.024 51.2796 23.4121 51.3905 23.8517C51.7667 25.8515 50.9034 28.584 49.5015 29.8116L49.4381 29.8671H49.4461Z" fill="#FFE1F0"/>
<path d="M93.1692 40.8564C92.401 43.3552 91.9733 46.052 90.912 48.4281C89.5378 51.3506 88.1359 54.3009 85.8114 56.6452C81.9027 61.3815 76.7626 65.0446 70.2918 64.4585C67.0603 64.1377 63.7734 64.0506 60.6806 62.9656C55.8691 61.2706 51.9367 57.362 51.5645 52.1307C51.216 49.4141 51.0457 46.3965 51.6872 43.7195C52.1941 40.2821 53.299 36.9002 54.982 33.8787C56.6453 30.8056 59.1995 28.3227 61.7894 26.0337C64.3635 23.8042 65.5515 24.6398 68.5533 24.7863C70.3512 24.7705 71.6778 26.1288 72.6757 27.5108C73.4598 28.988 73.0797 30.865 73.0242 32.4847C72.7351 37.5576 67.9751 40.698 66.9692 45.5609C66.7792 46.7054 66.3198 47.9845 66.894 49.0577C67.6623 50.2893 69.1394 50.317 70.2601 49.4814C71.6105 48.531 72.4183 47.046 73.3846 45.751C75.9626 42.286 78.4179 38.71 81.3483 35.5182C83.071 33.5064 85.6371 32.9362 88.2349 32.8649C89.0626 32.8451 89.9378 33.0391 90.6031 33.5223C92.6069 35.1261 93.8741 38.2269 93.193 40.7574L93.1692 40.8484V40.8564Z" fill="#FFE1F0"/>
<path d="M128.287 48.3053C126.545 53.0376 121.254 49.3943 117.845 49.327C116.977 49.4418 116.637 50.3922 116.344 51.113C115.152 54.2494 113.865 57.3382 112.728 60.4905C111.366 64.2565 110.459 68.3275 107.984 71.5589C106.333 73.8122 102.864 74.0894 100.393 73.3608C98.8323 72.8024 97.5532 71.456 96.5671 70.1293C96.0325 69.2898 95.981 68.0503 95.5058 67.088C95.1336 66.3633 94.9593 65.6069 95.09 64.7872C95.787 59.1322 98.0165 54.6216 100.745 50.1269C101.569 48.7211 102.412 47.2796 103.153 45.8342C103.323 45.4738 103.434 45.1016 103.414 44.7412C103.208 43.2126 101.501 42.1909 100.214 41.5216C98.3254 40.496 97.3987 38.7852 96.8126 36.8685C96.4285 35.4864 95.9216 33.7796 96.6701 32.457C98.1472 30.4056 101.608 29.6651 104.048 30.2948C108.202 31.1581 112.269 32.5837 115.793 34.9835C119.029 37.1774 122.28 39.3198 125.448 41.5969C127.967 43.2641 129.563 45.058 128.323 48.2181L128.287 48.3092V48.3053Z" fill="#FFE1F0"/>
</svg>
