<svg xmlns="http://www.w3.org/2000/svg" width="100%" viewBox="0 0 24 24" fill="none" class="vimeo-player__pause-svg"><path d="M5.5 5.125H8.5C8.70711 5.125 8.875 5.29289 8.875 5.5V18.5C8.875 18.7071 8.70711 18.875 8.5 18.875H5.5C5.29289 18.875 5.125 18.7071 5.125 18.5V5.5C5.125 5.29289 5.29289 5.125 5.5 5.125Z" stroke="currentColor" stroke-width="1.25" stroke-miterlimit="10"></path><path d="M15.5 5.125H18.5C18.7071 5.125 18.875 5.29289 18.875 5.5V18.5C18.875 18.7071 18.7071 18.875 18.5 18.875H15.5C15.2929 18.875 15.125 18.7071 15.125 18.5V5.5C15.125 5.29289 15.2929 5.125 15.5 5.125Z" stroke="currentColor" stroke-width="1.25" stroke-miterlimit="10"></path></svg>