<svg xmlns="http://www.w3.org/2000/svg" width="100%" viewBox="0 0 449 458" fill="none" class="flick-group__blob-back-svg"><path d="M404.776 223.259C398.804 258.396 403.743 292.836 415.688 327.792C416.361 329.723 417.484 333.136 416.339 334.169L416.226 334.281C415.328 335.201 413.218 335.089 410.681 334.595C400.847 332.777 391.912 330.554 382.078 329.229C352.936 326.647 323.413 330.778 296.718 343.531C273.728 353.858 258.259 366.813 243.576 387.131C226.872 406.103 219.576 425.029 217.667 450.376C217.151 459.469 213.02 460.143 208.889 451.454C200.537 434.503 193.532 416.273 182.172 401.141C171.013 386.974 159.047 372.717 144.813 361.784C136.977 355.991 129.726 349.391 121.419 344.249C117.153 341.578 112.281 340.006 107.97 337.536C92.9953 327.186 75.6629 320.922 58.2856 315.848C41.0655 310.146 23.1044 307.003 4.96379 305.723C1.32668 305.633 -1.74915 305.341 1.14707 301.39C3.84122 297.977 6.58028 294.744 8.98257 291.085C15.3812 281.52 21.3757 271.462 23.8902 259.967C25.372 252.513 27.7743 245.172 28.0662 237.561C27.9315 219.734 23.3963 201.459 12.8442 186.911C5.86184 177.414 9.29689 175.258 20.1184 175.438C38.9326 175.438 57.163 170.589 74.9893 164.796C92.5014 159.565 110.687 155.232 125.595 144.163C143.286 132.174 160.439 118.928 173.977 102.314C177.21 98.3179 179.253 93.5134 182.082 89.2476C186.819 82.7367 192.32 76.6973 195.553 69.1986C199.998 59.9487 202.221 49.5313 204.825 39.6078C206.509 32.6928 208.462 25.7778 209.226 18.6832C210.326 14.4624 207.542 -0.71468 212.257 0.0262124C214.928 0.609946 218.341 6.08806 220.384 9.05163C225.256 16.1687 230.24 23.2408 234.753 30.6049C240.321 40.3263 249.279 47.1515 257.496 54.3583C262.278 58.5792 266.409 63.8328 271.618 67.7168C276.759 71.6233 282.551 74.4747 288.164 77.6179C305.384 88.5965 324.715 94.6808 343.821 101.506C351.387 104.425 359.312 106.198 367.328 107.276C391.103 110.531 414.812 115.695 438.835 115.65C444.313 115.807 453.72 114.64 446.199 123.261C422.288 153.099 411.018 187.113 404.754 223.237L404.776 223.259Z" fill="#E6FAB9"></path></svg>