<svg xmlns="http://www.w3.org/2000/svg" width="100%" viewBox="0 0 54 54" fill="none" class="mute__unmute-svg"><path d="M29 10.5C29 9.95184 28.701 9.44732 28.2202 9.18416C27.7392 8.921 27.1532 8.9411 26.6914 9.2366L14.6843 16.9211C14.6039 16.9726 14.5103 17 14.4148 17H8.5C6.567 17 5 18.567 5 20.5V33.5C5 35.433 6.567 37 8.5 37H14.4148C14.5103 37 14.6039 37.0274 14.6843 37.0788L26.6914 44.7634C27.1532 45.0588 27.7392 45.079 28.2202 44.8158C28.701 44.5526 29 44.0482 29 43.5V10.5Z" fill="currentColor"></path><path d="M40.435 11.4432C41.0208 10.8575 41.9704 10.8575 42.5562 11.4432C46.5358 15.4228 49 20.9249 49 26.9996C49 33.0744 46.5358 38.5764 42.5562 42.556C41.9704 43.1418 41.0208 43.1418 40.435 42.556C39.8492 41.9702 39.8492 41.0204 40.435 40.4346C43.875 36.9946 46 32.2468 46 26.9996C46 21.7525 43.875 17.0045 40.435 13.5646C39.8492 12.9788 39.8492 12.029 40.435 11.4432Z" fill="currentColor"></path><path d="M35.8388 18.162C35.253 17.5762 34.3032 17.5762 33.7174 18.162C33.1316 18.7478 33.1316 19.6975 33.7174 20.2833C35.4382 22.0041 36.5 24.377 36.5 27.0008C36.5 29.6246 35.4382 31.9976 33.7174 33.7184C33.1316 34.3042 33.1316 35.2538 33.7174 35.8396C34.3032 36.4254 35.253 36.4254 35.8388 35.8396C38.0992 33.5792 39.5 30.4522 39.5 27.0008C39.5 23.5494 38.0992 20.4224 35.8388 18.162Z" fill="currentColor"></path></svg>