<svg xmlns="http://www.w3.org/2000/svg" width="100%" viewBox="0 0 40 40" fill="none" data-wiggle-target=""><path d="M35.7673 17.7056C35.5701 16.7041 35.4805 15.6928 35.2035 14.7093C34.9706 13.9378 34.6056 13.2315 34.2195 12.5366C33.5922 11.3378 32.7581 10.2775 31.8962 9.22711C31.2087 8.3773 30.4299 7.59599 29.5322 6.96965C27.8932 5.91758 26.1075 5.03189 24.2519 4.4349C23.302 4.17392 22.3277 4.03038 21.3404 4.04996C20.4753 4.04506 19.6102 3.9733 18.7483 4.01081C17.049 4.05975 15.4019 4.61922 13.8166 5.16074C12.51 5.59951 11.363 6.38082 10.26 7.19148C9.825 7.50628 9.50404 7.9369 9.12769 8.31531C7.22801 10.0394 5.69979 12.2332 4.89495 14.6848C4.6082 15.6194 4.47135 16.572 4.19763 17.5115C4.051 18.0057 3.99398 18.5147 4.0005 19.0285C4.00701 20.1311 3.97117 21.2011 4.15202 22.2874C4.49253 24.9608 5.62973 27.2362 7.15632 29.3844C7.60599 30.0221 8.15504 30.5718 8.61774 31.1982C8.97128 31.6794 9.35741 32.154 9.84455 32.5047C10.304 32.857 10.8351 33.0479 11.3386 33.3431C11.899 33.6693 12.3976 34.1081 13.0069 34.3185C13.4468 34.4653 13.8769 34.6349 14.2858 34.8551C15.3237 35.382 16.5407 35.3624 17.6502 35.6805C18.9389 36.0181 20.2521 36.0899 21.5441 35.8876C22.3799 35.8061 23.2271 35.7637 24.0172 35.457C24.7048 35.1667 25.4835 35.1145 26.176 34.8682C26.4643 34.7605 26.7283 34.6039 26.9906 34.4441C27.8117 33.9319 28.7062 33.529 29.4638 32.9043C30.3468 32.141 31.2413 31.4102 32.0624 30.5718C32.5381 30.0303 32.8069 29.3469 33.3576 28.8641C34.0191 28.1072 34.3205 27.1188 34.8419 26.269C35.2785 25.4208 35.4414 24.4715 35.6402 23.5026C36.0605 21.5632 36.1224 19.7331 35.7738 17.7382L35.7689 17.7056H35.7673ZM28.4602 16.8591C28.3103 17.2326 28.4227 17.8459 28.1425 18.1085C27.204 18.575 25.9984 17.6159 25.2669 17.0467C24.8009 16.6405 24.4571 16.9178 24.4213 17.4805C24.3936 17.7823 24.4474 18.0857 24.4848 18.3874C24.6152 19.3155 24.5793 20.2551 24.5419 21.188C24.4278 23.9071 24.3105 27.4254 21.7282 29.0109C21.0227 29.4284 20.2097 29.5866 19.4049 29.6796C18.5805 29.8329 17.7887 29.8982 16.9887 29.6258C14.3966 29.0386 12.3633 26.7795 12.5784 24.0262C12.5572 23.4031 12.4513 22.7376 12.668 22.1439C13.0981 21.1587 13.6227 20.1833 14.4357 19.4297C15.5518 18.6158 16.8698 17.965 18.2775 17.9372C18.8086 17.9063 19.0676 18.3401 19.0367 18.8246C19.0236 19.3563 19.0106 19.8815 18.9471 20.4019C18.8118 21.1815 17.7968 21.1375 17.2347 21.4849C15.9118 22.139 15.1053 24.7439 15.9607 25.9786C17.0164 27.4287 19.4277 27.2134 20.4997 25.9036C20.648 25.6883 20.7295 25.4273 20.8077 25.1794C21.052 24.3687 21.3714 23.5662 21.3534 22.6985C21.342 22.2532 21.3241 21.8095 21.3925 21.3675C21.6125 19.8962 21.4691 18.4266 21.4561 16.952C21.4561 15.8021 21.6532 14.6522 21.6891 13.5039C21.7102 12.8808 21.6793 12.2642 21.6565 11.6346C21.6418 11.359 21.6923 11.0442 21.9807 10.9332C22.6943 10.7669 23.5659 10.594 24.317 10.6674C24.8221 10.7636 24.9149 11.359 25.0665 11.7798C26.0326 14.9197 29.397 14.078 28.4683 16.8297L28.4602 16.8607V16.8591Z" fill="currentColor"></path></svg>