<svg xmlns="http://www.w3.org/2000/svg" width="100%" viewBox="0 0 429 489" fill="none" class="team-grid__blob-2"><path d="M428.447 360.712C427.723 368.647 422.586 377.099 415.069 380.636C409.225 382.878 402.811 384.103 396.708 385.655C378.934 389.468 360.694 386.242 342.937 383.827C325.903 381.757 309.508 376.22 292.337 375.012C287.32 374.477 282.82 378.445 284.027 383.62C284.424 385.5 285.596 387.311 286.855 388.864C291.785 395.402 297.992 400.473 303.974 405.924C317.059 418.586 328.041 433.076 340.161 446.583C347.385 456.277 353.108 471.371 346.195 482.377C343.247 486.034 337.937 487.5 332.92 488.276C311.646 490.519 291.475 480.635 272.045 473.717C262.856 470.647 254.409 466.179 246.013 461.383C189.362 430.402 138.418 390.313 91.5591 346.049C79.1807 333.87 66.9575 321.192 56.0445 307.598C50.9932 300.923 47.0452 293.384 42.3559 286.45C38.7527 281.033 33.9772 276.462 29.9086 271.408C28.5121 269.476 27.4777 267.285 26.3743 265.18C23.8401 260.057 19.9438 255.969 17.2199 251.001C11.3065 241.099 7.65162 229.904 3.99673 219.191C1.73828 212.774 -0.347774 206.098 0.0487476 199.216C0.134948 187.848 -1.46838 174.444 14.4959 175.928C26.4261 178.602 36.8218 191.729 44.8385 200.389C48.4244 203.908 51.8724 207.151 54.8377 211.394C58.2857 215.396 61.4234 219.847 64.6818 223.918C67.2333 226.937 70.5607 229.283 73.0605 232.491C76.0258 236.286 78.4049 240.633 81.8874 244.066C87.7145 250.449 92.6969 257.228 98.6103 263.438C104.92 271.373 112.126 278.463 120.126 284.725C123.488 287.864 126.505 291.435 130.125 294.385C135.418 298.749 141.228 302.475 146.02 307.443C150.417 312.446 156.209 315.689 161.778 319.19C167.036 322.485 171.588 326.763 177.156 329.42C179.621 330.645 182.138 331.8 184.569 333.094C194.31 338.476 205.826 344.341 217.291 341.46C220.722 340.322 223.359 337.924 223.911 334.698C224.497 331.179 221.394 328.178 218.86 325.073C216.119 321.519 212.464 318.897 208.585 316.706C191.5 306.736 176.242 293.971 160.675 281.706C138.607 264.956 117.798 246.671 99.4895 225.85C72.0606 195.265 48.0624 161.127 32.2877 123.039C24.5986 104.875 21.4782 85.2784 19.961 65.7167C19.4094 58.0404 23.5125 41.67 33.4773 51.1403C39.2872 58.6614 41.6318 68.1662 47.1486 75.9805C51.338 82.5528 55.1308 89.9532 60.9752 95.18C64.2508 97.4225 66.8885 94.4382 67.3195 90.7639C67.8195 83.8811 66.2334 76.7568 65.8369 69.874C64.0267 49.2428 65.0611 24.4198 77.4739 7.08342C83.4907 -0.610152 95.3002 -1.52441 103.937 1.89112C113.092 8.39443 121.626 16.6573 126.453 26.8521C128.574 30.9404 131.901 34.3904 134.263 38.427C137.59 43.5847 139.762 49.5188 142.486 54.9181C148.555 64.6817 154.675 74.6523 162.209 83.5189C166.502 88.1419 169.743 93.4204 173.622 98.354C180.811 106.962 187.707 115.897 196.379 123.229C199.603 125.954 202.792 128.68 205.757 131.681C211.688 137.65 217.136 144.136 223.273 149.897C227.756 153.934 233.048 156.918 236.893 161.628C243.961 169.373 251.237 176.704 255.96 185.985C257.667 190.591 258.805 195.49 261.236 199.802C265.046 207.168 262.529 215.914 257.633 222.124C254.616 225.677 250.133 227.834 246.272 230.438C242.617 232.508 238.272 232.232 234.135 232.526C230.376 232.733 226.635 233.06 222.86 233.06C209.843 232.733 197.344 227.868 185.811 222.193C180.001 219.329 173.743 217.19 168.433 213.326C158.244 206.288 148.572 198.37 138.659 190.987C134.728 188.365 126.384 180.12 123.177 187.02C121.229 194.817 132.677 207.271 137.28 213.275C166.984 247.016 208.705 268.423 251.15 281.516C269.218 285.622 287.32 290.383 305.56 293.539C323.404 296.162 340.989 300.077 358.591 303.993C370.659 307.564 381.692 313.222 393.433 317.431C403.811 322.02 413.414 328.661 421.276 336.958C426.93 343.323 429.154 352.035 428.516 360.436L428.482 360.763L428.447 360.712Z" fill="#4B69F0"></path></svg>